<?xml version="1.0" encoding="UTF-8"?>
<svg width="32px" height="33px" viewBox="0 0 32 33" version="1.1" xmlns="http://www.w3.org/2000/svg" xmlns:xlink="http://www.w3.org/1999/xlink">
    <!-- Generator: Sketch 46 (44423) - http://www.bohemiancoding.com/sketch -->
    <title>noun_1041109_cc</title>
    <desc>Created with Sketch.</desc>
    <defs></defs>
    <g id="Round-3" stroke="none" stroke-width="1" fill="none" fill-rule="evenodd">
        <g id="Home" transform="translate(-38.000000, -1096.000000)">
            <g id="noun_1041109_cc" transform="translate(38.000000, 1096.000000)">
                <g id="Group" transform="translate(0.000000, 0.242979)">
                    <path d="M16,0.137977143 C7.17250667,0.137977143 -1.14285712e-07,7.31047238 -1.14285712e-07,16.137981 C-1.14285712e-07,24.9654857 7.17250667,32.137981 16,32.137981 C24.827501,32.137981 32,24.9654857 32,16.137981 C32,7.31047238 24.8274971,0.137980952 16,0.137980952 L16,0.137977143 Z" id="Path" fill="#79EAB9"></path>
                    <path d="M16,0.137977143 C7.17250667,0.137977143 -1.14285716e-07,7.31047238 -1.14285716e-07,16.137981 C-1.14285716e-07,24.9654857 7.17250667,32.137981 16,32.137981 C24.827501,32.137981 32,24.9654857 32,16.137981 C32,7.31047238 24.8274971,0.137980952 16,0.137980952 L16,0.137977143 Z M16,1.66178667 C24.0039619,1.66178667 30.4761905,8.13401524 30.4761905,16.137981 C30.4761905,24.1419429 24.0039657,30.6141714 16,30.6141714 C7.9960419,30.6141714 1.52380952,24.1419429 1.52380952,16.137981 C1.52380952,8.13401905 7.9960419,1.66179048 16,1.66179048 L16,1.66178667 Z M16,4.32845333 C15.5792,4.32845333 15.2380952,4.6695581 15.2380952,5.0903581 L15.2380952,16.137981 C15.2380952,16.348381 15.3264076,16.5358476 15.4642857,16.6737143 C17.8881067,19.0758857 20.3182438,21.523619 22.7380952,23.9475048 C23.0356457,24.2450667 23.5119733,24.2450667 23.8095238,23.9475048 C24.1070781,23.6499429 24.1070743,23.1736 23.8095238,22.8760762 L16.7619048,15.8284571 L16.7619048,5.0903581 C16.7619048,4.6695581 16.4208,4.32845333 16,4.32845333 Z" id="Shape" fill="#000000" fill-rule="nonzero"></path>
                </g>
            </g>
        </g>
    </g>
</svg>