<svg xmlns="http://www.w3.org/2000/svg" width="32" height="33"><title>noun_1041109_cc</title><desc>Created with Sketch.</desc><g fill="none"><g><g><g><path fill="#79EAB9" d="M16 .38c-8.83 0-16 7.17-16 16s7.17 16 16 16 16-7.17 16-16-7.17-16-16-16z"/><path fill="#000" fill-rule="nonzero" d="M16 .38c-8.83 0-16 7.17-16 16s7.17 16 16 16 16-7.17 16-16-7.17-16-16-16zm0 1.52c8 0 14.48 6.48 14.48 14.48S24 30.86 16 30.86 1.52 24.38 1.52 16.38 8 1.9 16 1.9zm0 2.67c-.42 0-.76.34-.76.76v11.05c0 .2.1.4.22.54 2.43 2.4 4.86 4.85 7.28 7.27.3.3.77.3 1.07 0 .3-.3.3-.78 0-1.08l-7.04-7.05V5.33c0-.42-.34-.76-.76-.76z"/></g></g></g></g></svg>