<svg xmlns="http://www.w3.org/2000/svg" width="32" height="30"><title>exotherm_icon</title><desc>Created with Sketch.</desc><g fill="none"><g fill="#fff" fill-rule="nonzero" stroke="#2E2D38" stroke-width="1.042"><g><path d="M9.53 4.68c.4.4.4 1.05 0 1.43-.4.42-1.05.42-1.42 0L6.23 4.2v2.04c0 .9-.16 1.77-.54 2.6l-1.7 3.94c-.25.55-.38 1.16-.38 1.74v1.67c0 .6.13 1.25.4 1.83l1.62 3.5c.4.86.6 1.78.6 2.7v3.47c0 .58-.43 1.03-1 1.03-.58 0-1.02-.45-1.02-1.03v-3.47c0-.6-.13-1.26-.4-1.84l-1.62-3.52c-.4-.85-.6-1.77-.6-2.7v-1.66c0-.88.16-1.77.53-2.6l1.73-3.9c.24-.55.37-1.16.37-1.74V4.23l-1.9 1.9c-.2.2-.46.32-.7.32-.23 0-.5-.1-.7-.3C.5 5.72.5 5.07.9 4.7l3.6-3.64c.4-.4 1.05-.4 1.42 0l3.6 3.62zm6.94-3.65c-.4-.4-1.05-.4-1.42 0l-3.6 3.65c-.4.4-.4 1.05 0 1.43.2.2.47.3.7.3.24 0 .5-.1.7-.3l1.9-1.9v2.04c0 .62-.14 1.2-.37 1.74l-1.72 3.92c-.37.82-.54 1.67-.54 2.6v1.66c0 .92.2 1.87.6 2.7l1.62 3.5c.27.58.4 1.2.4 1.84v3.47c0 .58.45 1.02 1.02 1.02.57 0 1-.45 1-1.03v-3.44c0-.92-.2-1.87-.6-2.7l-1.6-3.5c-.28-.58-.42-1.2-.42-1.84V14.5c0-.6.14-1.2.37-1.74l1.73-3.9c.37-.83.54-1.68.54-2.6V4.23l1.9 1.9c.4.42 1.03.42 1.4 0 .4-.4.4-1.05 0-1.42l-3.6-3.67zm14.15 3.65l-3.6-3.65c-.38-.37-1.05-.37-1.42 0L22 4.68c-.4.4-.4 1.05 0 1.43.4.42 1.04.42 1.4 0l1.9-1.9v2.04c0 .62-.14 1.2-.38 1.74l-1.7 3.92c-.38.82-.55 1.67-.55 2.6v1.66c0 .92.2 1.87.6 2.7l1.62 3.5c.26.58.4 1.2.4 1.84v3.47c0 .58.43 1.02 1 1.02.58 0 1.02-.45 1.02-1.03v-3.44c0-.92-.2-1.87-.6-2.7l-1.63-3.5c-.28-.58-.4-1.2-.4-1.84V14.5c0-.6.12-1.2.36-1.74l1.72-3.9c.37-.83.54-1.68.54-2.6V4.23l1.88 1.9c.2.2.48.32.7.32.25 0 .52-.1.72-.3.4-.42.4-1.07 0-1.47z"/></g></g></g></svg>