<svg xmlns="http://www.w3.org/2000/svg" width="38" height="37" xmlns:xlink="http://www.w3.org/1999/xlink"><title>growth_icon</title><desc>Created with Sketch.</desc><defs><path id="a" d="M35.25 2.7H30.6V0h-3.03v2.7H9.77V0H6.75v2.7H2.1C.94 2.7 0 3.67 0 4.8v29.26c0 1.15.94 2.1 2.1 2.1h33.15c1.16 0 2.1-.95 2.1-2.1V4.8c0-1.14-.94-2.1-2.1-2.1zm-.94 30.42H3.05V13.9H34.3v19.22zm0-22.26H3.05v-5.1h3.7V7.3h3.04V5.76h17.8V7.3h3.03V5.76h3.7v5.1z"/><path id="b" d="M30.4 17.14h-3.47v3.47c3.47 0 0 0 3.47 0v-3.46z"/><path id="c" d="M20.23 17.14h-3.47v3.47c3.47 0 0 0 3.47 0v-3.46z"/><path id="d" d="M10.07 17.14H6.6v3.47c3.47 0 0 0 3.47 0v-3.46z"/><path id="e" d="M16.78 29.24c3.47 0 0 0 3.47 0v-3.47h-3.47v3.47z"/><path id="f" d="M26.95 29.24c3.48 0 0 0 3.48 0v-3.47h-3.48v3.47z"/><path id="g" d="M6.6 29.24c3.5 0 0 0 3.5 0v-3.47H6.6v3.47z"/></defs><g fill="none"><g><g><g><path id="Shape" stroke="#2E2D38" stroke-width=".83" d="M3.46 14.3v-.4l-.42.4h.42zm30.44 0h.4l-.4-.4v.4zm0 18.4v.42l.4-.42h-.4zm-30.44 0h-.42l.42.42v-.42zm0 0V14.3H33.9v18.4H3.46zm27.38-3.04h-4.3v-4.3h4.3v4.3zm-4.32-12.94h4.3v4.3h-4.3v-4.3zm-5.85 12.94h-4.3v-4.3h4.3v4.3zm-4.33-12.94h4.3v4.3h-4.3v-4.3zM10.5 29.66H6.2v-4.3h4.3v4.3zM6.18 16.72h4.3v4.3h-4.3v-4.3zM27.15 6.17H10.2v1.56H6.33V6.17H3.46v4.27H33.9V6.17H31v1.56h-3.87V6.17z"/><g id="Shape" fill-rule="nonzero" transform=""><use fill="#fff" fill-rule="evenodd" xlink:href="#a"/><path stroke="#2E2D38" stroke-width=".83" d="M7.16.4V0l-.42.4h.42zm2.2 0h.42l-.4-.4v.4zM28 .4V0l-.4.4h.4zm2.2 0h.43l-.4-.4v.4zM7.17.4h2.2v2.73H28V.4h2.2v2.73h5.07c.93 0 1.68.76 1.68 1.68v29.26c0 .93-.75 1.68-1.68 1.68H2.1c-.93 0-1.7-.76-1.7-1.68V4.8c0-.9.77-1.67 1.7-1.67h5.06V.4zm27.57 33.13H2.63V13.48h32.1v20.05zM7.16 6.9h2.2V5.34H28V6.9h2.2V5.34h4.55v5.93H2.63V5.34h4.53V6.9z"/></g><g id="Shape" fill-rule="nonzero"><use fill="#fff" fill-rule="evenodd" xlink:href="#b"/><path stroke="#2E2D38" stroke-width=".83" d="M30 17.55h-2.65v2.65c1.32 0 1.32 0 1.32 0s0 0 .76 0l.56-2.65z"/></g><g id="Shape" fill-rule="nonzero"><use fill="#fff" fill-rule="evenodd" xlink:href="#c"/><path stroke="#2E2D38" stroke-width=".83" d="M19.82 17.55h-2.65v2.65c1.33 0 1.33 0 1.33 0s0 0 .76 0l.56-2.65z"/></g><g id="Shape" fill-rule="nonzero"><use fill="#fff" fill-rule="evenodd" xlink:href="#d"/><path stroke="#2E2D38" stroke-width=".83" d="M9.65 17.55H7v2.65c1.33 0 1.33 0 1.33 0s0 0 .76 0l.55-2.65z"/></g><g id="Shape" fill-rule="nonzero"><use fill="#fff" fill-rule="evenodd" xlink:href="#e"/><path stroke="#2E2D38" stroke-width=".83" d="M17.75 28.83c.77 0 .77 0 .77 0s0 0 .76 0l.56-2.65H17.2v2.65h.55z"/></g><g id="Shape" fill-rule="nonzero"><use fill="#fff" fill-rule="evenodd" xlink:href="#f"/><path stroke="#2E2D38" stroke-width=".83" d="M27.92 28.83c.77 0 .77 0 .77 0s0 0 .75 0l.56-2.65h-2.63v2.65h.55z"/></g><g fill-rule="nonzero"><use fill="#fff" fill-rule="evenodd" xlink:href="#g"/><path stroke="#2E2D38" stroke-width=".83" d="M7.58 28.83c.77 0 .77 0 .77 0s0 0 .77 0l.55-2.65H7.03v2.65h.55z"/></g></g></g></g></g></svg>