<svg xmlns="http://www.w3.org/2000/svg" width="23" height="25"><title>noun_1097496_cc</title><desc>Created with Sketch.</desc><g fill="none"><g><g><path fill="#000" fill-rule="nonzero" d="M.12 24.18l4.12-4.67-2.63-2.16c-.1-.1-.15-.2-.16-.34 0-.13.03-.26.12-.36l9.5-10.78-1.8-1.5c-.1-.08-.17-.2-.18-.33 0-.13.03-.26.12-.36.18-.2.5-.23.72-.06l3.17 2.64 4.02-4.56-1-.8c-.1-.1-.15-.22-.16-.35 0-.12.03-.25.12-.36.18-.2.5-.23.72-.05l6.02 5c.22.17.24.48.06.7-.2.2-.5.22-.72.05l-.98-.82-4.02 4.56 3.17 2.64c.2.18.24.5.06.7-.2.2-.52.23-.73.05l-1.8-1.5-9.5 10.78c-.2.2-.52.23-.73.05l-2.62-2.17L.9 24.83c-.2.2-.5.23-.72.05-.1-.1-.17-.2-.18-.34 0-.12.03-.25.12-.36zM20.4 4.4l-2.5-2.07-4.03 4.56 2.5 2.07L20.4 4.4zM7.92 21.27l1.9-2.17L8.3 17.8c-.1-.1-.17-.2-.18-.34 0-.12.03-.25.12-.36.2-.2.5-.23.72-.05l1.53 1.27 1.2-1.38-1.53-1.26c-.1-.1-.16-.2-.18-.34-.02-.13.02-.26.12-.36.18-.2.5-.23.7-.06l1.54 1.27 1.22-1.36-1.53-1.27c-.1-.1-.17-.2-.18-.34 0-.12.03-.25.12-.36.17-.2.5-.23.7-.05l1.54 1.27 2.85-3.24-5.26-4.36-9.18 10.4 5.26 4.36z"/><path fill="#79EAB9" d="M7.95 21.26l1.92-2.17-1.54-1.28c-.1-.1-.16-.2-.17-.34 0-.12.03-.25.12-.36.18-.2.5-.23.72-.05l1.53 1.27 1.2-1.38-1.52-1.27c-.1-.1-.16-.22-.17-.34 0-.13.03-.26.12-.36.18-.2.5-.23.72-.06l1.53 1.27 1.2-1.36-1.52-1.27c-.1-.1-.17-.2-.18-.34 0-.12.03-.25.12-.36.2-.2.5-.23.72-.05l1.53 1.27 2.85-3.25-5.25-4.35L2.7 16.9l5.25 4.36z"/></g></g></g></svg>