<?xml version="1.0" encoding="UTF-8"?>
<svg width="23px" height="25px" viewBox="0 0 23 25" version="1.1" xmlns="http://www.w3.org/2000/svg" xmlns:xlink="http://www.w3.org/1999/xlink">
    <!-- Generator: Sketch 46 (44423) - http://www.bohemiancoding.com/sketch -->
    <title>noun_1097496_cc</title>
    <desc>Created with Sketch.</desc>
    <defs></defs>
    <g id="Round-3" stroke="none" stroke-width="1" fill="none" fill-rule="evenodd">
        <g id="Home" transform="translate(-286.000000, -1239.000000)" fill-rule="nonzero" fill="#000000">
            <g id="noun_1097496_cc" transform="translate(286.000000, 1239.000000)">
                <path d="M22.8780196,24.1845294 L18.7598002,19.5137215 L21.3856305,17.3370344 C21.4925701,17.248361 21.5524444,17.1261823 21.5625724,16.9999598 C21.5727004,16.8740262 21.53338,16.7440489 21.4419302,16.6403559 L11.9377053,5.86061319 L13.7416791,4.36529613 C13.8486187,4.2766227 13.908493,4.15415517 13.918621,4.02822157 C13.928749,3.90228797 13.8894286,3.77231063 13.7979788,3.6686176 C13.6150792,3.46123154 13.2933666,3.43668027 13.0794872,3.61402712 L9.90585183,6.24476843 L5.88474196,1.68400808 L6.8668591,0.869772272 C6.97379876,0.781098844 7.03367305,0.658920147 7.04380104,0.532697711 C7.05392903,0.406764113 7.0146086,0.276786775 6.92315881,0.173093744 C6.74025923,-0.0342923186 6.41854661,-0.0588435935 6.20466729,0.118503262 L0.178513305,5.11396559 C-0.0353660104,5.29131245 -0.0606859851,5.60296922 0.122213597,5.81064412 C0.305113179,6.01803019 0.626825799,6.04258146 0.840705115,5.8652346 L1.82282225,5.0509988 L5.84393212,9.61175914 L2.6702967,12.2425005 C2.45641738,12.4198473 2.43109741,12.7317929 2.61399699,12.939179 C2.79689657,13.146565 3.11860919,13.1711163 3.33248851,12.9937695 L5.13646224,11.4984524 L14.6403892,22.2781951 C14.8232888,22.4855812 15.1450014,22.5101324 15.3588807,22.3327856 L17.9847111,20.1560984 L22.1029305,24.8269063 C22.2858301,25.0342923 22.6075427,25.0588436 22.821422,24.8814967 C22.9283617,24.7928233 22.9882359,24.6703558 22.9983639,24.5444222 C23.0087898,24.4179109 22.9694694,24.2882224 22.8780196,24.1845294 Z M2.59761348,4.40862191 L5.10995074,2.32609613 L9.1310606,6.88685648 L6.61872335,8.96938226 L2.59761348,4.40862191 Z M15.0845314,21.2600393 L13.170937,19.0894177 L14.7011572,17.8211278 C14.8080968,17.7324543 14.8679711,17.6102756 14.8780991,17.4840532 C14.8882271,17.3581196 14.8489067,17.2281423 14.7574569,17.1244492 C14.5745573,16.9170632 14.2528447,16.8925119 14.0389654,17.0698588 L12.5090431,18.3381487 L11.2978547,16.9644327 L12.8280748,15.6961427 C12.9350145,15.6074693 12.9948887,15.4850018 13.0050167,15.3590682 C13.0151447,15.2328457 12.9758243,15.1031572 12.8843745,14.9994642 C12.7014749,14.7920781 12.3797623,14.7675269 12.165883,14.9448737 L10.6359607,16.2131637 L9.42477231,14.8394477 L10.9549924,13.5711577 C11.0619321,13.4824843 11.1218064,13.3603056 11.1319344,13.2340831 C11.1420624,13.1078607 11.1027419,12.9781722 11.0112921,12.8744792 C10.8283926,12.6670931 10.5066799,12.6425418 10.2928006,12.8198887 L8.7625805,14.0881786 L5.91214711,10.855209 L11.1638077,6.50212356 L20.3367878,16.9060873 L15.0845314,21.2600393 Z" id="Shape" transform="translate(11.500000, 12.500000) scale(-1, 1) translate(-11.500000, -12.500000) "></path>
            </g>
        </g>
    </g>
</svg>