<svg xmlns="http://www.w3.org/2000/svg" width="174" height="18"><title>logo-wordmark</title><desc>Created with Sketch.</desc><defs><linearGradient id="a" x1="-.003%" x2="99.998%" y1="49.986%" y2="49.986%"><stop stop-color="#867EEA" offset="0%"/><stop stop-color="#7ECEEA" offset="47.13%"/><stop stop-color="#75E9B1" offset="100%"/></linearGradient></defs><g fill="none"><g><g><g fill-rule="nonzero"><path fill="#fff" d="M113.6 1.04c-4.66 0-8.37 3.74-8.37 8.4 0 4.63 3.7 8.33 8.36 8.33 4.65 0 8.38-3.7 8.38-8.34 0-4.65-3.73-8.4-8.4-8.4zm0 15.1c-3.7 0-6.74-3.02-6.74-6.7 0-3.7 3.03-6.77 6.73-6.77 3.7 0 6.75 3.06 6.75 6.76 0 3.7-3.05 6.72-6.76 6.72zM140.3 1.28h-.92c-.18 0-.34.14-.4.25l-5.8 13h-.1l-5.8-13c-.04-.1-.17-.25-.4-.25h-.9c-.36 0-.55.3-.4.6l7.02 15.64c.08.14.24.26.4.26h.23c.2 0 .34-.12.4-.26l7.08-15.64c.15-.3-.04-.6-.4-.6zM157.27 1.28h-.9c-.24 0-.43.2-.43.44v9.74c0 2.65-1.68 4.67-4.43 4.67-2.7 0-4.36-2.07-4.36-4.72V1.73c0-.23-.2-.44-.45-.44h-.9c-.23 0-.44.2-.44.44v9.83c0 3.53 2.5 6.23 6.15 6.23 3.7 0 6.2-2.7 6.2-6.23V1.72c0-.23-.2-.44-.43-.44zM168.44 8.43c-1.95-.8-3.14-1.72-3.14-3.28 0-.97.74-2.55 3.2-2.55 1.43 0 2.9.97 3.06 1.07.37.2.6.1.82-.2.1-.15.2-.3.28-.46.28-.43 0-.7-.14-.78 0 0-1.7-1.18-3.98-1.18-3.7 0-4.96 2.55-4.96 4.13 0 2.65 1.53 3.7 4.1 4.8 2.67 1.13 4.07 2.08 4.07 3.68 0 1.37-1.24 2.56-3.12 2.56-2.07 0-3.78-1.62-3.94-1.76-.34-.28-.6-.1-.83.2-.12.15-.23.3-.34.46-.3.44-.05.62.14.8.3.26 2.16 1.86 4.9 1.86 2.73 0 5.04-1.76 5.04-4.18.02-2.7-2-3.87-5.16-5.15zM99.08.76h-.8c-.27 0-.46.2-.46.45v12.4c-.03 0-.03 0-.04 0L88.55 2.1v2.55l10.1 12.6h.43c.24 0 .45-.18.45-.4V1.2c0-.23-.22-.44-.45-.44zM21.84 14.8c.1-.15.22-.3.33-.45.24-.32.5-.5.84-.22.16.14 1.9 1.77 3.97 1.77 1.9 0 3.15-1.2 3.15-2.56 0-1.63-1.4-2.58-4.1-3.7-2.6-1.13-4.16-2.2-4.16-4.86 0-1.6 1.3-4.17 5.02-4.17 2.3 0 4.02 1.2 4.02 1.2.15.07.4.35.15.8-.1.15-.2.3-.3.44-.2.33-.44.43-.82.22-.16-.1-1.64-1.1-3.07-1.1-2.5 0-3.25 1.6-3.25 2.6 0 1.57 1.22 2.47 3.2 3.3 3.15 1.3 5.2 2.5 5.2 5.2 0 2.44-2.32 4.22-5.07 4.22-2.78 0-4.65-1.6-4.96-1.9-.17-.16-.42-.35-.13-.8zM8.9.6c4.7 0 8.48 3.78 8.48 8.46 0 4.7-3.77 8.42-8.47 8.42C4.2 17.48.5 13.75.5 9.06.48 4.36 4.2.6 8.9.6zm0 15.25c1.5 0 2.88-.48 4.02-1.3 1.7-1.23 2.8-3.23 2.8-5.48 0-3.72-3.08-6.82-6.8-6.82-3.74 0-6.8 3.1-6.8 6.82s3.06 6.78 6.8 6.78zM40.5 3.62V16.8c0 .24.22.45.46.45h.9c.23 0 .44-.2.44-.45V3.62h-1.8zM46.38.84h-9.96c-.27 0-.45.2-.45.44v.7c0 .22.18.43.45.43h9.97c.26 0 .44-.2.44-.43v-.7c0-.22-.18-.43-.44-.43zM59.9 9.7c.24 0 .44-.18.44-.44v-.68c0-.24-.2-.45-.45-.45h-5.42V9.7h5.4zM61.5 1.97v-.7c0-.23-.2-.44-.44-.44h-9.28c-.26 0-.44.2-.44.45v15.5c0 .25.18.46.44.46h9.28c.24 0 .45-.2.45-.45v-.67c0-.24-.2-.44-.44-.44h-7.9V2.4h7.9c.24 0 .45-.2.45-.43z"/><path fill="url(#a)" d="M86.46.2h-.58c-.23 0-.44.2-.44.42v7.7s-2.37-.1-4.12-2.04c-.32-.36-.4-.52-.46-.74C79.58 2.4 76.5.2 72.86.2c-4.73 0-8.5 3.75-8.58 8.46 0 .02 0 .04 0 .06 0 .03 0 .05 0 .07.08 4.7 3.85 8.46 8.6 8.46 3.62 0 6.7-2.2 7.98-5.36.07-.2.14-.37.46-.73 1.75-1.95 4.12-2.03 4.12-2.03v7.7c0 .22.2.4.44.4h.58l.66-.82V1.02L86.46.2zM72.86 15.6c-3.77 0-6.86-3.1-6.9-6.86.04-3.76 3.13-6.86 6.9-6.86 3.8 0 6.9 3.1 6.96 6.86-.05 3.76-3.17 6.86-6.95 6.86z" transform="translate(.318 .317)"/></g></g></g></g></svg>