<svg xmlns="http://www.w3.org/2000/svg" width="819" height="510"><title>mark</title><desc>Created with Sketch.</desc><defs><linearGradient id="a" x1="0%" y1="50%" y2="50%"><stop stop-color="#7F7CBB" offset="0%"/><stop stop-color="#7FCEEA" offset="47.13%"/><stop stop-color="#89CDA8" offset="100%"/></linearGradient></defs><g fill="none"><g fill="url(#a)" fill-rule="nonzero"><path d="M105.16 510c-236.38 0-425.3-183.16-434-418.45h-.16V73.97C-323.58-164.6-133.43-351 105.16-351c178.1 0 336.38 105.98 403.3 270 3.2 9.95 6.06 16.82 21.16 33.65 69.25 77.07 159.95 93.6 188.75 96.96v-370.27c0-16 13.98-29.26 30.5-29.26h33.02l35.27 43.9L819 82.84V459.7l-37.1 49.4h-33.02c-16.54 0-30.52-13.5-30.52-29.37v-370.4c-28.8 3.43-119.43 20-188.74 96.9-15.17 17-17.96 23.82-20.94 32.94C441.48 403.9 283.25 510 105.16 510zm.75-756C-73.07-246-220.6-99.9-223 79.66-220.65 258.9-73.08 405 105.9 405 285.63 405 433.73 258.96 436 79.42 433.72-99.88 285.57-246 105.9-246z"/></g></g></svg>