<?xml version="1.0" encoding="UTF-8"?>
<svg width="174px" height="18px" viewBox="0 0 174 18" version="1.1" xmlns="http://www.w3.org/2000/svg" xmlns:xlink="http://www.w3.org/1999/xlink">
    <!-- Generator: Sketch 45.2 (43514) - http://www.bohemiancoding.com/sketch -->
    <title>logo-wordmark</title>
    <desc>Created with Sketch.</desc>
    <defs>
        <linearGradient x1="-0.00277932185%" y1="49.985905%" x2="99.9983324%" y2="49.985905%" id="linearGradient-1">
            <stop stop-color="#867EEA" offset="0%"></stop>
            <stop stop-color="#7ECEEA" offset="47.13%"></stop>
            <stop stop-color="#75E9B1" offset="100%"></stop>
        </linearGradient>
    </defs>
    <g id="Round-3" stroke="none" stroke-width="1" fill="none" fill-rule="evenodd">
        <g id="Home" transform="translate(-33.000000, -31.000000)">
            <g id="logo-wordmark" transform="translate(33.000000, 31.000000)">
                <g transform="translate(0.317518, 0.316667)" id="Shape">
                    <path d="M113.27654,0.727066667 C108.617912,0.727066667 104.91438,4.46373333 104.91438,9.10986667 C104.91438,13.756 108.617912,17.4546667 113.27654,17.4546667 C117.935168,17.4546667 121.664102,13.756 121.664102,9.10986667 C121.664102,4.46373333 117.935168,0.727066667 113.27654,0.727066667 Z M113.27654,15.8282667 C109.573007,15.8282667 106.543883,12.8047333 106.543883,9.10986667 C106.543883,5.41626667 109.573007,2.3484 113.27654,2.3484 C116.980073,2.3484 120.029518,5.41626667 120.029518,9.10986667 C120.033328,12.8085333 116.980073,15.8282667 113.27654,15.8282667 Z" fill="#FFFFFF" fill-rule="nonzero"></path>
                    <path d="M139.991255,0.960133333 L139.065372,0.960133333 C138.879942,0.960133333 138.721182,1.09946667 138.669109,1.216 L132.872496,14.2259333 L132.775971,14.2259333 L126.973007,1.216 C126.926015,1.09946667 126.787577,0.960133333 126.576745,0.960133333 L125.648321,0.960133333 C125.301591,0.960133333 125.11108,1.2616 125.252058,1.5656 L132.284453,17.2064 C132.358117,17.3419333 132.520686,17.461 132.680715,17.461 L132.916949,17.461 C133.10238,17.461 133.248438,17.3419333 133.313212,17.2064 L140.391328,1.5656 C140.528496,1.2616 140.341796,0.960133333 139.991255,0.960133333 Z" fill="#FFFFFF" fill-rule="nonzero"></path>
                    <path d="M156.94927,0.960133333 L156.065299,0.960133333 C155.808745,0.960133333 155.620774,1.16913333 155.620774,1.40346667 L155.620774,11.1416 C155.620774,13.7902 153.944277,15.8118 151.194569,15.8118 C148.468993,15.8118 146.817898,13.7420667 146.817898,11.096 L146.817898,1.406 C146.817898,1.17166667 146.631197,0.962666667 146.374642,0.962666667 L145.486861,0.962666667 C145.253168,0.962666667 145.044876,1.17166667 145.044876,1.406 L145.044876,11.2366 C145.044876,14.7655333 147.535489,17.4635333 151.193299,17.4635333 C154.871431,17.4635333 157.392526,14.7655333 157.392526,11.2366 L157.392526,1.4022 C157.392526,1.16913333 157.181693,0.960133333 156.94927,0.960133333 Z" fill="#FFFFFF" fill-rule="nonzero"></path>
                    <path d="M168.125912,8.11553333 C166.17127,7.29853333 164.977401,6.3954 164.977401,4.83486667 C164.977401,3.85826667 165.724204,2.27873333 168.189416,2.27873333 C169.611898,2.27873333 171.077562,3.25533333 171.241401,3.34906667 C171.614803,3.55806667 171.848496,3.46306667 172.061869,3.1388 C172.150774,3.00326667 172.247299,2.84113333 172.340015,2.69546667 C172.623241,2.25466667 172.340015,1.976 172.204117,1.90506667 C172.204117,1.90506667 170.503489,0.7182 168.218628,0.7182 C164.517635,0.7182 163.257723,3.27686667 163.257723,4.8564 C163.257723,7.50626667 164.794511,8.55126667 167.358788,9.66593333 C170.034832,10.7806 171.436993,11.7344 171.436993,13.3367333 C171.436993,14.7047333 170.196131,15.8916 168.313883,15.8916 C166.239854,15.8916 164.535416,14.2677333 164.372847,14.1258667 C164.046438,13.8446667 163.792423,14.0334 163.55238,14.3323333 C163.435533,14.4704 163.318686,14.6338 163.20819,14.7782 C162.926234,15.2202667 163.159927,15.4052 163.347898,15.5686 C163.647635,15.8472667 165.510832,17.4458 168.25927,17.4458 C170.984847,17.4458 173.295109,15.6788 173.295109,13.2632667 C173.29892,10.5779333 171.271883,9.3936 168.125912,8.11553333 Z" fill="#FFFFFF" fill-rule="nonzero"></path>
                    <path d="M98.7608759,0.445866667 L97.9480292,0.445866667 C97.6927445,0.445866667 97.5022336,0.656133333 97.5022336,0.891733333 L97.5022336,13.2708667 C97.475562,13.2708667 97.475562,13.2708667 97.457781,13.2708667 L88.2332409,1.786 L88.2332409,4.33706667 L98.344292,16.9429333 L98.7608759,16.9429333 C98.9996496,16.9429333 99.2079416,16.758 99.2079416,16.5236667 L99.2079416,0.887933333 C99.2041314,0.656133333 98.9958394,0.445866667 98.7608759,0.445866667 Z" fill="#FFFFFF" fill-rule="nonzero"></path>
                    <path d="M21.5175766,14.4691333 C21.6217226,14.3361333 21.7423796,14.1689333 21.854146,14.0296 C22.0967299,13.7116667 22.3647153,13.5381333 22.6923942,13.8155333 C22.846073,13.9485333 24.5733723,15.5850667 26.6550219,15.5850667 C28.5575912,15.5850667 29.806073,14.3944 29.806073,13.0213333 C29.806073,11.3949333 28.3899416,10.4386 25.6986569,9.32393333 C23.1102482,8.189 21.5429781,7.13513333 21.5429781,4.465 C21.5429781,2.86266667 22.828292,0.2926 26.5584964,0.2926 C28.8636788,0.2926 30.5846277,1.482 30.5846277,1.482 C30.7306861,1.55673333 30.9923212,1.83413333 30.7306861,2.27873333 C30.6379708,2.4282 30.5274745,2.58906667 30.4411095,2.72333333 C30.2226569,3.05266667 29.9953139,3.1502 29.6092117,2.9412 C29.4491825,2.85 27.9682774,1.85566667 26.5394453,1.85566667 C24.047562,1.85566667 23.2944088,3.4542 23.2944088,4.44726667 C23.2944088,6.01413333 24.4971679,6.91473333 26.4683212,7.74566667 C29.6346131,9.03133333 31.6908613,10.2296 31.6908613,12.9567333 C31.6908613,15.3849333 29.3628175,17.1608 26.6143796,17.1608 C23.8329197,17.1608 21.9621022,15.5508667 21.6522044,15.2633333 C21.4794745,15.1075333 21.2292701,14.9175333 21.5175766,14.4691333 Z" fill="#FFFFFF" fill-rule="nonzero"></path>
                    <path d="M8.59585401,0.290066667 C13.293854,0.290066667 17.0634307,4.0584 17.0634307,8.74253333 C17.0634307,13.4342667 13.293854,17.1608 8.59585401,17.1608 C3.89150365,17.1608 0.160029197,13.4355333 0.160029197,8.74253333 C0.160029197,4.05713333 3.89150365,0.290066667 8.59585401,0.290066667 Z M8.59585401,15.5356667 C10.0805693,15.5356667 11.466219,15.048 12.597854,14.2386 C14.2972117,13.0048667 15.4034453,11.0035333 15.4034453,8.7514 C15.4034453,5.02993333 12.3260584,1.92913333 8.59585401,1.92913333 C4.85929927,1.92913333 1.80985401,5.02993333 1.80985401,8.7514 C1.80985401,12.4728667 4.85929927,15.5356667 8.59585401,15.5356667 Z" fill="#FFFFFF" fill-rule="nonzero"></path>
                    <path d="M40.1927299,3.2984 L40.1927299,16.4856667 C40.1927299,16.7187333 40.403562,16.9302667 40.6423358,16.9302667 L41.5351971,16.9302667 C41.7676204,16.9302667 41.9784526,16.7187333 41.9784526,16.4856667 L41.9784526,3.2984 L40.1927299,3.2984 Z" fill="#FFFFFF" fill-rule="nonzero"></path>
                    <path d="M46.0617372,0.525666667 L36.0980146,0.525666667 C35.8338394,0.525666667 35.6509489,0.724533333 35.6509489,0.966466667 L35.6509489,1.65046667 C35.6509489,1.88226667 35.8338394,2.09253333 36.0980146,2.09253333 L38.5543358,2.09253333 L40.1889197,2.09253333 L41.969562,2.09253333 L44.265854,2.09253333 L46.0617372,2.09253333 C46.3259124,2.09253333 46.5062628,1.88733333 46.5062628,1.65046667 L46.5062628,0.966466667 C46.5062628,0.728333333 46.3246423,0.525666667 46.0617372,0.525666667 Z" fill="#FFFFFF" fill-rule="nonzero"></path>
                    <path d="M59.5727737,9.3822 C59.821708,9.3822 60.0236496,9.2074 60.0236496,8.94013333 L60.0236496,8.25866667 C60.0236496,8.018 59.8242482,7.8128 59.5727737,7.8128 L54.166073,7.8128 L54.166073,9.37713333 L59.5727737,9.37713333 L59.5727737,9.3822 Z" fill="#FFFFFF" fill-rule="nonzero"></path>
                    <path d="M61.1883066,1.65046667 L61.1883066,0.966466667 C61.1883066,0.7258 60.9889051,0.511733333 60.7387007,0.511733333 L51.4620876,0.511733333 C51.2055328,0.511733333 51.0188321,0.7258 51.0188321,0.966466667 L51.0188321,16.473 C51.0188321,16.7162 51.2042628,16.9277333 51.4620876,16.9277333 L60.7387007,16.9277333 C60.986365,16.9277333 61.1883066,16.7162 61.1883066,16.473 L61.1883066,15.8130667 C61.1883066,15.5749333 60.9889051,15.3684667 60.7387007,15.3684667 L52.8388467,15.3684667 L52.8388467,11.4443333 L52.8388467,9.3822 L52.8388467,7.8166 L52.8388467,7.0224 L52.8388467,2.09253333 L60.7387007,2.09253333 C60.986365,2.09253333 61.1883066,1.88733333 61.1883066,1.65046667 Z" fill="#FFFFFF" fill-rule="nonzero"></path>
                    <path d="M86.460219,0.206466667 L85.8810657,0.206466667 C85.6486423,0.206466667 85.4390803,0.3914 85.4390803,0.621933333 L85.4390803,8.30933333 C85.4390803,8.30933333 83.0653139,8.22446667 81.3164234,6.27506667 C81.0001752,5.91913333 80.9265109,5.7608 80.857927,5.54293333 C79.5764234,2.39653333 76.5015766,0.1862 72.8729781,0.1862 C68.1330657,0.1862 64.3584088,3.95326667 64.275854,8.65766667 L64.2733139,8.65766667 C64.2733139,8.6792 64.2745839,8.70073333 64.2745839,8.72353333 C64.2745839,8.74633333 64.2733139,8.76786667 64.2733139,8.7894 L64.275854,8.7894 C64.3584088,13.4950667 68.1330657,17.2608667 72.8729781,17.2608667 C76.5015766,17.2608667 79.5764234,15.0518 80.857927,11.9041333 C80.927781,11.6862667 81.0001752,11.5254 81.3164234,11.1707333 C83.0653139,9.22386667 85.4390803,9.13773333 85.4390803,9.13773333 L85.4390803,16.8276667 C85.4390803,17.0582 85.6486423,17.2380667 85.8810657,17.2380667 L86.460219,17.2380667 L87.121927,16.4198 L87.121927,8.78686667 L87.121927,8.6564 L87.121927,1.02853333 L86.460219,0.206466667 Z M72.8729781,15.5838 C69.0932409,15.5838 66.0006131,12.4804667 65.9523504,8.721 C66.0006131,4.9628 69.0932409,1.85693333 72.8729781,1.85693333 C76.6514453,1.85693333 79.7682044,4.9628 79.8190073,8.721 C79.7694745,12.4804667 76.6527153,15.5838 72.8729781,15.5838 Z" fill="url(#linearGradient-1)" fill-rule="nonzero"></path>
                </g>
            </g>
        </g>
    </g>
</svg>