<?xml version="1.0" encoding="UTF-8"?>
<svg width="819px" height="510px" viewBox="0 0 819 510" version="1.1" xmlns="http://www.w3.org/2000/svg" xmlns:xlink="http://www.w3.org/1999/xlink">
    <!-- Generator: Sketch 45.2 (43514) - http://www.bohemiancoding.com/sketch -->
    <title>mark</title>
    <desc>Created with Sketch.</desc>
    <defs>
        <linearGradient x1="0%" y1="49.9999835%" x2="100.000037%" y2="49.9999835%" id="linearGradient-1">
            <stop stop-color="#7F7CBB" offset="0%"></stop>
            <stop stop-color="#7FCEEA" offset="47.13%"></stop>
            <stop stop-color="#89CDA8" offset="100%"></stop>
        </linearGradient>
    </defs>
    <g id="Round-3" stroke="none" stroke-width="1" fill="none" fill-rule="evenodd">
        <g id="Home" fill-rule="nonzero" fill="url(#linearGradient-1)">
            <path d="M105.155807,510 C-131.216575,510 -320.136787,326.840007 -328.825454,91.5458189 L-329,91.5458189 L-329,73.9654346 C-323.580492,-164.585805 -133.425582,-351 105.155807,-351 C283.248449,-351 441.540143,-245.023295 508.451322,-81.0066721 C511.661823,-71.050296 514.524662,-64.1771479 529.621454,-47.3504732 C598.870404,29.7174067 689.567042,46.2406028 718.36569,49.6130617 L718.36569,-320.670667 C718.36569,-336.65957 732.345101,-349.928564 748.879751,-349.928564 L781.891822,-349.928564 L817.170129,-306.041006 L819,82.8503747 L819,459.703773 L781.890392,509.103812 L748.87832,509.103812 C732.343671,509.103812 718.364259,495.602579 718.364259,479.730508 L718.364259,109.329947 C689.565612,112.757972 598.929063,129.341009 529.620023,206.235066 C514.450266,223.236989 511.660392,230.053146 508.681666,239.1689 C441.467177,403.906462 283.24988,510 105.155807,510 Z M105.911947,-246 C-73.0803557,-246 -220.595611,-99.8896513 -223,79.6578881 C-220.650609,258.905089 -73.0803557,405 105.911947,405 C285.622041,405 433.722529,258.961227 436,79.4150913 C433.722529,-99.8896513 285.565633,-246 105.911947,-246 Z" id="mark"></path>
        </g>
    </g>
</svg>