<svg xmlns="http://www.w3.org/2000/svg" width="1148" height="861"><title>mark</title><desc>Created with Sketch.</desc><defs><linearGradient id="a" x1="0%" y1="50%" y2="50%"><stop stop-color="#7F7CBB" offset="0%"/><stop stop-color="#7FCEEA" offset="47.13%"/><stop stop-color="#89CDA8" offset="100%"/></linearGradient></defs><g fill="none"><path fill="url(#a)" fill-rule="nonzero" d="M434.16 861C197.78 861 8.86 677.84.16 442.55H0v-17.58C5.42 186.4 195.57 0 434.16 0c178.1 0 336.38 105.98 403.3 270 3.2 9.95 6.06 16.82 21.16 33.65 69.25 77.07 159.95 93.6 188.75 96.96V30.34c0-16 13.98-29.26 30.5-29.26h33.02l35.27 43.9 1.83 388.88V810.7l-37.1 49.4h-33.02c-16.54 0-30.52-13.5-30.52-29.37v-370.4c-28.8 3.43-119.43 20-188.74 96.9-15.17 17-17.96 23.82-20.94 32.94C770.48 754.9 612.25 861 434.16 861zm.75-756C255.93 105 108.4 251.1 106 430.66 108.35 609.9 255.92 756 434.9 756c179.72 0 327.82-146.04 330.1-325.58C762.72 251.12 614.57 105 434.9 105z"/></g></svg>