<svg xmlns="http://www.w3.org/2000/svg" width="38" height="25"><title>Group 16</title><desc>Created with Sketch.</desc><g fill="none"><g><g transform="translate(-97 -1240) translate(97 1240)"><circle id="Oval-2" cx="30" cy="7" r="7" fill="#79EAB9"/><circle cx="8" cy="17" r="7" fill="#8199DE"/><g stroke="#000"><path d="M37 7.5c0-3.85-3.15-7-7-7-3.32 0-6.1 2.34-6.82 5.44l3.32.8c3.44.82 5.68 4.08 5.33 7.5C34.8 13.45 37 10.72 37 7.5z"/><path d="M23 7.5c0-.54.07-1.05.18-1.56l-5.43-1.3C14 3.75 10.2 6.1 9.3 9.83c0 .08 0 .15-.03.23-.25-.03-.5-.05-.77-.05h-1c-3.85 0-7 3.15-7 7s3.15 7 7 7h1c3.35 0 6.16-2.38 6.84-5.54l7.9 1.9c3.75.9 7.55-1.44 8.45-5.18.06-.3.1-.63.13-.93-.58.16-1.2.25-1.83.25-3.85 0-7-3.15-7-7z"/></g></g></g></g></svg>