<?xml version="1.0" encoding="utf-8"?>
<!-- Generator: Adobe Illustrator 21.1.0, SVG Export Plug-In . SVG Version: 6.00 Build 0)  -->
<svg version="1.1" id="Layer_1" xmlns="http://www.w3.org/2000/svg" xmlns:xlink="http://www.w3.org/1999/xlink" x="0px" y="0px"
	 viewBox="0 0 23 36" style="enable-background:new 0 0 23 36;" xml:space="preserve">
<style type="text/css">
	.st0{fill:#79EAB9;}
</style>
<title>no_mess_icon</title>
<desc>Created with Sketch.</desc>
<g>
	<g>
		<g>
			<g>
				<path d="M13.6,34.1c-0.7,0.7-1.5,1-2.4,1c-0.9,0-1.8-0.3-2.4-1c-1.2-1.3-0.9-3,0-5l2.4-5.1l2.4,5C14.7,32,14.8,32.9,13.6,34.1
					 M14.4,28.5l-2.8-5.8c-0.1-0.1-0.3-0.2-0.4-0.2c-0.2,0-0.3,0.1-0.4,0.2l-2.8,5.9c-0.6,1.3-1.8,3.9,0.2,6C9,35.5,10,36,11.1,36
					c1.2,0,2.3-0.4,3.1-1.3c1.6-1.7,1.4-3,0.3-5.9C14.5,28.7,14.4,28.6,14.4,28.5"/>
			</g>
			<path class="st0" d="M13.6,34.1c-0.7,0.7-1.5,1-2.4,1c-0.9,0-1.8-0.3-2.4-1c-1.2-1.3-0.9-3,0-5l2.4-5.1l2.4,5
				C14.7,32,14.8,32.9,13.6,34.1"/>
			<path d="M22.6,13.3c0,0,0-0.1,0-0.1c0-1.4-1.2-2.6-2.6-2.6c-0.2,0-0.5,0.1-0.8,0.2L18.3,11V5.2c0,0,0-0.1,0-0.1l0-0.1l0-0.1
				c0,0,0,0,0-0.1c0-1.4-1.2-2.6-2.6-2.6c-0.3,0-0.7,0.1-1,0.2l-0.7,0.3l-0.2-0.8C13.4,0.8,12.4,0,11.2,0c-1.1,0-2.1,0.7-2.4,1.8
				L8.5,2.6L7.8,2.3C7.5,2.2,7.2,2.1,6.9,2.1c-1.4,0-2.6,1.2-2.6,2.6v2L3.4,6.4C3.1,6.3,2.8,6.3,2.6,6.3C1.2,6.3,0.1,7.3,0,8.7v0.1
				c0,0,0,0.1,0,0.1v16.6c0,1.6,0.4,3.2,1.2,4.6c0.1,0.2,0.4,0.3,0.6,0.1c0,0,0.1-0.1,0.2-0.2c0-0.1,0-0.3,0-0.4
				c-0.7-1.2-1.1-2.6-1.1-4.2V8.9c0-1,0.8-1.8,1.7-1.8s1.7,0.8,1.7,1.8v8.4c0,0.2,0.2,0.4,0.4,0.4c0.2,0,0.4-0.2,0.4-0.4
				c0,0,0.1-12.5,0.1-12.5C5.2,3.8,6,3,7,3s1.7,0.8,1.7,1.8v12.5c0,0.2,0.2,0.4,0.4,0.4c0.2,0,0.4-0.2,0.4-0.4V2.6c0,0,0-0.1,0-0.1
				l0-0.2l0-0.2c0.2-0.8,0.9-1.3,1.7-1.3c1,0,1.7,0.8,1.7,1.8c0,0,0,0.1,0,0.2l0,0.1v14.4c0,0.2,0.2,0.4,0.4,0.4
				c0.2,0,0.4-0.2,0.4-0.4V5l0-0.1c0,0,0-0.1,0-0.2C14,3.8,14.8,3,15.7,3c1,0,1.7,0.8,1.7,1.8c0,0,0,0.1,0,0.1l0,0.1l0,0.1
				c0,0,0,0,0,0.1v12.1c0,0.2,0.2,0.4,0.4,0.4c0.2,0,0.4-0.2,0.4-0.5v-4c0-0.9,0.8-1.7,1.7-1.7c1,0,1.8,0.8,1.8,1.8v12h0v0
				c0,1.8-0.5,3.5-1.5,4.9c-0.1,0.2-0.1,0.5,0.1,0.6l0.1,0.1c0,0,0.1,0,0.1,0c0.2,0,0.3-0.1,0.3-0.1c1.1-1.6,1.7-3.5,1.7-5.4V13.5
				c0,0,0-0.1,0-0.1L22.6,13.3L22.6,13.3z"/>
		</g>
	</g>
</g>
</svg>
