<svg xmlns="http://www.w3.org/2000/svg" width="23" height="36" xmlns:xlink="http://www.w3.org/1999/xlink"><title>no_mess_icon</title><desc>Created with Sketch.</desc><defs><path id="a" d="M22.58 15.46V0H0v30.93h22.58V15.46z"/></defs><g fill="none"><g><g><g fill="#000"><path d="M13.58 34.1c-.66.68-1.54 1-2.43 1-.88 0-1.76-.32-2.42-1-1.24-1.34-.9-2.98 0-5.03l2.42-5.1 2.43 5c1.13 3 1.24 3.9 0 5.14m.8-5.56l-2.8-5.8c-.08-.12-.28-.25-.43-.25-.25 0-.34.08-.4.23L7.9 28.67c-.56 1.27-1.75 3.95.22 6 .84.86 1.92 1.33 3.03 1.33 1.25 0 2.3-.44 3.1-1.32 1.62-1.7 1.36-3.04.27-5.88-.06-.07-.1-.16-.14-.26"/></g><g transform="translate(-1198 -1234) translate(1198 1234)"><mask id="b"><use xlink:href="#a"/></mask><path fill="#000" d="M21.75 25.3v.04c0 1.78-.55 3.5-1.53 4.87-.12.2-.08.5.12.65l.1.07c-.02 0 0 0 0 0 .02 0 .07 0 .12 0 .22 0 .3-.1.3-.14 1.13-1.6 1.7-3.47 1.72-5.44V13.53c0-.03 0-.05 0-.07l-.02-.1v-.1c.02-.04.02-.06.02-.1 0-1.42-1.15-2.6-2.58-2.6-.25 0-.52.06-.82.16l-.92.3V5.15c0-.03 0-.05 0-.08l-.03-.13.02-.12c0-.02 0-.05 0-.08 0-1.44-1.15-2.6-2.57-2.6-.35 0-.7.07-1.04.22l-.73.33-.2-.78C13.36.75 12.37 0 11.2 0 10.1 0 9.1.74 8.77 1.85l-.22.73-.7-.28c-.32-.12-.63-.2-.95-.2-1.42 0-2.58 1.18-2.58 2.62v2.01l-.92-.3c-.3-.1-.56-.16-.82-.16C1.24 6.27.12 7.33.02 8.7v.08c-.02.04-.02.07-.02.1v16.64c0 1.58.44 3.23 1.23 4.64.12.2.35.27.62.14.03-.02.12-.06.16-.2.04-.13.02-.28-.04-.4-.72-1.17-1.12-2.63-1.12-4.2V8.9c0-.96.8-1.76 1.74-1.76s1.74.8 1.74 1.76v8.38c0 .25.18.42.42.42.23 0 .42-.23.42-.42 0 0 .07-12.48.07-12.54 0-.95.8-1.76 1.74-1.76s1.74.8 1.74 1.76v12.54c0 .25.2.42.43.42.24 0 .42-.17.42-.42V2.6c0-.02 0-.06 0-.1l-.05-.17.04-.17c.2-.76.92-1.3 1.68-1.3.95 0 1.74.8 1.74 1.75 0 .05 0 .1.03.16l.03.1v14.4c0 .25.18.42.42.42.23 0 .42-.23.42-.42V5l.04-.13c.03-.05.04-.1.04-.15 0-.95.8-1.76 1.74-1.76.95 0 1.74.8 1.74 1.76 0 .03 0 .06 0 .1l.04.1-.03.14c0 .03 0 .05 0 .08v12.12c0 .25.17.42.4.42.24 0 .43-.23.43-.5v-4c0-.94.78-1.7 1.74-1.7.95 0 1.75.8 1.75 1.77V25.3z" mask="url(#b)"/></g></g></g></g></svg>