<svg xmlns="http://www.w3.org/2000/svg" width="467" height="118"><title>novogro</title><desc>Created with Sketch.</desc><defs><linearGradient id="a" x1="0%" y1="50%" y2="50%"><stop stop-color="#7F7CBB" offset="0%"/><stop stop-color="#7FCEEA" offset="47.13%"/><stop stop-color="#89CDA8" offset="100%"/></linearGradient></defs><g fill="none"><g><g><path fill="url(#a)" fill-rule="nonzero" d="M39.62 79.1C18.05 79.1.82 62.3.02 40.7H0v-1.6C.5 17.2 17.85.1 39.62.1c16.26 0 30.7 9.73 36.8 24.78.3.9.57 1.54 1.95 3.08 6.32 7.07 14.6 8.6 17.22 8.9V2.9c0-1.48 1.27-2.7 2.78-2.7h3l3.23 4.03.18 35.68V74.5l-3.4 4.53h-3c-1.5 0-2.8-1.23-2.8-2.7V42.35c-2.62.3-10.9 1.83-17.2 8.9-1.4 1.55-1.65 2.17-1.93 3C70.32 69.37 55.88 79.1 39.62 79.1zm0-69.8C23.05 9.3 9.4 22.9 9.17 39.6c.22 16.7 13.88 30.3 30.45 30.3 16.65 0 30.36-13.6 30.57-30.3C69.97 22.9 56.25 9.3 39.6 9.3z" transform="translate(-72 -685) translate(72 685)"/><path fill="#2E2D38" d="M198.4 14.86c-.76.03-1.93.25-3.52.65-1.58.42-2.7.85-3.4 1.28-.97.68-1.63 2-1.97 3.93-.34 1.95-.5 4.4-.5 7.37v42.5h-3.56l-35.18-47.5v29.95c0 3.36.2 5.94.63 7.74.4 1.8 1.06 3.08 1.93 3.84.63.6 1.93 1.16 3.9 1.68 1.95.52 3.25.8 3.88.82V70h-23.8v-2.9c.74-.06 1.98-.32 3.72-.8 1.75-.48 2.84-.9 3.27-1.3.95-.75 1.6-1.92 1.96-3.5.35-1.56.53-4.24.53-8.03v-28.6c0-1.24-.23-2.5-.67-3.75-.43-1.26-1.02-2.22-1.75-2.9-1-.9-2.32-1.68-4-2.32-1.67-.64-3.03-1-4.06-1.04v-2.9h16.56l32.65 44.26V28.6c0-3.38-.22-5.97-.66-7.8-.43-1.8-1.06-3-1.88-3.6-.77-.53-2.02-1.03-3.75-1.52-1.73-.5-3.05-.77-3.95-.82v-2.9h23.6v2.9zm40.37 34.56c0 2.84-.45 5.63-1.35 8.37-.9 2.73-2.18 5.06-3.84 6.96-1.88 2.2-4.06 3.8-6.55 4.87-2.48 1.07-5.26 1.6-8.34 1.6-2.57 0-5-.5-7.33-1.45-2.32-.97-4.38-2.38-6.18-4.24-1.78-1.83-3.2-4.06-4.24-6.7-1.05-2.62-1.58-5.57-1.58-8.84 0-6.3 1.84-11.46 5.5-15.46 3.67-4 8.48-6.02 14.42-6.02 5.65 0 10.3 1.9 13.97 5.7 3.67 3.8 5.5 8.88 5.5 15.2zm-8.46.1c0-2.06-.2-4.22-.6-6.5-.42-2.27-1.03-4.2-1.85-5.78-.87-1.7-2.02-3.05-3.43-4.07-1.42-1.03-3.15-1.54-5.2-1.54-2.1 0-3.9.52-5.38 1.56-1.48 1.02-2.7 2.44-3.62 4.24-.87 1.66-1.48 3.56-1.84 5.7-.35 2.1-.53 4.17-.53 6.16 0 2.62.2 5.04.63 7.26.43 2.23 1.1 4.2 2.03 5.95.94 1.76 2.1 3.13 3.5 4.13s3.15 1.5 5.22 1.5c3.4 0 6.1-1.66 8.1-4.96s3-7.85 3-13.66zm51.6-17.36c-1.24.22-2.4.66-3.5 1.33-1.1.66-2.06 1.84-2.85 3.53-1.6 3.65-3.27 7.47-5 11.43-1.7 3.97-3.5 8.14-5.35 12.5-.55 1.25-1.13 2.74-1.74 4.46-.6 1.72-1.18 3.37-1.7 4.95h-3.2c-2.58-6.4-4.96-12.25-7.15-17.53-2.17-5.28-4.43-10.68-6.78-16.22-.54-1.25-1.42-2.23-2.64-2.92-1.2-.7-2.43-1.14-3.66-1.33v-2.7h18.66v2.86c-.82.03-1.84.2-3.07.5-1.22.33-1.83.76-1.83 1.3 0 .08.07.3.2.63.14.35.28.73.4 1.17 1.13 2.78 2.7 6.67 4.76 11.66 2.04 4.98 3.7 9 5 12.06.97-2.35 2.2-5.27 3.7-8.76 1.48-3.5 3.08-7.4 4.8-11.7.27-.73.53-1.42.77-2.06.25-.64.37-1.3.37-1.95 0-.47-.22-.88-.67-1.25-.45-.37-1-.7-1.62-.96-.63-.3-1.24-.5-1.84-.63-.6-.13-1.1-.23-1.47-.28v-2.63h15.42v2.5zm38.48 17.26c0 2.84-.45 5.63-1.35 8.37-.9 2.73-2.18 5.06-3.85 6.96-1.88 2.2-4.06 3.8-6.54 4.87-2.48 1.07-5.26 1.6-8.35 1.6-2.57 0-5-.5-7.33-1.45-2.32-.97-4.37-2.38-6.17-4.24-1.78-1.83-3.2-4.06-4.24-6.7C281.5 56.23 281 53.28 281 50c0-6.3 1.82-11.46 5.5-15.46 3.66-4 8.46-6.02 14.4-6.02 5.65 0 10.3 1.9 13.98 5.7 3.66 3.8 5.5 8.88 5.5 15.2zm-8.47.1c0-2.06-.2-4.22-.6-6.5-.4-2.27-1.02-4.2-1.84-5.78-.88-1.7-2.02-3.05-3.44-4.07-1.42-1.03-3.15-1.54-5.2-1.54-2.1 0-3.9.52-5.37 1.56-1.5 1.02-2.7 2.44-3.62 4.24-.88 1.66-1.5 3.56-1.84 5.7-.37 2.1-.55 4.17-.55 6.16 0 2.62.22 5.04.64 7.26.4 2.23 1.1 4.2 2 5.95.94 1.76 2.1 3.13 3.5 4.13 1.42 1 3.15 1.5 5.23 1.5 3.4 0 6.1-1.66 8.1-4.96s2.98-7.85 2.98-13.66zm68.98-2.7c-.66.07-1.54.2-2.64.38-1.1.17-2 .43-2.68.75-.82.4-1.4 1-1.74 1.74-.34.74-.5 1.62-.5 2.63v4.5c0 3.27 0 5.48.05 6.63.04 1.14.1 2.08.14 2.82-3.6 1.63-7.23 2.9-10.83 3.76-3.6.87-7.13 1.3-10.6 1.3-3.7 0-7.27-.7-10.7-2.08-3.44-1.4-6.44-3.36-9-5.93-2.6-2.6-4.66-5.74-6.18-9.45-1.54-3.7-2.3-7.85-2.3-12.43 0-4.42.73-8.52 2.18-12.3 1.46-3.77 3.53-7.05 6.2-9.83 2.6-2.73 5.68-4.85 9.27-6.36 3.58-1.52 7.42-2.27 11.5-2.27 3.28 0 6.13.38 8.56 1.17 2.44.8 4.58 1.75 6.43 2.87l1.68-2.78H373l.37 20.28H370c-.58-2.23-1.3-4.43-2.13-6.6-.85-2.17-1.94-4.1-3.27-5.83-1.34-1.7-2.97-3.08-4.9-4.1-1.9-1.02-4.2-1.54-6.88-1.54-2.92 0-5.53.6-7.82 1.78-2.3 1.2-4.28 2.96-5.97 5.3-1.66 2.26-2.94 5.1-3.84 8.47-.9 3.4-1.36 7.17-1.36 11.34 0 3.68.44 7.15 1.33 10.4.88 3.27 2.17 6.08 3.86 8.46 1.7 2.42 3.8 4.33 6.34 5.72 2.54 1.4 5.4 2.1 8.63 2.1 2.4 0 4.6-.38 6.57-1.12 1.97-.73 3.37-1.5 4.2-2.33.2-1.4.32-2.85.34-4.3.02-1.44.03-2.66.03-3.67v-3.2c0-1.14-.16-2.15-.47-3.04-.32-.9-.96-1.54-1.95-1.94-.9-.4-2.1-.72-3.65-.92-1.54-.2-2.74-.34-3.62-.4v-2.98h25.45v3zm31.82-11.96c0 1.4-.34 2.63-1.02 3.7-.68 1.08-1.73 1.62-3.15 1.62-1.53 0-2.7-.4-3.5-1.2-.8-.78-1.2-1.65-1.2-2.6 0-.6.04-1.15.14-1.64.1-.5.18-.98.26-1.47-1.28 0-2.78.52-4.5 1.55-1.72 1.04-3.17 2.5-4.37 4.42v23.48c0 .95.18 1.73.55 2.33.38.6.96 1.05 1.75 1.35.68.27 1.56.48 2.64.6 1.06.15 2 .25 2.8.3V70H381.8v-2.7c.62-.05 1.27-.1 1.94-.16.67-.06 1.25-.17 1.74-.33.76-.24 1.33-.67 1.7-1.28.36-.6.55-1.4.55-2.4v-24.9c0-.85-.2-1.68-.6-2.5-.4-.82-.94-1.47-1.65-1.96-.52-.33-1.13-.57-1.84-.72-.7-.15-1.48-.25-2.3-.3v-2.66l13.42-.9.58.57v5.7h.2c1.7-2.22 3.57-3.9 5.65-5.05 2.08-1.14 3.97-1.7 5.7-1.7 1.7 0 3.1.55 4.18 1.66 1.08 1.12 1.62 2.62 1.62 4.5zm40.17 14.56c0 2.84-.45 5.63-1.35 8.37-.9 2.73-2.18 5.06-3.85 6.96-1.88 2.2-4.06 3.8-6.54 4.87-2.48 1.07-5.27 1.6-8.35 1.6-2.56 0-5-.5-7.32-1.45-2.32-.97-4.38-2.38-6.18-4.24-1.77-1.83-3.18-4.06-4.23-6.7-1.05-2.62-1.57-5.57-1.57-8.84 0-6.3 1.83-11.46 5.5-15.46s8.47-6.02 14.42-6.02c5.64 0 10.3 1.9 13.97 5.7 3.66 3.8 5.5 8.88 5.5 15.2zm-8.47.1c0-2.06-.2-4.22-.6-6.5-.42-2.27-1.04-4.2-1.85-5.78-.88-1.7-2.02-3.05-3.44-4.07-1.4-1.03-3.14-1.54-5.18-1.54-2.1 0-3.9.52-5.38 1.56-1.5 1.02-2.7 2.44-3.62 4.24-.88 1.66-1.5 3.56-1.84 5.7-.36 2.1-.54 4.17-.54 6.16 0 2.62.2 5.04.64 7.26.42 2.23 1.1 4.2 2.02 5.95.93 1.76 2.1 3.13 3.5 4.13s3.14 1.5 5.22 1.5c3.4 0 6.1-1.66 8.1-4.96 1.98-3.3 2.98-7.85 2.98-13.66z"/><path fill="#1D1D2A" d="M466.73 23.42c0 1.64-.58 3.03-1.74 4.2-1.17 1.15-2.57 1.73-4.2 1.73-1.65 0-3.05-.58-4.2-1.74-1.16-1.15-1.74-2.54-1.74-4.18 0-1.64.58-3.04 1.74-4.2 1.15-1.15 2.55-1.73 4.2-1.73 1.63 0 3.03.57 4.2 1.73 1.15 1.15 1.73 2.55 1.73 4.2zm-.66 0c0-1.46-.52-2.7-1.54-3.76-1.03-1.05-2.27-1.58-3.74-1.58-1.48 0-2.72.53-3.75 1.58-1.02 1.05-1.53 2.3-1.53 3.76 0 1.45.5 2.7 1.53 3.76 1.03 1.05 2.27 1.58 3.74 1.58 1.46 0 2.7-.53 3.73-1.58 1.02-1.05 1.54-2.3 1.54-3.76zm-1.4 3.07h-1.93c-.42-.6-.8-1.1-1.1-1.5-.32-.4-.64-.82-.96-1.23h-.7v1.76c0 .1 0 .2.05.28.04.1.1.15.22.2.05 0 .16.03.3.05.17.03.3.04.37.05v.4h-2.95v-.4c.08 0 .2-.03.33-.04.14-.02.24-.04.3-.07.1-.05.18-.1.22-.18.04-.08.06-.17.06-.3v-4.3c0-.1 0-.2-.04-.27-.03-.08-.1-.14-.23-.18-.1-.03-.2-.06-.3-.1-.13 0-.24-.03-.33-.04v-.4h3.3c.25 0 .5.04.74.1.25.05.47.13.67.25.2.12.35.27.47.46.12.2.18.42.18.7 0 .48-.13.86-.4 1.14-.26.27-.66.48-1.18.63.37.44.67.82.92 1.12.25.3.47.6.67.83.12.16.25.28.37.35.12.08.23.13.35.17.1.03.2.06.32.08.12.03.22.04.3.05v.4zm-2.6-4.64c0-.37-.1-.65-.33-.84-.23-.2-.56-.3-1-.3h-.77v2.54h.6c.45 0 .82-.12 1.1-.36.27-.25.4-.6.4-1.04z"/><path fill="#2E2D38" d="M157.88 116.82h-7.6v-.86c.28 0 .63-.04 1.07-.1.43-.04.73-.1.9-.2.24-.15.42-.32.54-.52.1-.2.16-.45.16-.75v-12.5h-.18l-5.86 14.64h-.6l-5.6-14.96h-.15v10.27c0 1 .06 1.75.2 2.26.1.53.3.9.56 1.13.18.17.55.33 1.1.48.56.17.93.25 1.1.26v.86h-6.95v-.86c.37-.04.75-.1 1.15-.2.4-.07.7-.2.92-.4.3-.2.48-.56.6-1.03.1-.47.14-1.25.14-2.35v-8.8c0-.5-.07-.92-.2-1.24-.1-.33-.28-.6-.5-.8-.26-.2-.57-.37-.93-.48-.36-.1-.72-.16-1.08-.18v-.86h5.86l4.9 12.9 4.22-10.8c.15-.4.28-.8.4-1.23.1-.44.16-.73.17-.88h5.6v.86c-.22 0-.5.05-.86.1-.36.08-.6.14-.78.2-.27.1-.46.25-.55.48-.1.22-.15.47-.15.74v12.4c0 .28.05.5.15.7.1.2.28.37.55.52.15.08.4.15.78.22.37.07.67.1.88.12v.86zm14.06-6.1c0 .84-.13 1.67-.4 2.48-.27.8-.64 1.5-1.14 2.06-.56.65-1.2 1.13-1.94 1.45-.73.32-1.56.48-2.47.48-.77 0-1.5-.14-2.18-.43-.68-.3-1.3-.7-1.83-1.25s-.95-1.2-1.26-2c-.3-.77-.47-1.64-.47-2.6 0-1.88.55-3.4 1.63-4.6 1.1-1.18 2.5-1.77 4.27-1.77 1.68 0 3.05.56 4.14 1.7 1.1 1.12 1.64 2.62 1.64 4.5zm-2.5.03c0-.6-.07-1.25-.2-1.93-.1-.67-.3-1.24-.53-1.7-.25-.5-.6-.9-1-1.22-.43-.3-.94-.45-1.55-.45-.62 0-1.15.15-1.6.46-.43.32-.8.74-1.07 1.27-.26.5-.44 1.05-.54 1.7-.1.62-.16 1.22-.16 1.8 0 .8.06 1.5.2 2.17.1.65.3 1.24.6 1.76.26.52.6.92 1.02 1.22.42.3.94.44 1.55.44 1 0 1.8-.5 2.4-1.47.6-1 .88-2.33.88-4.05zm10.25 6.07h-5.84v-.8c.18-.02.38-.04.6-.06.2-.02.37-.05.5-.1.24-.06.4-.2.52-.37.1-.2.17-.43.17-.72v-13.84c0-.3-.06-.56-.2-.82-.1-.25-.28-.45-.48-.6-.14-.1-.4-.18-.8-.26-.4-.08-.7-.13-.93-.15v-.76l4.5-.28.16.18v16.4c0 .28.06.5.16.7.1.17.28.3.5.4.2.1.36.15.54.2.17.03.37.06.6.08v.8zm15-.22l-4.18.26-.18-.17v-1.12l-.1-.02c-.42.46-.94.85-1.56 1.15-.6.3-1.25.46-1.9.46-.68 0-1.34-.16-1.97-.46-.63-.3-1.18-.73-1.65-1.28s-.85-1.23-1.13-2c-.28-.8-.42-1.66-.42-2.6 0-.87.15-1.7.45-2.46.3-.78.7-1.46 1.24-2.04.48-.54 1.08-.97 1.8-1.3.7-.32 1.44-.48 2.18-.48.56 0 1.1.07 1.65.2.53.15 1 .33 1.38.55v-4.16c0-.34-.04-.65-.16-.93-.1-.27-.27-.48-.47-.63-.22-.15-.53-.26-.9-.33-.4-.07-.8-.12-1.25-.15v-.76l4.88-.28.18.18v16.12c0 .28.05.52.16.72.1.2.27.36.48.5.16.1.38.16.67.18.28.03.55.04.8.05v.8zm-4.4-2.1v-7c-.05-.2-.16-.43-.3-.67-.15-.24-.33-.46-.55-.67-.23-.2-.5-.36-.82-.5-.32-.13-.68-.2-1.1-.2-.5 0-.93.13-1.34.38-.42.25-.78.6-1.1 1.08-.3.45-.53 1.02-.7 1.72-.18.7-.27 1.48-.27 2.32 0 .68.07 1.3.2 1.85.13.56.35 1.08.65 1.56.3.45.65.8 1.1 1.1.43.26.95.4 1.56.4.64 0 1.18-.14 1.6-.43.43-.28.78-.6 1.07-.93zm17.28 2.1c-.38.14-.7.25-1 .33-.28.1-.6.13-.97.13-.62 0-1.13-.15-1.5-.44-.38-.3-.62-.73-.72-1.3h-.07c-.52.6-1.08 1.03-1.7 1.34-.6.3-1.3.46-2.16.46-.9 0-1.63-.28-2.2-.83-.6-.55-.88-1.27-.88-2.16 0-.46.07-.87.2-1.24.13-.36.32-.7.58-.98.2-.24.47-.46.8-.65.33-.2.64-.34.93-.45.36-.14 1.1-.4 2.2-.77 1.12-.37 1.87-.66 2.26-.87v-1.2c0-.1-.02-.3-.07-.6-.04-.3-.14-.58-.28-.85-.16-.3-.4-.56-.7-.78-.28-.23-.7-.34-1.24-.34-.37 0-.72.08-1.04.2-.32.13-.54.26-.67.4 0 .16.04.4.12.7.07.33.1.62.1.88 0 .3-.12.54-.37.78-.26.23-.6.35-1.06.35-.4 0-.7-.13-.9-.42-.18-.3-.28-.6-.28-.96 0-.38.14-.73.4-1.07.26-.34.6-.64 1.02-.9.37-.24.8-.43 1.32-.58.52-.16 1.02-.24 1.52-.24.68 0 1.27.05 1.77.14.5.1.97.3 1.38.6.4.3.72.7.94 1.22.2.5.3 1.16.3 1.97 0 1.15 0 2.18-.03 3.07-.02.9-.04 1.87-.04 2.93 0 .3.06.56.17.75.1.18.28.34.5.47.12.06.3.1.58.1.26.02.53.02.8.02v.78zm-4.23-6.4c-.68.2-1.28.4-1.8.6-.52.2-1 .43-1.44.72-.4.28-.72.6-.95.98-.24.37-.35.82-.35 1.34 0 .67.17 1.16.52 1.47.36.33.8.5 1.34.5.58 0 1.08-.15 1.52-.43.43-.28.8-.6 1.1-1l.07-4.17zm17.96.63c0 1.8-.55 3.3-1.68 4.52-1.13 1.22-2.45 1.83-3.94 1.83-.66 0-1.3-.1-1.93-.3-.64-.2-1.23-.48-1.8-.82l-.9 1.4-.74-.17c.05-.6.08-1.33.1-2.17 0-.84.02-1.65.02-2.43v-11.83c0-.27-.06-.55-.2-.82-.1-.28-.27-.48-.47-.6-.15-.1-.4-.18-.77-.23-.36-.06-.64-.1-.86-.1v-.78l4.38-.28.17.18v7.88l.1.02c.5-.53 1.04-.93 1.63-1.2.6-.27 1.18-.4 1.75-.4 1.47 0 2.7.58 3.68 1.75 1 1.15 1.48 2.66 1.48 4.53zm-2.52.08c0-.58-.06-1.2-.2-1.8-.12-.64-.32-1.18-.6-1.64-.27-.47-.63-.85-1.08-1.14-.44-.3-.98-.43-1.6-.43-.56 0-1.06.1-1.48.32-.43.22-.8.52-1.15.9v6.96c.05.2.15.42.3.68.13.25.32.5.56.74.25.22.52.4.83.55.3.14.68.2 1.12.2 1 0 1.8-.47 2.4-1.42.6-.95.9-2.26.9-3.92zm10.3 5.92h-5.8v-.8c.17-.02.37-.04.58-.06.2-.02.38-.05.52-.1.23-.06.4-.2.5-.37.12-.2.18-.43.18-.72v-13.84c0-.3-.06-.56-.2-.82-.1-.25-.28-.45-.48-.6-.15-.1-.4-.18-.8-.26-.4-.08-.7-.13-.93-.15v-.76l4.5-.28.16.18v16.4c0 .28.07.5.17.7.1.17.27.3.5.4.2.1.36.15.54.2.18.03.38.06.6.08v.8zm12.54-2.82c-.5.96-1.17 1.72-2 2.28-.85.57-1.8.85-2.9.85-.96 0-1.8-.17-2.53-.5-.73-.35-1.33-.8-1.8-1.4-.46-.57-.8-1.25-1.04-2.02-.23-.77-.35-1.6-.35-2.45 0-.78.13-1.54.38-2.3.25-.74.6-1.4 1.08-2 .46-.58 1.04-1.04 1.72-1.4.68-.35 1.45-.52 2.3-.52.87 0 1.6.14 2.24.4.62.3 1.12.66 1.5 1.14.38.45.66.98.84 1.6.18.6.27 1.28.27 2v.8h-7.9c0 .78.07 1.5.22 2.13.14.64.38 1.2.7 1.68.32.47.73.84 1.24 1.1.5.28 1.1.42 1.8.42.73 0 1.35-.17 1.87-.5.52-.34 1.02-.94 1.5-1.82l.85.52zm-2.67-4.55c0-.45-.04-.94-.12-1.46-.08-.52-.2-.95-.37-1.3-.18-.37-.44-.68-.76-.9-.32-.24-.74-.36-1.25-.36-.85 0-1.55.35-2.1 1.06-.58.7-.88 1.7-.93 2.95h5.53zm23.37-.64c.5.35.92.8 1.25 1.34.33.55.5 1.22.5 2 0 .8-.17 1.5-.52 2.08-.35.6-.8 1.08-1.36 1.46-.55.37-1.16.65-1.84.85-.7.2-1.4.3-2.12.3h-8.14v-.87c.2-.02.47-.05.85-.1.37-.06.63-.12.8-.2.25-.1.42-.26.53-.45.1-.18.16-.42.16-.72v-12.36c0-.28-.05-.52-.14-.73-.1-.22-.28-.4-.55-.52-.25-.12-.52-.2-.82-.28-.3-.06-.55-.1-.75-.12v-.86h7.94c.6 0 1.2.06 1.76.18s1.1.34 1.6.65c.48.28.88.66 1.18 1.15.3.48.46 1.07.46 1.77 0 .6-.1 1.14-.32 1.6-.22.5-.53.9-.92 1.23-.38.32-.8.6-1.28.82-.48.22-1 .4-1.56.5v.12c.5.06 1.04.18 1.65.37.6.2 1.15.47 1.62.8zm-2.92-2.6c.3-.33.5-.7.63-1.13.12-.4.17-.9.17-1.46 0-.94-.25-1.68-.77-2.22-.52-.53-1.33-.8-2.45-.8-.26 0-.58 0-.98.02-.4 0-.72.02-.98.03v6.6h1.54c.66 0 1.23-.08 1.7-.25.47-.17.85-.43 1.14-.77zm1.68 5.5c0-1.02-.35-1.85-1.03-2.5-.68-.66-1.66-1-2.92-1-.52 0-.96.02-1.3.03-.37 0-.63.02-.8.03v6.06c0 .5.2.9.6 1.15.42.26 1 .4 1.73.4 1.2 0 2.12-.36 2.76-1.07.64-.7.96-1.73.96-3.1zm17.02-.98c0 .84-.13 1.67-.4 2.48-.26.8-.64 1.5-1.14 2.06-.55.65-1.2 1.13-1.94 1.45-.73.32-1.55.48-2.47.48-.76 0-1.48-.14-2.17-.43-.68-.3-1.3-.7-1.83-1.25-.52-.55-.94-1.2-1.25-2-.3-.77-.47-1.64-.47-2.6 0-1.88.55-3.4 1.63-4.6 1.1-1.18 2.5-1.77 4.27-1.77 1.68 0 3.06.56 4.14 1.7 1.1 1.12 1.63 2.62 1.63 4.5zm-2.5.03c0-.6-.07-1.25-.2-1.93-.1-.67-.3-1.24-.53-1.7-.26-.5-.6-.9-1.02-1.22-.42-.3-.93-.45-1.54-.45-.6 0-1.14.15-1.58.46-.44.32-.8.74-1.08 1.27-.25.5-.44 1.05-.54 1.7-.1.62-.16 1.22-.16 1.8 0 .8.06 1.5.2 2.17.1.65.3 1.24.6 1.76.26.52.6.92 1.03 1.22.4.3.93.44 1.54.44 1.02 0 1.82-.5 2.4-1.47.6-1 .9-2.33.9-4.05zm17.84 6.07h-5.85v-.8c.18-.02.38-.04.6-.05.23-.02.4-.05.55-.1.23-.07.4-.2.5-.38.12-.2.17-.43.17-.72v-6.14c0-.85-.2-1.5-.6-1.97-.4-.46-.9-.7-1.46-.7-.43 0-.82.08-1.17.2-.37.15-.68.3-.96.5-.27.2-.48.4-.64.6-.15.22-.27.4-.34.52v6.86c0 .27.06.5.17.68.1.18.28.3.5.4.18.1.36.15.56.2.2.03.4.06.6.08v.8h-5.85v-.8c.18-.02.38-.04.57-.05.2-.02.37-.05.52-.1.23-.07.4-.2.5-.38.1-.2.17-.43.17-.72v-7.38c0-.27-.05-.53-.17-.76-.12-.23-.28-.4-.5-.56-.14-.1-.33-.17-.54-.2-.22-.06-.44-.1-.68-.1v-.8l3.97-.26.16.17v1.68h.06c.2-.2.44-.43.73-.7.3-.27.56-.5.82-.66.3-.2.66-.36 1.07-.48.4-.13.87-.2 1.4-.2 1.14 0 2 .36 2.54 1.07.55.73.83 1.68.83 2.87v6.2c0 .3.06.52.16.7.1.17.26.3.5.4.2.08.36.14.5.17.14.04.33.06.58.08v.8zm12.5-2.82c-.5.96-1.17 1.72-2 2.28-.85.57-1.82.85-2.9.85-.97 0-1.8-.17-2.54-.5-.72-.35-1.3-.8-1.78-1.4-.47-.57-.82-1.25-1.05-2.02-.23-.77-.35-1.6-.35-2.45 0-.78.13-1.54.37-2.3.24-.74.6-1.4 1.08-2 .46-.58 1.03-1.04 1.7-1.4.7-.35 1.46-.52 2.3-.52.88 0 1.63.14 2.25.4.62.3 1.13.66 1.52 1.14.37.45.64.98.83 1.6.18.6.27 1.28.27 2v.8h-7.9c0 .78.06 1.5.2 2.13.16.64.4 1.2.72 1.68.3.47.73.84 1.23 1.1.5.28 1.12.42 1.82.42.72 0 1.34-.17 1.86-.5.52-.34 1.03-.94 1.5-1.82l.86.52zm-2.68-4.55c0-.45-.04-.94-.1-1.46-.1-.52-.2-.95-.38-1.3-.2-.37-.44-.68-.77-.9-.3-.24-.73-.36-1.24-.36-.84 0-1.55.35-2.1 1.06-.57.7-.88 1.7-.92 2.95h5.52zm21.9-.52c.35.4.62.84.8 1.32.17.5.25 1.04.25 1.68 0 1.52-.55 2.77-1.67 3.76-1.12.97-2.52 1.47-4.18 1.47-.77 0-1.54-.12-2.3-.36-.77-.23-1.43-.52-2-.86l-.5.9h-.98l-.17-5.9h.98c.2.73.44 1.38.7 1.97.28.6.64 1.14 1.08 1.65.42.48.9.86 1.47 1.14.57.27 1.22.4 1.96.4.55 0 1.04-.06 1.45-.2.42-.15.76-.36 1-.62.27-.27.46-.58.6-.94.1-.36.18-.78.18-1.24 0-.7-.2-1.33-.58-1.92-.4-.6-.97-1.05-1.74-1.36-.5-.2-1.1-.44-1.8-.7-.67-.25-1.26-.5-1.75-.7-.97-.45-1.72-1.02-2.26-1.73-.55-.7-.82-1.64-.82-2.78 0-.65.14-1.26.4-1.83.27-.57.65-1.08 1.14-1.52.47-.42 1.03-.75 1.66-1 .64-.23 1.3-.35 2-.35.8 0 1.5.13 2.13.37.64.24 1.2.52 1.72.85l.5-.83h.97l.1 5.7h-1c-.17-.65-.37-1.27-.6-1.87-.22-.6-.5-1.14-.86-1.62-.35-.47-.77-.85-1.27-1.12-.5-.27-1.12-.4-1.84-.4-.77 0-1.43.23-1.97.73s-.8 1.1-.8 1.8c0 .75.16 1.36.5 1.85.36.5.86.9 1.53 1.2.58.3 1.16.53 1.72.74.57.2 1.13.43 1.66.66.48.2.95.45 1.4.7.45.28.84.6 1.17.95zm16.12 7.67l-3.9.26-.17-.17v-1.52h-.07c-.2.2-.4.42-.65.65-.24.23-.52.44-.84.62-.36.22-.7.4-1.05.5-.35.1-.83.17-1.45.17-1.06 0-1.87-.35-2.42-1.04-.55-.7-.83-1.7-.83-3v-5.73c0-.3-.06-.53-.16-.73-.1-.2-.27-.37-.48-.52-.15-.1-.33-.16-.55-.2-.2-.05-.44-.08-.68-.1v-.8l4-.28.17.17v8.3c0 .86.18 1.5.57 1.94.4.44.85.66 1.4.66.44 0 .83-.07 1.18-.2.35-.15.64-.3.87-.5.22-.16.4-.34.58-.53.17-.2.3-.37.38-.53v-6.77c0-.27-.05-.5-.17-.7-.1-.22-.26-.4-.46-.54-.15-.1-.36-.15-.65-.17-.3-.02-.62-.04-.97-.06v-.8l4.34-.28.18.17v9.48c0 .28.05.5.17.7.1.2.27.36.47.5.14.1.3.15.5.18.2.02.43.04.68.05v.8zm14-5.77c0 1.8-.56 3.3-1.7 4.52-1.12 1.22-2.43 1.83-3.93 1.83-.65 0-1.3-.1-1.93-.3-.63-.2-1.23-.48-1.8-.82l-.88 1.4-.76-.17c.04-.6.07-1.33.1-2.17 0-.84 0-1.65 0-2.43v-11.83c0-.27-.05-.55-.17-.82-.12-.28-.28-.48-.47-.6-.16-.1-.4-.18-.77-.23-.36-.06-.65-.1-.87-.1v-.78l4.38-.28.17.18v7.88l.08.02c.5-.53 1.05-.93 1.64-1.2.6-.27 1.18-.4 1.75-.4 1.47 0 2.7.58 3.7 1.75.97 1.15 1.47 2.66 1.47 4.53zm-2.53.08c0-.58-.06-1.2-.2-1.8-.12-.64-.32-1.18-.6-1.64-.27-.47-.63-.85-1.07-1.14-.45-.3-.98-.43-1.6-.43-.57 0-1.06.1-1.5.32-.4.22-.8.52-1.13.9v6.96c.05.2.14.42.28.68.14.25.33.5.58.74.25.22.52.4.83.55.3.14.68.2 1.13.2.98 0 1.78-.47 2.4-1.42.6-.95.9-2.26.9-3.92zm12.6.06c.34.3.6.63.77 1 .18.4.27.85.27 1.4 0 1.1-.43 2-1.25 2.72-.83.7-1.9 1.05-3.22 1.05-.7 0-1.34-.12-1.92-.37-.58-.26-1-.5-1.25-.7l-.24.8h-.9l-.12-4.16h.84c.06.3.2.68.4 1.1.22.42.47.8.77 1.14.3.35.7.65 1.13.9.44.24.93.36 1.48.36.8 0 1.38-.18 1.8-.53.42-.35.63-.85.63-1.5 0-.35-.06-.64-.2-.9-.13-.23-.33-.45-.58-.63-.27-.2-.6-.36-1-.5-.37-.16-.8-.3-1.28-.45-.38-.12-.8-.28-1.27-.48-.46-.2-.86-.43-1.2-.7-.35-.28-.64-.62-.86-1.03-.23-.43-.34-.9-.34-1.47 0-.98.36-1.8 1.1-2.48.7-.68 1.7-1.02 2.9-1.02.48 0 .95.06 1.44.18.5.13.9.28 1.2.45l.28-.63h.87l.17 3.84h-.84c-.17-.86-.53-1.55-1.1-2.1-.55-.53-1.24-.8-2.05-.8-.66 0-1.18.17-1.56.5-.38.33-.57.73-.57 1.2 0 .36.06.67.2.9.1.25.3.46.55.63.24.15.55.3.92.44.36.14.82.3 1.36.48.53.17 1.04.37 1.5.6.48.22.87.47 1.18.74zM376 116.3c-.54.2-1.04.4-1.5.55-.47.15-1.05.22-1.73.22-1 0-1.7-.25-2.1-.76-.42-.5-.62-1.2-.62-2.13v-8.1h-2.16v-1.15h2.2v-3.72h2.2v3.72h3.43v1.16h-3.4v6.68c0 .5 0 .92.05 1.25.04.35.12.64.26.9.13.22.32.4.58.52.26.12.6.18 1.05.18.2 0 .5 0 .9-.05.38-.04.65-.08.82-.14v.9zm7.4.52h-5.8v-.8c.2-.02.4-.04.6-.05.18-.02.36-.05.5-.1.23-.07.4-.2.5-.38.1-.2.17-.43.17-.72v-7.38c0-.26-.06-.5-.18-.7-.12-.22-.3-.4-.5-.55-.15-.1-.37-.18-.66-.25-.3-.06-.56-.1-.8-.12v-.8l4.2-.26.18.17v9.73c0 .3.06.52.17.7.1.2.27.33.5.42.18.07.35.13.52.18.17.04.36.07.57.1v.8zm-1.54-16.8c0 .45-.15.85-.45 1.2-.3.34-.67.5-1.1.5-.42 0-.78-.15-1.08-.48-.3-.33-.46-.7-.46-1.12 0-.45.15-.83.46-1.16.3-.34.66-.5 1.07-.5.45 0 .83.15 1.12.46.3.32.44.68.44 1.1zm10.8 16.27c-.53.2-1.03.4-1.5.55-.47.15-1.04.22-1.72.22-1 0-1.7-.25-2.12-.76-.4-.5-.6-1.2-.6-2.13v-8.1h-2.16v-1.15h2.2v-3.72h2.2v3.72h3.44v1.16H389v6.68c0 .5 0 .92.05 1.25.03.35.12.64.26.9.14.22.33.4.6.52.25.12.6.18 1.03.18.2 0 .5 0 .9-.05.38-.04.66-.08.82-.14v.9zm14.4.3l-3.9.26-.17-.17v-1.52h-.1c-.18.2-.4.42-.64.65-.24.23-.52.44-.84.62-.36.22-.7.4-1.05.5-.34.1-.82.17-1.44.17-1.06 0-1.87-.35-2.42-1.04-.54-.7-.82-1.7-.82-3v-5.73c0-.3-.05-.53-.16-.73-.1-.2-.27-.37-.48-.52-.15-.1-.33-.16-.55-.2-.22-.05-.45-.08-.7-.1v-.8l4-.28.17.17v8.3c0 .86.2 1.5.58 1.94.4.44.86.66 1.4.66.44 0 .84-.07 1.18-.2.35-.15.64-.3.88-.5.22-.16.42-.34.58-.53.17-.2.3-.37.38-.53v-6.77c0-.27-.05-.5-.17-.7-.12-.22-.28-.4-.48-.54-.14-.1-.36-.15-.65-.17-.28-.02-.6-.04-.96-.06v-.8l4.35-.28.18.17v9.48c0 .28.06.5.17.7.1.2.27.36.47.5.15.1.32.15.52.18.2.02.42.04.66.05v.8zm12.5-2.6c-.5.96-1.18 1.72-2.02 2.28-.84.57-1.8.85-2.9.85-.96 0-1.8-.17-2.52-.5-.72-.35-1.32-.8-1.8-1.4-.46-.57-.8-1.25-1.04-2.02-.23-.77-.34-1.6-.34-2.45 0-.78.12-1.54.37-2.3.25-.74.62-1.4 1.1-2 .45-.58 1.02-1.04 1.7-1.4.7-.35 1.46-.52 2.3-.52.88 0 1.62.14 2.25.4.62.3 1.12.66 1.5 1.14.38.45.66.98.84 1.6.17.6.26 1.28.26 2v.8h-7.9c0 .78.06 1.5.2 2.13.16.64.4 1.2.72 1.68.32.47.73.84 1.24 1.1.5.28 1.1.42 1.82.42s1.34-.17 1.86-.5c.52-.34 1.02-.94 1.5-1.82l.85.52zm-2.68-4.55c0-.45-.04-.94-.12-1.46-.08-.52-.2-.95-.37-1.3-.2-.37-.45-.68-.77-.9-.33-.24-.74-.36-1.25-.36-.85 0-1.55.35-2.1 1.06-.58.7-.88 1.7-.93 2.95h5.53z"/></g></g></g></svg>