<?xml version="1.0" encoding="utf-8"?>
<!-- Generator: Adobe Illustrator 21.1.0, SVG Export Plug-In . SVG Version: 6.00 Build 0)  -->
<svg version="1.1" id="Layer_1" xmlns="http://www.w3.org/2000/svg" xmlns:xlink="http://www.w3.org/1999/xlink" x="0px" y="0px"
	 viewBox="0 0 467 118" style="enable-background:new 0 0 467 118;" xml:space="preserve">
<style type="text/css">
	.st0{fill:#2E2D38;}
</style>
<title>novogro</title>
<desc>Created with Sketch.</desc>
<g>
	<g>
		<g>
			<path class="st0" d="M83.9,5.6c-1,0-2.6,0.3-4.7,0.9c-2.1,0.5-3.6,1.1-4.6,1.7c-1.3,0.9-2.2,2.7-2.7,5.3
				c-0.5,2.6-0.7,5.9-0.7,9.9v57h-4.8L19.4,16.6v40.1c0,4.5,0.3,8,0.8,10.4c0.6,2.4,1.4,4.1,2.6,5.2c0.8,0.8,2.6,1.6,5.2,2.2
				c2.6,0.7,4.4,1.1,5.2,1.1v3.9H1.3v-3.9c1-0.1,2.7-0.4,5-1.1c2.3-0.6,3.8-1.2,4.4-1.7c1.3-1,2.2-2.6,2.6-4.7
				C13.8,66,14,62.4,14,57.4V19c0-1.7-0.3-3.4-0.9-5c-0.6-1.7-1.4-3-2.4-3.9C9.5,8.9,7.7,7.9,5.5,7C3.2,6.1,1.4,5.7,0,5.6V1.7h22.2
				L66,61V24c0-4.5-0.3-8-0.9-10.4c-0.6-2.4-1.4-4-2.5-4.9c-1-0.7-2.7-1.4-5-2c-2.3-0.7-4.1-1-5.3-1.1V1.7h31.6V5.6z"/>
			<path class="st0" d="M141.6,51.9c0,3.8-0.6,7.5-1.8,11.2c-1.2,3.7-2.9,6.8-5.2,9.4c-2.5,2.9-5.5,5.1-8.8,6.5
				c-3.3,1.4-7.1,2.1-11.2,2.1c-3.4,0-6.7-0.6-9.8-1.9c-3.1-1.3-5.9-3.2-8.3-5.7c-2.4-2.4-4.3-5.4-5.7-9c-1.4-3.5-2.1-7.5-2.1-11.9
				c0-8.4,2.5-15.4,7.4-20.7c4.9-5.4,11.4-8.1,19.4-8.1c7.6,0,13.8,2.6,18.7,7.7C139.1,36.7,141.6,43.5,141.6,51.9z M130.2,52
				c0-2.7-0.3-5.6-0.8-8.7c-0.5-3.1-1.4-5.6-2.5-7.8c-1.2-2.3-2.7-4.1-4.6-5.5c-1.9-1.4-4.2-2.1-7-2.1c-2.8,0-5.2,0.7-7.2,2.1
				c-2,1.4-3.6,3.3-4.9,5.7c-1.2,2.2-2,4.8-2.5,7.6c-0.5,2.9-0.7,5.6-0.7,8.3c0,3.5,0.3,6.8,0.9,9.7c0.6,3,1.5,5.6,2.7,8
				c1.2,2.3,2.8,4.2,4.7,5.5c1.9,1.3,4.2,2,7,2c4.6,0,8.2-2.2,10.9-6.6C128.9,65.9,130.2,59.8,130.2,52z"/>
			<path class="st0" d="M202.8,28.8c-1.6,0.3-3.2,0.9-4.7,1.8c-1.5,0.9-2.8,2.5-3.8,4.7c-2.2,4.9-4.4,10-6.7,15.3
				c-2.3,5.3-4.7,10.9-7.2,16.8c-0.7,1.7-1.5,3.7-2.3,6c-0.8,2.3-1.6,4.5-2.3,6.6h-4.3c-3.5-8.6-6.7-16.4-9.6-23.5s-6-14.3-9.1-21.7
				c-0.7-1.7-1.9-3-3.5-3.9c-1.6-0.9-3.3-1.5-4.9-1.8v-3.6h25v3.8c-1.1,0-2.5,0.3-4.1,0.7c-1.6,0.4-2.5,1-2.5,1.7
				c0,0.1,0.1,0.4,0.3,0.8c0.2,0.5,0.4,1,0.6,1.6c1.5,3.7,3.6,8.9,6.3,15.6c2.7,6.7,5,12.1,6.7,16.2c1.3-3.1,3-7,5-11.7
				c2-4.7,4.1-9.9,6.4-15.7c0.4-1,0.7-1.9,1-2.8c0.3-0.9,0.5-1.7,0.5-2.6c0-0.6-0.3-1.2-0.9-1.7c-0.6-0.5-1.3-0.9-2.2-1.3
				c-0.8-0.4-1.7-0.6-2.5-0.8c-0.8-0.2-1.5-0.3-2-0.4v-3.5h20.7V28.8z"/>
			<path class="st0" d="M257.9,51.9c0,3.8-0.6,7.5-1.8,11.2c-1.2,3.7-2.9,6.8-5.2,9.4c-2.5,2.9-5.5,5.1-8.8,6.5
				c-3.3,1.4-7.1,2.1-11.2,2.1c-3.4,0-6.7-0.6-9.8-1.9c-3.1-1.3-5.9-3.2-8.3-5.7c-2.4-2.4-4.3-5.4-5.7-9c-1.4-3.5-2.1-7.5-2.1-11.9
				c0-8.4,2.5-15.4,7.4-20.7c4.9-5.4,11.4-8.1,19.4-8.1c7.6,0,13.8,2.6,18.7,7.7C255.4,36.7,257.9,43.5,257.9,51.9z M246.5,52
				c0-2.7-0.3-5.6-0.8-8.7c-0.5-3.1-1.4-5.6-2.5-7.8c-1.2-2.3-2.7-4.1-4.6-5.5c-1.9-1.4-4.2-2.1-7-2.1c-2.8,0-5.2,0.7-7.2,2.1
				c-2,1.4-3.6,3.3-4.9,5.7c-1.2,2.2-2,4.8-2.5,7.6c-0.5,2.9-0.7,5.6-0.7,8.3c0,3.5,0.3,6.8,0.9,9.7c0.6,3,1.5,5.6,2.7,8
				c1.2,2.3,2.8,4.2,4.7,5.5c1.9,1.3,4.2,2,7,2c4.6,0,8.2-2.2,10.9-6.6C245.2,65.9,246.5,59.8,246.5,52z"/>
			<path class="st0" d="M342.4,48.5c-0.9,0.1-2.1,0.3-3.5,0.5c-1.5,0.2-2.7,0.6-3.6,1c-1.1,0.5-1.9,1.3-2.3,2.3
				c-0.5,1-0.7,2.2-0.7,3.5v6c0,4.4,0,7.3,0.1,8.9c0.1,1.5,0.1,2.8,0.2,3.8c-4.9,2.2-9.7,3.9-14.5,5c-4.8,1.2-9.6,1.8-14.2,1.8
				c-5,0-9.8-0.9-14.4-2.8c-4.6-1.9-8.6-4.5-12.1-8c-3.5-3.5-6.2-7.7-8.3-12.7c-2-5-3.1-10.5-3.1-16.7c0-5.9,1-11.4,2.9-16.5
				c2-5.1,4.7-9.5,8.3-13.2c3.5-3.7,7.6-6.5,12.4-8.5c4.8-2,10-3,15.4-3c4.4,0,8.2,0.5,11.5,1.6c3.3,1.1,6.1,2.3,8.6,3.8l2.2-3.7
				h4.4l0.5,27.2h-4.5c-0.8-3-1.7-6-2.9-8.9c-1.1-2.9-2.6-5.5-4.4-7.8c-1.8-2.3-4-4.1-6.6-5.5c-2.6-1.4-5.7-2.1-9.3-2.1
				c-3.9,0-7.4,0.8-10.5,2.4c-3.1,1.6-5.7,4-8,7.1c-2.2,3-4,6.8-5.2,11.4s-1.8,9.6-1.8,15.2c0,4.9,0.6,9.6,1.8,14
				c1.2,4.4,2.9,8.2,5.2,11.3c2.3,3.3,5.1,5.8,8.5,7.7c3.4,1.9,7.3,2.8,11.6,2.8c3.2,0,6.2-0.5,8.8-1.5c2.7-1,4.5-2,5.6-3.1
				c0.3-1.9,0.4-3.8,0.5-5.8c0-1.9,0-3.6,0-4.9v-4.3c0-1.5-0.2-2.9-0.6-4.1c-0.4-1.2-1.3-2.1-2.6-2.6c-1.2-0.5-2.8-1-4.9-1.2
				c-2.1-0.3-3.7-0.4-4.9-0.5v-4h34.1V48.5z"/>
			<path class="st0" d="M388.5,32.4c0,1.9-0.5,3.5-1.4,5c-0.9,1.4-2.3,2.2-4.2,2.2c-2,0-3.6-0.5-4.7-1.6c-1.1-1.1-1.6-2.2-1.6-3.5
				c0-0.8,0.1-1.5,0.2-2.2c0.1-0.7,0.2-1.3,0.4-2c-1.7,0-3.7,0.7-6,2.1c-2.3,1.4-4.3,3.4-5.9,5.9v31.5c0,1.3,0.2,2.3,0.7,3.1
				c0.5,0.8,1.3,1.4,2.3,1.8c0.9,0.4,2.1,0.6,3.5,0.8c1.4,0.2,2.7,0.3,3.8,0.4v3.6h-28.5v-3.6c0.8-0.1,1.7-0.1,2.6-0.2
				c0.9-0.1,1.7-0.2,2.3-0.4c1-0.3,1.8-0.9,2.3-1.7c0.5-0.8,0.7-1.9,0.7-3.2V37c0-1.1-0.3-2.2-0.8-3.3c-0.5-1.1-1.3-2-2.2-2.6
				c-0.7-0.4-1.5-0.8-2.5-1c-1-0.2-2-0.3-3.1-0.4V26l18-1.2l0.8,0.8v7.6h0.3c2.3-3,4.8-5.2,7.6-6.7c2.8-1.5,5.3-2.3,7.6-2.3
				c2.3,0,4.2,0.7,5.6,2.2C387.8,27.9,388.5,29.9,388.5,32.4z"/>
			<path class="st0" d="M445.9,51.9c0,3.8-0.6,7.5-1.8,11.2c-1.2,3.7-2.9,6.8-5.2,9.4c-2.5,2.9-5.5,5.1-8.8,6.5
				c-3.3,1.4-7.1,2.1-11.2,2.1c-3.4,0-6.7-0.6-9.8-1.9c-3.1-1.3-5.9-3.2-8.3-5.7c-2.4-2.4-4.3-5.4-5.7-9c-1.4-3.5-2.1-7.5-2.1-11.9
				c0-8.4,2.5-15.4,7.4-20.7c4.9-5.4,11.4-8.1,19.4-8.1c7.6,0,13.8,2.6,18.7,7.7C443.4,36.7,445.9,43.5,445.9,51.9z M434.5,52
				c0-2.7-0.3-5.6-0.8-8.7c-0.5-3.1-1.4-5.6-2.5-7.8c-1.2-2.3-2.7-4.1-4.6-5.5c-1.9-1.4-4.2-2.1-7-2.1c-2.8,0-5.2,0.7-7.2,2.1
				c-2,1.4-3.6,3.3-4.9,5.7c-1.2,2.2-2,4.8-2.5,7.6c-0.5,2.9-0.7,5.6-0.7,8.3c0,3.5,0.3,6.8,0.9,9.7c0.6,3,1.5,5.6,2.7,8
				c1.2,2.3,2.8,4.2,4.7,5.5c1.9,1.3,4.2,2,7,2c4.6,0,8.2-2.2,10.9-6.6C433.2,65.9,434.5,59.8,434.5,52z"/>
		</g>
		<g>
			<path class="st0" d="M466.7,20.6c0,2.9-1,5.3-3.1,7.4c-2,2-4.5,3.1-7.4,3.1c-2.9,0-5.3-1-7.4-3.1c-2-2-3.1-4.5-3.1-7.4
				s1-5.3,3.1-7.4c2-2,4.5-3.1,7.4-3.1c2.9,0,5.3,1,7.4,3.1C465.7,15.2,466.7,17.7,466.7,20.6z M465.6,20.6c0-2.6-0.9-4.8-2.7-6.6
				c-1.8-1.9-4-2.8-6.6-2.8c-2.6,0-4.8,0.9-6.6,2.8c-1.8,1.9-2.7,4.1-2.7,6.6s0.9,4.8,2.7,6.6c1.8,1.9,4,2.8,6.6,2.8
				c2.6,0,4.8-0.9,6.6-2.8C464.7,25.3,465.6,23.1,465.6,20.6z M463.1,26h-3.4c-0.7-1.1-1.4-1.9-1.9-2.6c-0.6-0.7-1.1-1.4-1.7-2.1
				h-1.3v3.1c0,0.2,0,0.3,0.1,0.5c0.1,0.1,0.2,0.3,0.4,0.3c0.1,0,0.3,0.1,0.5,0.1c0.3,0,0.5,0.1,0.6,0.1V26h-5.2v-0.7
				c0.1,0,0.3,0,0.6-0.1c0.2,0,0.4-0.1,0.5-0.1c0.2-0.1,0.3-0.2,0.4-0.3c0.1-0.1,0.1-0.3,0.1-0.5v-7.6c0-0.2,0-0.4-0.1-0.5
				c-0.1-0.1-0.2-0.2-0.4-0.3c-0.2-0.1-0.4-0.1-0.6-0.1c-0.2,0-0.4-0.1-0.6-0.1V15h5.8c0.4,0,0.9,0,1.3,0.1c0.4,0.1,0.8,0.2,1.2,0.4
				c0.3,0.2,0.6,0.5,0.8,0.8c0.2,0.3,0.3,0.7,0.3,1.2c0,0.9-0.2,1.5-0.7,2c-0.5,0.5-1.2,0.9-2.1,1.1c0.6,0.8,1.2,1.4,1.6,2
				c0.4,0.5,0.8,1,1.2,1.5c0.2,0.3,0.4,0.5,0.6,0.6c0.2,0.1,0.4,0.2,0.6,0.3c0.2,0.1,0.3,0.1,0.6,0.1c0.2,0,0.4,0.1,0.5,0.1V26z
				 M458.5,17.8c0-0.7-0.2-1.1-0.6-1.5c-0.4-0.3-1-0.5-1.7-0.5h-1.4v4.5h1c0.8,0,1.5-0.2,1.9-0.6C458.3,19.2,458.5,18.6,458.5,17.8z
				"/>
		</g>
	</g>
	<g>
		<path class="st0" d="M30,115.3h-3.3v-12c0-1.5-0.2-2.6-0.7-3.3c-0.4-0.7-1.2-1-2.2-1c-1.6,0-3.2,1-4.7,3v13.2h-3.3v-12
			c0-1.5-0.2-2.6-0.7-3.3c-0.4-0.7-1.2-1-2.2-1c-1.6,0-3.1,1-4.7,3v13.2H5V96.8h3.3v2.4c1.6-1.8,3.3-2.8,5.2-2.8
			c2.7,0,4.4,1.1,5.2,3.3c1.2-1.5,2.3-2.4,3.1-2.8c0.9-0.4,1.7-0.6,2.5-0.6c3.8,0,5.7,2.3,5.7,6.8V115.3z"/>
		<path class="st0" d="M44.4,96.4c2.6,0,4.7,0.8,6.3,2.5c1.6,1.7,2.4,4.1,2.4,7.1c0,3.1-0.8,5.4-2.4,7.1c-1.6,1.7-3.7,2.5-6.3,2.5
			c-2.6,0-4.7-0.8-6.3-2.5c-1.6-1.7-2.4-4.1-2.4-7.1c0-3.1,0.8-5.5,2.4-7.1C39.7,97.2,41.8,96.4,44.4,96.4z M44.4,113.2
			c1.6,0,2.8-0.6,3.8-1.8c1-1.2,1.5-3,1.5-5.3c0-2.4-0.5-4.1-1.5-5.3c-1-1.2-2.2-1.8-3.8-1.8c-1.6,0-2.8,0.6-3.8,1.8
			c-1,1.2-1.5,3-1.5,5.3c0,2.3,0.5,4.1,1.5,5.3C41.6,112.6,42.8,113.2,44.4,113.2z"/>
		<path class="st0" d="M62.2,115.3h-3.3V89.8h3.3V115.3z"/>
		<path class="st0" d="M80.9,113.1c-1.5,1.8-3.2,2.6-5.3,2.6c-2.4,0-4.3-0.9-5.6-2.6s-2-4-2-7c0-3,0.7-5.4,2.2-7.2
			c1.5-1.8,3.3-2.6,5.6-2.6c2,0,3.7,0.6,5.1,1.8v-8.5h3.3v25.5h-3.3V113.1z M80.9,110v-8.8c-1.4-1.5-3-2.2-4.9-2.2
			c-1.4,0-2.5,0.6-3.4,1.8c-0.8,1.2-1.3,3-1.3,5.4c0,2.3,0.4,4,1.2,5.2s1.9,1.8,3.3,1.8C77.7,113.2,79.4,112.1,80.9,110z"/>
		<path class="st0" d="M102.9,113.4c-1.7,1.6-3.8,2.3-6.5,2.3c-1.8,0-3.3-0.5-4.5-1.5c-1.2-1-1.8-2.3-1.8-3.8
			c0-4.3,3.7-6.5,11.2-6.5h1.6c0-1.3-0.1-2.3-0.2-2.9c-0.1-0.6-0.5-1.1-1.2-1.5c-0.6-0.4-1.7-0.6-3.1-0.6c-2.9,0-4.4,1-4.5,3.1h-3.3
			c0.2-3.8,2.9-5.7,8-5.7c2.4,0,4.2,0.5,5.5,1.4c1.3,0.9,2,2.8,2,5.5v12h-3.3V113.4z M102.9,110.4v-4.1h-2.2c-4.8,0-7.1,1.3-7.1,3.9
			c0,0.9,0.3,1.7,1,2.2c0.7,0.5,1.6,0.8,2.8,0.8c1.1,0,2.1-0.2,3.1-0.7C101.5,111.9,102.3,111.3,102.9,110.4z"/>
		<path class="st0" d="M116.4,99c1.5-1.8,3.2-2.6,5.3-2.6c2.4,0,4.3,0.9,5.6,2.6c1.3,1.7,2,4,2,6.9c0,3-0.7,5.4-2.2,7.2
			c-1.5,1.8-3.3,2.6-5.6,2.6c-2,0-3.7-0.6-5.1-1.9v1.4h-3.3V89.8h3.3V99z M116.4,110.9c1.4,1.5,3,2.2,4.8,2.2c1.4,0,2.5-0.6,3.4-1.8
			c0.8-1.2,1.3-3,1.3-5.4c0-2.3-0.4-4-1.2-5.2s-1.9-1.8-3.3-1.8c-1.8,0-3.5,1.1-5,3.2V110.9z"/>
		<path class="st0" d="M138.4,115.3h-3.3V89.8h3.3V115.3z"/>
		<path class="st0" d="M153.3,115.7c-2.7,0-4.9-0.9-6.6-2.6c-1.6-1.7-2.5-4.1-2.5-7.1c0-3,0.8-5.4,2.4-7.1c1.6-1.7,3.7-2.6,6.3-2.6
			c2.6,0,4.7,0.8,6.3,2.5c1.6,1.7,2.4,4.1,2.4,7.1v0.8h-13.9c0.1,2.1,0.7,3.7,1.8,4.8c1,1,2.3,1.6,3.8,1.6c1.1,0,2.2-0.3,3.1-0.9
			c0.9-0.6,1.4-1.4,1.5-2.5h3.4c-0.3,1.9-1.1,3.4-2.6,4.4C157.2,115.2,155.4,115.7,153.3,115.7z M158.1,104.3
			c-0.3-1.8-0.9-3.1-1.8-4c-0.9-0.9-2.1-1.3-3.4-1.3c-1.3,0-2.4,0.4-3.4,1.3c-0.9,0.9-1.5,2.2-1.8,4H158.1z"/>
		<path class="st0" d="M182.3,99c1.5-1.8,3.2-2.6,5.3-2.6c2.4,0,4.3,0.9,5.6,2.6c1.3,1.7,2,4,2,6.9c0,3-0.7,5.4-2.2,7.2
			c-1.5,1.8-3.3,2.6-5.6,2.6c-2,0-3.7-0.6-5.1-1.9v1.4H179V89.8h3.3V99z M182.3,110.9c1.4,1.5,3,2.2,4.8,2.2c1.4,0,2.5-0.6,3.4-1.8
			c0.8-1.2,1.3-3,1.3-5.4c0-2.3-0.4-4-1.2-5.2c-0.8-1.2-1.9-1.8-3.3-1.8c-1.8,0-3.5,1.1-5,3.2V110.9z"/>
		<path class="st0" d="M208.5,96.4c2.6,0,4.7,0.8,6.3,2.5c1.6,1.7,2.4,4.1,2.4,7.1c0,3.1-0.8,5.4-2.4,7.1c-1.6,1.7-3.7,2.5-6.3,2.5
			c-2.6,0-4.7-0.8-6.3-2.5c-1.6-1.7-2.4-4.1-2.4-7.1c0-3.1,0.8-5.5,2.4-7.1C203.8,97.2,205.9,96.4,208.5,96.4z M208.5,113.2
			c1.6,0,2.8-0.6,3.8-1.8c1-1.2,1.5-3,1.5-5.3c0-2.4-0.5-4.1-1.5-5.3c-1-1.2-2.2-1.8-3.8-1.8c-1.6,0-2.8,0.6-3.8,1.8
			c-1,1.2-1.5,3-1.5,5.3c0,2.3,0.5,4.1,1.5,5.3C205.7,112.6,206.9,113.2,208.5,113.2z"/>
		<path class="st0" d="M226.3,99.2c1.6-1.8,3.5-2.8,5.5-2.8c4.2,0,6.3,2.3,6.3,6.8v12.1h-3.3v-12c0-1.5-0.3-2.6-0.8-3.3
			c-0.5-0.7-1.4-1-2.7-1c-1.7,0-3.3,1-5,3v13.2H223V96.8h3.3V99.2z"/>
		<path class="st0" d="M252.8,115.7c-2.7,0-4.9-0.9-6.6-2.6s-2.5-4.1-2.5-7.1c0-3,0.8-5.4,2.4-7.1c1.6-1.7,3.7-2.6,6.3-2.6
			c2.6,0,4.7,0.8,6.3,2.5c1.6,1.7,2.4,4.1,2.4,7.1v0.8h-13.9c0.1,2.1,0.7,3.7,1.8,4.8c1,1,2.3,1.6,3.8,1.6c1.1,0,2.2-0.3,3.1-0.9
			c0.9-0.6,1.4-1.4,1.5-2.5h3.4c-0.3,1.9-1.1,3.4-2.6,4.4C256.8,115.2,255,115.7,252.8,115.7z M257.7,104.3c-0.3-1.8-0.9-3.1-1.8-4
			c-0.9-0.9-2.1-1.3-3.4-1.3c-1.3,0-2.4,0.4-3.4,1.3c-0.9,0.9-1.5,2.2-1.8,4H257.7z"/>
		<path class="st0" d="M285.2,115.7c-5.1,0-7.7-2-7.9-6h3.3c0,2.3,1.6,3.4,4.6,3.4c1.4,0,2.4-0.3,3.1-0.8c0.7-0.6,1.1-1.3,1.1-2.1
			c0-0.8-0.3-1.4-1-1.8c-0.7-0.3-2.1-0.8-4.3-1.3s-3.8-1.2-4.8-1.8c-1-0.7-1.5-1.9-1.5-3.6c0-1.5,0.6-2.8,1.9-3.8
			c1.2-1,2.9-1.5,5-1.5c4.8,0,7.3,1.7,7.4,5.2h-3.3c-0.1-1.7-1.4-2.6-3.9-2.6c-1.1,0-2,0.2-2.7,0.6c-0.7,0.4-1.1,1-1.1,1.8
			c0,0.7,0.3,1.2,0.8,1.6c0.6,0.3,2,0.7,4.2,1.3c2.2,0.5,3.9,1.2,5,1.9c1.1,0.7,1.6,2,1.6,3.7c0,1.7-0.7,3.1-2,4.2
			C289.3,115.2,287.5,115.7,285.2,115.7z"/>
		<path class="st0" d="M310.3,112.9c-1.6,1.9-3.5,2.8-5.5,2.8c-4.2,0-6.3-2.3-6.3-6.8V96.8h3.3v12c0,1.5,0.3,2.6,0.8,3.3
			c0.5,0.7,1.4,1,2.7,1c1.8,0,3.5-1,5-3V96.8h3.3v18.5h-3.3V112.9z"/>
		<path class="st0" d="M323.9,99c1.5-1.8,3.2-2.6,5.3-2.6c2.4,0,4.3,0.9,5.6,2.6s2,4,2,6.9c0,3-0.7,5.4-2.2,7.2
			c-1.5,1.8-3.3,2.6-5.6,2.6c-2,0-3.7-0.6-5.1-1.9v1.4h-3.3V89.8h3.3V99z M323.9,110.9c1.4,1.5,3,2.2,4.8,2.2c1.4,0,2.5-0.6,3.4-1.8
			c0.8-1.2,1.3-3,1.3-5.4c0-2.3-0.4-4-1.2-5.2c-0.8-1.2-1.9-1.8-3.3-1.8c-1.8,0-3.5,1.1-5,3.2V110.9z"/>
		<path class="st0" d="M349.2,115.7c-5.1,0-7.7-2-7.9-6h3.3c0,2.3,1.6,3.4,4.6,3.4c1.4,0,2.4-0.3,3.1-0.8c0.7-0.6,1.1-1.3,1.1-2.1
			c0-0.8-0.3-1.4-1-1.8c-0.7-0.3-2.1-0.8-4.3-1.3c-2.2-0.5-3.8-1.2-4.8-1.8c-1-0.7-1.5-1.9-1.5-3.6c0-1.5,0.6-2.8,1.9-3.8
			c1.2-1,2.9-1.5,5-1.5c4.8,0,7.3,1.7,7.4,5.2h-3.3c-0.1-1.7-1.4-2.6-3.9-2.6c-1.1,0-2,0.2-2.7,0.6c-0.7,0.4-1.1,1-1.1,1.8
			c0,0.7,0.3,1.2,0.8,1.6c0.6,0.3,2,0.7,4.2,1.3c2.2,0.5,3.9,1.2,5,1.9c1.1,0.7,1.6,2,1.6,3.7c0,1.7-0.7,3.1-2,4.2
			C353.2,115.2,351.4,115.7,349.2,115.7z"/>
		<path class="st0" d="M369.7,115.3c-0.7,0.1-1.5,0.2-2.4,0.2c-1.3,0-2.3-0.2-3-0.7c-0.6-0.5-1-1.1-1.2-1.9
			c-0.2-0.8-0.2-1.8-0.2-3.1V99.4h-2.3v-2.6h2.3v-4.6h3.3v4.6h3v2.6h-3v10.7c0,1.3,0.2,2.1,0.5,2.4c0.3,0.3,0.8,0.5,1.3,0.5
			c0.6,0,1.1,0,1.6-0.1V115.3z"/>
		<path class="st0" d="M377.9,93.3h-3.3v-3.6h3.3V93.3z M377.9,115.3h-3.3V96.8h3.3V115.3z"/>
		<path class="st0" d="M392.1,115.3c-0.7,0.1-1.5,0.2-2.4,0.2c-1.3,0-2.3-0.2-3-0.7c-0.6-0.5-1-1.1-1.2-1.9
			c-0.2-0.8-0.2-1.8-0.2-3.1V99.4h-2.3v-2.6h2.3v-4.6h3.3v4.6h3v2.6h-3v10.7c0,1.3,0.2,2.1,0.5,2.4c0.3,0.3,0.8,0.5,1.3,0.5
			c0.6,0,1.1,0,1.6-0.1V115.3z"/>
		<path class="st0" d="M408.6,112.9c-1.6,1.9-3.5,2.8-5.5,2.8c-4.2,0-6.3-2.3-6.3-6.8V96.8h3.3v12c0,1.5,0.3,2.6,0.8,3.3
			c0.5,0.7,1.4,1,2.6,1c1.8,0,3.5-1,5-3V96.8h3.3v18.5h-3.3V112.9z"/>
		<path class="st0" d="M426.1,115.3c-0.7,0.1-1.5,0.2-2.4,0.2c-1.3,0-2.3-0.2-3-0.7c-0.6-0.5-1-1.1-1.2-1.9
			c-0.2-0.8-0.2-1.8-0.2-3.1V99.4h-2.3v-2.6h2.3v-4.6h3.3v4.6h3v2.6h-3v10.7c0,1.3,0.2,2.1,0.5,2.4c0.3,0.3,0.8,0.5,1.3,0.5
			c0.6,0,1.1,0,1.6-0.1V115.3z"/>
		<path class="st0" d="M438.8,115.7c-2.7,0-4.9-0.9-6.6-2.6s-2.5-4.1-2.5-7.1c0-3,0.8-5.4,2.4-7.1c1.6-1.7,3.7-2.6,6.3-2.6
			c2.6,0,4.7,0.8,6.3,2.5c1.6,1.7,2.4,4.1,2.4,7.1v0.8h-13.9c0.1,2.1,0.7,3.7,1.8,4.8c1,1,2.3,1.6,3.8,1.6c1.1,0,2.2-0.3,3.1-0.9
			c0.9-0.6,1.4-1.4,1.5-2.5h3.4c-0.3,1.9-1.1,3.4-2.6,4.4C442.7,115.2,441,115.7,438.8,115.7z M443.7,104.3c-0.3-1.8-0.9-3.1-1.8-4
			c-0.9-0.9-2.1-1.3-3.4-1.3c-1.3,0-2.4,0.4-3.4,1.3c-0.9,0.9-1.5,2.2-1.8,4H443.7z"/>
	</g>
</g>
</svg>
