<?xml version="1.0" encoding="UTF-8"?>
<svg width="467px" height="118px" viewBox="0 0 467 118" version="1.1" xmlns="http://www.w3.org/2000/svg" xmlns:xlink="http://www.w3.org/1999/xlink">
    <!-- Generator: Sketch 45.2 (43514) - http://www.bohemiancoding.com/sketch -->
    <title>novogro</title>
    <desc>Created with Sketch.</desc>
    <defs>
        <linearGradient x1="0%" y1="49.9999835%" x2="100.000037%" y2="49.9999835%" id="linearGradient-1">
            <stop stop-color="#7F7CBB" offset="0%"></stop>
            <stop stop-color="#7FCEEA" offset="47.13%"></stop>
            <stop stop-color="#89CDA8" offset="100%"></stop>
        </linearGradient>
    </defs>
    <g id="Round-3" stroke="none" stroke-width="1" fill="none" fill-rule="evenodd">
        <g id="Home" transform="translate(-72.000000, -685.000000)">
            <g id="novogro" transform="translate(72.000000, 685.000000)">
                <path d="M39.6249991,79.0915052 C18.0515104,79.0915052 0.808937275,62.289422 0.0159306453,40.7048364 L0,40.7048364 L0,39.0921093 C0.494633478,17.2087398 17.8498963,0.108134142 39.6249991,0.108134142 C55.8793499,0.108134142 70.3264865,9.82985011 76.433408,24.8758266 C76.7264274,25.7891694 76.9877161,26.4196739 78.3655863,27.9632599 C84.685874,35.0330403 92.9636723,36.5487868 95.5920982,36.8581575 L95.5920982,2.89037917 C95.5920982,1.42364578 96.8679862,0.206421748 98.3770884,0.206421748 L101.39007,0.206421748 L104.609888,4.23242324 L104.776899,39.9071645 L104.776899,74.4776079 L101.389939,79.0092939 L98.3769578,79.0092939 C96.8678556,79.0092939 95.5919676,77.7707655 95.5919676,76.3147496 L95.5919676,42.3362538 C92.9635417,42.6507219 84.6912277,44.1719578 78.3654557,51.2257927 C76.980926,52.7854549 76.7262968,53.4107314 76.4544312,54.2469602 C70.319827,69.3590717 55.8794805,79.0915052 39.6249991,79.0915052 Z M39.6249991,9.28560863 C23.0509908,9.28560863 9.39163771,22.8926912 9.16900042,39.6137394 C9.38654513,56.3068175 23.0509908,69.9124623 39.6249991,69.9124623 C56.2654722,69.9124623 69.9790156,56.3120456 70.1899008,39.591128 C69.9790156,22.8926912 56.260249,9.28560863 39.6249991,9.28560863 Z" id="Shape" fill="url(#linearGradient-1)" fill-rule="nonzero"></path>
                <path d="M198.402056,14.8601983 C197.638494,14.8874684 196.465898,15.1056256 194.884234,15.5146767 C193.30257,15.9237277 192.17088,16.3464074 191.489128,16.7827285 C190.507405,17.4644802 189.846116,18.7734238 189.50524,20.7095986 C189.164365,22.6457735 188.993929,25.1000428 188.993929,28.0724802 L188.993929,70.5726686 L185.435203,70.5726686 L150.256991,23.0820827 L150.256991,53.0244676 C150.256991,56.3786859 150.468331,58.9556687 150.891017,60.7554932 C151.313703,62.5553177 151.961358,63.8369916 152.834,64.6005535 C153.461211,65.200495 154.75652,65.759523 156.719965,66.2776543 C158.68341,66.7957856 159.978719,67.0684822 160.60593,67.0957523 L160.60593,70 L136.79928,70 L136.79928,67.0957523 C137.535572,67.0412121 138.776341,66.775333 140.521626,66.2981068 C142.26691,65.8208806 143.357696,65.3913835 143.794018,65.0096025 C144.74847,64.2460406 145.402942,63.0802627 145.757453,61.5122338 C146.111964,59.9442049 146.289216,57.2649609 146.289216,53.4744214 L146.289216,24.8818982 C146.289216,23.627475 146.071059,22.3730707 145.634738,21.1186476 C145.198417,19.8642245 144.612119,18.8961516 143.875827,18.2143999 C142.894105,17.3144876 141.564709,16.5441198 139.8876,15.9032732 C138.210491,15.2624266 136.853825,14.9147384 135.817563,14.8601983 L135.817563,11.9559506 L152.384046,11.9559506 L185.026154,56.2150496 L185.026154,28.6042438 C185.026154,25.2227554 184.807997,22.6253204 184.371676,20.8118609 C183.935355,18.9984014 183.308153,17.7917189 182.49005,17.1917775 C181.726489,16.6736462 180.478902,16.1691575 178.747252,15.6782962 C177.015603,15.187435 175.699842,14.9147384 174.79993,14.8601983 L174.79993,11.9559506 L198.402056,11.9559506 L198.402056,14.8601983 Z M238.77456,49.4248366 C238.77456,52.2609237 238.324611,55.0492463 237.424698,57.7898881 C236.524786,60.53053 235.243112,62.8552684 233.579638,64.7641731 C231.698003,66.9457786 229.516431,68.5683233 227.034854,69.6318559 C224.553278,70.6953886 221.771773,71.2271469 218.690255,71.2271469 C216.126869,71.2271469 213.686235,70.7431105 211.368279,69.7750231 C209.050323,68.8069357 206.991464,67.3957308 205.191639,65.5413662 C203.419085,63.7142716 202.00788,61.484977 200.957982,58.8534155 C199.908085,56.2218539 199.383144,53.2699133 199.383144,49.9975052 C199.383144,43.6981195 201.217028,38.5441539 204.884852,34.535454 C208.552677,30.526754 213.358954,28.522434 219.303829,28.522434 C224.948733,28.522434 229.605027,30.4244927 233.272851,34.2286672 C236.940675,38.0328417 238.77456,43.0981808 238.77456,49.4248366 Z M230.307246,49.5066464 C230.307246,47.4613913 230.102724,45.3002708 229.693673,43.0232202 C229.284622,40.7461695 228.671054,38.8168411 227.852952,37.2351772 C226.98031,35.544433 225.834985,34.1877674 224.416941,33.1651399 C222.998897,32.1425123 221.267274,31.6312062 219.222019,31.6312062 C217.122224,31.6312062 215.329244,32.1493298 213.843025,33.1855923 C212.356806,34.2218549 211.150124,35.6398772 210.222942,37.4397017 C209.350299,39.1031758 208.736732,40.9984171 208.382221,43.1254824 C208.02771,45.2525477 207.850458,47.311407 207.850458,49.3021219 C207.850458,51.9200484 208.061797,54.3402307 208.484483,56.5627412 C208.90717,58.7852517 209.582094,60.7691194 210.509276,62.5144038 C211.436458,64.2596881 212.602236,65.6299885 214.006645,66.625346 C215.411053,67.6207034 217.149494,68.1183747 219.222019,68.1183747 C222.630778,68.1183747 225.330474,66.4685604 227.321189,63.1688821 C229.311904,59.8692039 230.307246,55.3151709 230.307246,49.5066464 Z M281.887693,32.1629699 C280.660539,32.3811304 279.494762,32.8242624 278.390324,33.4923791 C277.285886,34.1604957 276.338265,35.3399085 275.547433,37.0306527 C273.938499,40.6848418 272.27505,44.4957766 270.557036,48.4635715 C268.839022,52.4313664 267.052859,56.5968068 265.198494,60.9600177 C264.653093,62.2144408 264.073613,63.7006372 263.460036,65.4186515 C262.84646,67.1366658 262.280614,68.7864801 261.762483,70.3681441 L258.571901,70.3681441 C255.981245,63.9596781 253.595149,58.1171537 251.413544,52.8403955 C249.231939,47.5636374 246.968557,42.1574275 244.623331,36.6216037 C244.07793,35.3671806 243.198483,34.3922903 241.984965,33.6969036 C240.771447,33.0015168 239.55113,32.5583849 238.323977,32.3674944 L238.323977,29.6677712 L256.97661,29.6677712 L256.97661,32.531114 C256.158508,32.558384 255.135896,32.7288194 253.908743,33.0424252 C252.68159,33.356031 252.068022,33.7855281 252.068022,34.3309295 C252.068022,34.4127397 252.136196,34.6240795 252.272547,34.9649554 C252.408897,35.3058312 252.545245,35.6944239 252.681596,36.130745 C253.799669,38.9122919 255.381309,42.7982183 257.426564,47.7886407 C259.471819,52.7790631 261.135268,56.8013378 262.416961,59.8555854 C263.398684,57.5103596 264.632636,54.5925061 266.118855,51.1019374 C267.605073,47.6113687 269.207166,43.7118075 270.92518,39.4031367 C271.197881,38.6668449 271.456942,37.978286 271.702373,37.3374394 C271.947804,36.6965928 272.070517,36.0489384 272.070517,35.3944568 C272.070517,34.9308656 271.845542,34.5150033 271.395586,34.1468574 C270.94563,33.7787115 270.407054,33.458293 269.779843,33.1855923 C269.152631,32.9128917 268.539064,32.7083692 267.939123,32.5720189 C267.339181,32.4356685 266.848327,32.3402247 266.466546,32.2856846 L266.466546,29.6677712 L281.887693,29.6677712 L281.887693,32.1629699 Z M320.378572,49.4248366 C320.378572,52.2609237 319.928622,55.0492463 319.02871,57.7898881 C318.128798,60.53053 316.847124,62.8552684 315.18365,64.7641731 C313.302015,66.9457786 311.120442,68.5683233 308.638866,69.6318559 C306.15729,70.6953886 303.375785,71.2271469 300.294267,71.2271469 C297.730881,71.2271469 295.290246,70.7431105 292.97229,69.7750231 C290.654335,68.8069357 288.595475,67.3957308 286.795651,65.5413662 C285.023096,63.7142716 283.611892,61.484977 282.561994,58.8534155 C281.512096,56.2218539 280.987155,53.2699133 280.987155,49.9975052 C280.987155,43.6981195 282.82104,38.5441539 286.488864,34.535454 C290.156688,30.526754 294.962966,28.522434 300.90784,28.522434 C306.552745,28.522434 311.209039,30.4244927 314.876863,34.2286672 C318.544687,38.0328417 320.378572,43.0981808 320.378572,49.4248366 Z M311.911258,49.5066464 C311.911258,47.4613913 311.706735,45.3002708 311.297684,43.0232202 C310.888633,40.7461695 310.275066,38.8168411 309.456964,37.2351772 C308.584322,35.544433 307.438996,34.1877674 306.020953,33.1651399 C304.602909,32.1425123 302.871286,31.6312062 300.826031,31.6312062 C298.726235,31.6312062 296.933255,32.1493298 295.447037,33.1855923 C293.960818,34.2218549 292.754136,35.6398772 291.826953,37.4397017 C290.954311,39.1031758 290.340744,40.9984171 289.986233,43.1254824 C289.631722,45.2525477 289.454469,47.311407 289.454469,49.3021219 C289.454469,51.9200484 289.665809,54.3402307 290.088495,56.5627412 C290.511181,58.7852517 291.186105,60.7691194 292.113288,62.5144038 C293.04047,64.2596881 294.206248,65.6299885 295.610656,66.625346 C297.015065,67.6207034 298.753506,68.1183747 300.826031,68.1183747 C304.234789,68.1183747 306.934485,66.4685604 308.9252,63.1688821 C310.915915,59.8692039 311.911258,55.3151709 311.911258,49.5066464 Z M380.876286,46.8069232 C380.221804,46.8887334 379.342357,47.0182643 378.23792,47.1955197 C377.133482,47.3727751 376.240401,47.6250195 375.558649,47.9522603 C374.740547,48.3613113 374.161067,48.9407916 373.820191,49.6907184 C373.479315,50.4406453 373.30888,51.3200918 373.30888,52.3290843 L373.30888,56.828623 C373.30888,60.1010312 373.329332,62.3098736 373.370237,63.4552164 C373.411142,64.6005593 373.458864,65.5413625 373.513404,66.2776543 C369.886485,67.9138584 366.273255,69.1682627 362.673606,70.0409049 C359.073957,70.9135471 355.542536,71.3498616 352.079238,71.3498616 C348.370509,71.3498616 344.798183,70.6544853 341.362155,69.2637118 C337.926126,67.8729384 334.926464,65.8958881 332.363077,63.3325017 C329.772421,60.7418453 327.713562,57.5921997 326.186438,53.8834704 C324.659314,50.1747412 323.895764,46.029753 323.895764,41.4483816 C323.895764,37.0306306 324.625227,32.9333644 326.084176,29.1564599 C327.543124,25.3795555 329.608801,22.100379 332.281267,19.3188321 C334.871924,16.5918253 337.960213,14.4716093 341.546227,12.9581206 C345.132241,11.4446318 348.970445,10.6878988 353.060955,10.6878988 C356.333364,10.6878988 359.183043,11.0833088 361.610079,11.8741408 C364.037115,12.6649728 366.177783,13.6194108 368.032148,14.7374836 L369.709249,11.9559506 L372.98164,11.9559506 L373.349784,32.2447797 L369.995583,32.2447797 C369.422911,30.0086341 368.7139,27.8066092 367.868528,25.6386388 C367.023156,23.4706684 365.93237,21.5277052 364.596136,19.8096909 C363.259903,18.0916766 361.630541,16.7213762 359.708001,15.6987487 C357.785461,14.6761211 355.487993,14.164815 352.815526,14.164815 C349.897629,14.164815 347.293376,14.7579301 345.002691,15.9441781 C342.712005,17.130426 340.72132,18.8961365 339.030576,21.2413623 C337.367101,23.5047779 336.085427,26.3271876 335.185515,29.7086761 C334.285603,33.0901645 333.835654,36.8670122 333.835654,41.0393326 C333.835654,44.7207918 334.278786,48.1908559 335.165063,51.449629 C336.05134,54.7084021 337.339831,57.5239944 339.030576,59.8964903 C340.72132,62.3235264 342.834718,64.2324025 345.370835,65.623176 C347.906951,67.0139494 350.7839,67.7093257 354.001768,67.7093257 C356.401534,67.7093257 358.589924,67.3411854 360.567004,66.6048935 C362.544084,65.8686017 363.941654,65.0914164 364.759756,64.2733144 C364.977917,62.8552708 365.093813,61.4236137 365.107448,59.9783001 C365.121083,58.5329865 365.1279,57.3058519 365.1279,56.2968594 L365.1279,53.1062774 C365.1279,51.9609345 364.9711,50.9451397 364.657494,50.0588625 C364.343888,49.1725853 363.696234,48.5249309 362.714511,48.1158799 C361.814599,47.7068289 360.594282,47.4000452 359.053523,47.1955197 C357.512764,46.9909942 356.306082,46.8614633 355.433439,46.8069232 L355.433439,43.8208657 L380.876286,43.8208657 L380.876286,46.8069232 Z M412.699666,34.8626931 C412.699666,36.2534666 412.358796,37.4874187 411.677044,38.5645863 C410.995292,39.641754 409.94541,40.1803298 408.527367,40.1803298 C407.000243,40.1803298 405.834465,39.7849197 405.029998,38.9940878 C404.225531,38.2032558 403.823304,37.3306267 403.823304,36.3761743 C403.823304,35.7762328 403.871026,35.2308397 403.966471,34.7399784 C404.061916,34.2491172 404.150542,33.7582634 404.232353,33.2674021 C402.950659,33.2674021 401.450828,33.7855257 399.732814,34.8217882 C398.0148,35.8580508 396.555873,37.3306124 395.35599,39.2395172 L395.35599,62.7189283 C395.35599,63.6733806 395.54006,64.4505659 395.908206,65.0505074 C396.276352,65.6504489 396.855832,66.1003983 397.646664,66.400369 C398.328416,66.6730697 399.207862,66.8775921 400.28503,67.0139425 C401.362198,67.1502928 402.296184,67.2457366 403.087016,67.3002768 L403.087016,70 L381.816469,70 L381.816469,67.3002768 C382.44368,67.2457366 383.091335,67.1911973 383.759452,67.1366572 C384.427568,67.082117 385.007048,66.9730384 385.49791,66.809418 C386.261472,66.5639874 386.827317,66.1344903 387.195463,65.5209137 C387.563609,64.9073372 387.747679,64.1096997 387.747679,63.1279772 L387.747679,38.2168947 C387.747679,37.3715226 387.549974,36.539798 387.154558,35.721696 C386.759142,34.9035939 386.206931,34.2491221 385.49791,33.7582609 C384.979778,33.4310201 384.366211,33.1924106 383.657189,33.0424252 C382.948168,32.8924398 382.184617,32.7901786 381.366515,32.7356385 L381.366515,30.0768201 L394.783321,29.1769124 L395.35599,29.749581 L395.35599,35.4353617 L395.560514,35.4353617 C397.251259,33.2264862 399.132865,31.5494022 401.20539,30.4040593 C403.277915,29.2587165 405.173157,28.6860536 406.891171,28.6860536 C408.609185,28.6860536 410.006755,29.2450816 411.083923,30.3631544 C412.161091,31.4812272 412.699666,32.9810584 412.699666,34.8626931 Z M452.867646,49.4248366 C452.867646,52.2609237 452.417697,55.0492463 451.517785,57.7898881 C450.617872,60.53053 449.336199,62.8552684 447.672724,64.7641731 C445.79109,66.9457786 443.609517,68.5683233 441.127941,69.6318559 C438.646365,70.6953886 435.864859,71.2271469 432.783342,71.2271469 C430.219955,71.2271469 427.779321,70.7431105 425.461365,69.7750231 C423.143409,68.8069357 421.08455,67.3957308 419.284726,65.5413662 C417.512171,63.7142716 416.100966,61.484977 415.051069,58.8534155 C414.001171,56.2218539 413.47623,53.2699133 413.47623,49.9975052 C413.47623,43.6981195 415.310115,38.5441539 418.977939,34.535454 C422.645763,30.526754 427.45204,28.522434 433.396915,28.522434 C439.041819,28.522434 443.698114,30.4244927 447.365938,34.2286672 C451.033762,38.0328417 452.867646,43.0981808 452.867646,49.4248366 Z M444.400333,49.5066464 C444.400333,47.4613913 444.19581,45.3002708 443.786759,43.0232202 C443.377708,40.7461695 442.764141,38.8168411 441.946039,37.2351772 C441.073397,35.544433 439.928071,34.1877674 438.510027,33.1651399 C437.091984,32.1425123 435.36036,31.6312062 433.315105,31.6312062 C431.21531,31.6312062 429.42233,32.1493298 427.936111,33.1855923 C426.449893,34.2218549 425.24321,35.6398772 424.316028,37.4397017 C423.443386,39.1031758 422.829818,40.9984171 422.475308,43.1254824 C422.120797,45.2525477 421.943544,47.311407 421.943544,49.3021219 C421.943544,51.9200484 422.154884,54.3402307 422.57757,56.5627412 C423.000256,58.7852517 423.67518,60.7691194 424.602362,62.5144038 C425.529545,64.2596881 426.695322,65.6299885 428.099731,66.625346 C429.504139,67.6207034 431.24258,68.1183747 433.315105,68.1183747 C436.723864,68.1183747 439.42356,66.4685604 441.414275,63.1688821 C443.40499,59.8692039 444.400333,55.3151709 444.400333,49.5066464 Z" id="NovoGro" fill="#2E2D38"></path>
                <path d="M466.731098,23.4188296 C466.731098,25.0567118 466.150464,26.4540371 464.989179,27.6108474 C463.827893,28.7676576 462.428331,29.3460541 460.790448,29.3460541 C459.152566,29.3460541 457.754122,28.7676576 456.595074,27.6108474 C455.436026,26.4540371 454.856511,25.0567118 454.856511,23.4188296 C454.856511,21.7809473 455.436026,20.3836221 456.595074,19.2268118 C457.754122,18.0700015 459.152566,17.4916051 460.790448,17.4916051 C462.428331,17.4916051 463.827893,18.0700015 464.989179,19.2268118 C466.150464,20.3836221 466.731098,21.7809473 466.731098,23.4188296 Z M466.066551,23.4188296 C466.066551,21.964426 465.554161,20.7114201 464.529366,19.6597744 C463.504571,18.6081287 462.258277,18.0823137 460.790448,18.0823137 C459.322619,18.0823137 458.077445,18.6081287 457.054887,19.6597744 C456.03233,20.7114201 455.521058,21.964426 455.521058,23.4188296 C455.521058,24.8732332 456.03233,26.1262391 457.054887,27.1778848 C458.077445,28.2295305 459.322619,28.7553454 460.790448,28.7553454 C462.258277,28.7553454 463.504571,28.2295305 464.529366,27.1778848 C465.554161,26.1262391 466.066551,24.8732332 466.066551,23.4188296 Z M464.67033,26.4864871 L462.743814,26.4864871 C462.318681,25.8868253 461.949492,25.3867417 461.636236,24.9862213 C461.32298,24.585701 461.003016,24.1818303 460.676334,23.7745973 L459.971511,23.7745973 L459.971511,25.5332981 C459.971511,25.6317501 459.99053,25.7223692 460.028568,25.8051584 C460.066607,25.8879475 460.141563,25.949479 460.25344,25.9897548 C460.302666,26.0076552 460.405592,26.0289115 460.56222,26.0535245 C460.718848,26.0781375 460.837436,26.0926813 460.917988,26.0971564 L460.917988,26.4864871 L457.971157,26.4864871 L457.971157,26.0971564 C458.051708,26.0882062 458.161346,26.0747812 458.300074,26.0568808 C458.438802,26.0389805 458.541727,26.0166054 458.608854,25.9897548 C458.707306,25.949479 458.777787,25.8913038 458.820301,25.8152273 C458.862814,25.7391508 458.88407,25.6451753 458.88407,25.5332981 L458.88407,21.2238099 C458.88407,21.1164077 458.868408,21.0235511 458.837082,20.945237 C458.805756,20.866923 458.729681,20.8076289 458.608854,20.7673532 C458.514877,20.7360275 458.407476,20.7080587 458.286649,20.6834457 C458.165822,20.6588327 458.060659,20.6420514 457.971157,20.6331012 L457.971157,20.2437705 L461.273755,20.2437705 C461.52436,20.2437705 461.770486,20.2706206 462.012141,20.3243216 C462.253796,20.3780227 462.473072,20.4630481 462.669976,20.5794004 C462.862405,20.6957527 463.01903,20.8490222 463.139858,21.0392134 C463.260685,21.2294046 463.321098,21.4587495 463.321098,21.7272547 C463.321098,22.2150393 463.187966,22.5976536 462.921698,22.8751091 C462.655431,23.1525646 462.262747,23.3628905 461.743637,23.5060934 C462.106119,23.944652 462.41154,24.3171975 462.659907,24.623741 C462.908274,24.9302846 463.130907,25.2066171 463.327811,25.4527469 C463.453113,25.609375 463.576176,25.7257256 463.697003,25.8018021 C463.817831,25.8778786 463.934181,25.9338163 464.046059,25.969617 C464.13556,26.0009426 464.242961,26.0289115 464.368263,26.0535245 C464.493566,26.0781375 464.594254,26.0926813 464.67033,26.0971564 L464.67033,26.4864871 Z M462.072555,21.8615067 C462.072555,21.4900744 461.960679,21.2081481 461.736925,21.0157193 C461.51317,20.8232905 461.184256,20.7270776 460.750173,20.7270776 L459.971511,20.7270776 L459.971511,23.2644398 L460.555507,23.2644398 C461.020916,23.2644398 461.390106,23.1413767 461.663086,22.8952469 C461.936066,22.649117 462.072555,22.3045404 462.072555,21.8615067 Z" id="®" fill="#1D1D2A"></path>
                <path d="M157.883641,116.816 L150.286164,116.816 L150.286164,115.95568 C150.560822,115.947602 150.914236,115.919329 151.346418,115.87086 C151.7786,115.822391 152.075468,115.753727 152.237032,115.664868 C152.487455,115.511382 152.67123,115.335685 152.788364,115.13777 C152.905497,114.939855 152.964063,114.691455 152.964063,114.392563 L152.964063,101.887625 L152.782305,101.887625 L146.917586,116.537305 L146.311727,116.537305 L140.725703,101.584695 L140.56818,101.584695 L140.56818,111.847954 C140.56818,112.841568 140.630785,113.596865 140.755996,114.113868 C140.881208,114.63087 141.073061,115.00246 141.331563,115.228649 C141.509282,115.39829 141.876833,115.559851 142.434227,115.713336 C142.99162,115.866822 143.355132,115.947602 143.524774,115.95568 L143.524774,116.816 L136.581625,116.816 L136.581625,115.95568 C136.945142,115.923367 137.32683,115.862782 137.726699,115.773922 C138.126568,115.685063 138.435554,115.551775 138.653664,115.374055 C138.9364,115.147866 139.130273,114.800511 139.235289,114.331977 C139.340305,113.863443 139.392813,113.079873 139.392813,111.981243 L139.392813,103.184164 C139.392813,102.67524 139.332227,102.259221 139.211055,101.936094 C139.089882,101.612967 138.916204,101.350431 138.690016,101.148477 C138.439593,100.930366 138.132627,100.768805 137.769109,100.663789 C137.405592,100.558773 137.046119,100.498188 136.69068,100.482031 L136.69068,99.6217111 L142.555399,99.6217111 L147.474977,112.514399 L151.679641,101.730102 C151.833126,101.334272 151.964394,100.920272 152.07345,100.48809 C152.182505,100.055908 152.241071,99.7671181 152.249149,99.6217111 L157.859407,99.6217111 L157.859407,100.482031 C157.633218,100.49011 157.344428,100.526461 156.993028,100.591086 C156.641628,100.655711 156.38515,100.716297 156.223586,100.772844 C155.948929,100.869782 155.763134,101.031343 155.666196,101.257531 C155.569258,101.48372 155.520789,101.7301 155.520789,101.99668 L155.520789,114.392563 C155.520789,114.675299 155.569258,114.913601 155.666196,115.107477 C155.763134,115.301353 155.948929,115.470992 156.223586,115.616399 C156.368993,115.697181 156.627491,115.771902 156.999086,115.840567 C157.370682,115.909231 157.665531,115.947602 157.883641,115.95568 L157.883641,116.816 Z M171.941194,110.721055 C171.941194,111.561184 171.807907,112.387164 171.541327,113.19902 C171.274748,114.010876 170.89508,114.699529 170.402311,115.265 C169.844918,115.911254 169.198674,116.391897 168.463561,116.706946 C167.728448,117.021994 166.904488,117.179516 165.991655,117.179516 C165.232308,117.179516 164.509323,117.036131 163.822679,116.749356 C163.136034,116.462581 162.526142,116.044542 161.992983,115.495227 C161.467902,114.95399 161.049864,114.29361 160.738854,113.514067 C160.427845,112.734524 160.272343,111.860076 160.272343,110.890696 C160.272343,109.024639 160.815591,107.497889 161.902104,106.310399 C162.988618,105.122908 164.412373,104.529172 166.173413,104.529172 C167.845593,104.529172 169.224919,105.092616 170.311433,106.21952 C171.397946,107.346424 171.941194,108.846921 171.941194,110.721055 Z M169.432936,110.745289 C169.432936,110.139427 169.372351,109.499242 169.251179,108.824715 C169.130006,108.150188 168.94825,107.578667 168.705905,107.110133 C168.447404,106.609287 168.108126,106.207404 167.688061,105.904473 C167.267997,105.601542 166.755041,105.450078 166.149179,105.450078 C165.52716,105.450078 164.996028,105.603561 164.555768,105.910532 C164.115508,106.217502 163.758055,106.63756 163.483397,107.170719 C163.224896,107.663487 163.04314,108.224911 162.938124,108.855008 C162.833108,109.485105 162.7806,110.094997 162.7806,110.684703 C162.7806,111.460207 162.843205,112.177134 162.968417,112.835504 C163.093628,113.493875 163.29356,114.081553 163.568218,114.598555 C163.842875,115.115558 164.188212,115.521479 164.604237,115.816332 C165.020263,116.111186 165.535238,116.25861 166.149179,116.25861 C167.158949,116.25861 167.958676,115.769888 168.548382,114.79243 C169.138088,113.814972 169.432936,112.465939 169.432936,110.745289 Z M179.685693,116.816 L173.857325,116.816 L173.857325,116.016266 C174.043123,116.00011 174.241035,115.981934 174.451068,115.961739 C174.6611,115.941543 174.834778,115.911251 174.972107,115.87086 C175.198295,115.798156 175.367934,115.670927 175.481029,115.489168 C175.594123,115.30741 175.650669,115.071127 175.650669,114.780313 L175.650669,100.942485 C175.650669,100.651671 175.588064,100.379037 175.462853,100.124574 C175.337641,99.8701122 175.174061,99.6701806 174.972107,99.5247736 C174.8267,99.4278356 174.560124,99.3389771 174.172372,99.2581955 C173.78462,99.1774138 173.473616,99.1289455 173.239349,99.1127892 L173.239349,98.3372892 L177.734825,98.0585939 L177.904466,98.2403517 L177.904466,114.634907 C177.904466,114.917642 177.956973,115.149886 178.06199,115.331645 C178.167006,115.513404 178.336645,115.65275 178.570911,115.749688 C178.748631,115.83047 178.924329,115.891055 179.098009,115.931446 C179.27169,115.971837 179.467582,116.00011 179.685693,116.016266 L179.685693,116.816 Z M194.688387,116.597891 L190.520074,116.864469 L190.338316,116.694829 L190.338316,115.580047 L190.241379,115.555813 C189.821314,116.024347 189.3023,116.408054 188.68432,116.706946 C188.06634,117.005838 187.430194,117.155282 186.775863,117.155282 C186.097297,117.155282 185.440956,117.003818 184.80682,116.700887 C184.172684,116.397956 183.621357,115.971839 183.152824,115.422524 C182.676212,114.86513 182.298564,114.194653 182.019867,113.411071 C181.74117,112.627489 181.601824,111.763138 181.601824,110.817993 C181.601824,109.953629 181.751268,109.133707 182.05016,108.358203 C182.349052,107.5827 182.761032,106.904144 183.286113,106.322516 C183.778881,105.781279 184.382715,105.349103 185.097633,105.025977 C185.81255,104.70285 186.541594,104.541289 187.284785,104.541289 C187.842178,104.541289 188.389466,104.611972 188.926664,104.75334 C189.463862,104.894708 189.92633,105.074444 190.314082,105.292555 L190.314082,101.13636 C190.314082,100.797077 190.257536,100.488091 190.144441,100.209395 C190.031347,99.930698 189.873825,99.7186493 189.671871,99.5732423 C189.445682,99.4197572 189.140736,99.3086841 188.757023,99.2400197 C188.37331,99.1713553 187.959311,99.1208675 187.515011,99.0885548 L187.515011,98.3372892 L192.398238,98.0585939 L192.579996,98.2403517 L192.579996,114.356211 C192.579996,114.638947 192.634523,114.879269 192.743578,115.077184 C192.852633,115.275099 193.012175,115.442719 193.222207,115.580047 C193.375692,115.676985 193.597838,115.737571 193.888652,115.761805 C194.179466,115.78604 194.446042,115.802196 194.688387,115.810274 L194.688387,116.597891 Z M190.314082,114.501618 L190.314082,107.51 C190.249457,107.299968 190.144442,107.073783 189.999035,106.831438 C189.853628,106.589093 189.671872,106.366947 189.453762,106.164992 C189.219495,105.963038 188.944841,105.795419 188.629793,105.662129 C188.314744,105.528839 187.947193,105.462196 187.527129,105.462196 C187.042439,105.462196 186.596127,105.587405 186.188179,105.837828 C185.780232,106.088252 185.41874,106.447724 185.103691,106.916258 C184.804799,107.368635 184.568516,107.944196 184.394836,108.642957 C184.221155,109.341719 184.134316,110.115191 184.134316,110.963399 C184.134316,111.641965 184.19894,112.257916 184.328191,112.81127 C184.457442,113.364624 184.675549,113.8796 184.982519,114.356211 C185.265255,114.808589 185.626748,115.172101 186.067008,115.446758 C186.507268,115.721416 187.030321,115.858743 187.636183,115.858743 C188.282437,115.858743 188.817607,115.717377 189.241711,115.434641 C189.665814,115.151905 190.023268,114.840901 190.314082,114.501618 Z M207.58269,116.597891 C207.203016,116.73522 206.869797,116.846293 206.583022,116.931114 C206.296247,117.015934 205.971106,117.058344 205.607588,117.058344 C204.977491,117.058344 204.474633,116.91092 204.098998,116.616067 C203.723364,116.321214 203.483042,115.891058 203.378026,115.325586 L203.305323,115.325586 C202.780242,115.907214 202.216798,116.351507 201.614975,116.658477 C201.013152,116.965447 200.288147,117.11893 199.43994,117.11893 C198.543263,117.11893 197.806142,116.844277 197.228553,116.294961 C196.650964,115.745646 196.362174,115.0267 196.362174,114.138102 C196.362174,113.677647 196.426798,113.265666 196.556049,112.902149 C196.6853,112.538631 196.879173,112.211471 197.137674,111.920657 C197.339628,111.678312 197.606204,111.462224 197.937408,111.272387 C198.268613,111.08255 198.579618,110.931087 198.870432,110.817993 C199.233949,110.680664 199.971071,110.426205 201.081819,110.05461 C202.192566,109.683014 202.941805,109.392205 203.329557,109.182172 L203.329557,107.982571 C203.329557,107.877554 203.307342,107.675603 203.262912,107.376711 C203.218482,107.077819 203.123565,106.795088 202.978158,106.528508 C202.816595,106.229616 202.58839,105.969099 202.293537,105.746949 C201.998684,105.5248 201.580646,105.413727 201.039408,105.413727 C200.667813,105.413727 200.322476,105.476332 200.003389,105.601543 C199.684301,105.726755 199.460136,105.858023 199.330885,105.995352 C199.330885,106.156915 199.369256,106.395217 199.445998,106.710266 C199.522741,107.025314 199.561112,107.316124 199.561112,107.582703 C199.561112,107.865439 199.433882,108.123937 199.17942,108.358203 C198.924958,108.59247 198.571543,108.709602 198.119166,108.709602 C197.715258,108.709602 197.41839,108.566217 197.228553,108.279442 C197.038716,107.992667 196.943799,107.671565 196.943799,107.316125 C196.943799,106.94453 197.075067,106.589096 197.337608,106.249813 C197.600148,105.91053 197.941445,105.607603 198.36151,105.341024 C198.725027,105.114835 199.165281,104.922982 199.682283,104.765457 C200.199286,104.607933 200.704164,104.529172 201.196932,104.529172 C201.875498,104.529172 202.467215,104.575621 202.9721,104.66852 C203.476985,104.761419 203.935414,104.96135 204.347401,105.268321 C204.759387,105.567213 205.072411,105.973134 205.286483,106.486098 C205.500554,106.999061 205.607588,107.659442 205.607588,108.467258 C205.607588,109.622436 205.595471,110.646328 205.571237,111.538965 C205.547002,112.431603 205.534885,113.407026 205.534885,114.465266 C205.534885,114.780315 205.589412,115.030734 205.698467,115.216532 C205.807522,115.40233 205.975142,115.559851 206.20133,115.689102 C206.322503,115.761806 206.514356,115.802196 206.776897,115.810274 C207.039437,115.818352 207.308032,115.822391 207.58269,115.822391 L207.58269,116.597891 Z M203.353791,110.200016 C202.667147,110.40197 202.065333,110.599882 201.54833,110.793758 C201.031328,110.987634 200.550684,111.229975 200.106385,111.520789 C199.702477,111.795447 199.383394,112.120588 199.149127,112.496223 C198.91486,112.871858 198.797729,113.31817 198.797729,113.835172 C198.797729,114.50566 198.973426,114.998421 199.324826,115.313469 C199.676227,115.628518 200.122539,115.78604 200.663776,115.78604 C201.237325,115.78604 201.742203,115.646693 202.178424,115.367997 C202.614645,115.0893 202.982196,114.76012 203.281088,114.380446 L203.353791,110.200016 Z M221.313079,110.83011 C221.313079,112.623462 220.747616,114.130018 219.616673,115.349821 C218.48573,116.569624 217.173047,117.179516 215.678587,117.179516 C215.024255,117.179516 214.380031,117.078541 213.745895,116.876586 C213.111759,116.674632 212.516003,116.404018 211.95861,116.064735 L211.061938,117.458211 L210.310673,117.288571 C210.351063,116.690787 210.379337,115.971841 210.395493,115.131711 C210.411649,114.291582 210.419727,113.479739 210.419727,112.696157 L210.419727,100.869781 C210.419727,100.595124 210.357122,100.32047 210.231911,100.045813 C210.106699,99.771155 209.947158,99.5732429 209.753282,99.4520705 C209.599797,99.3470543 209.343319,99.2682934 208.98384,99.2157853 C208.624362,99.1632772 208.335572,99.1289455 208.117462,99.1127892 L208.117462,98.3372892 L212.503884,98.0585939 L212.673524,98.2403517 L212.673524,106.116524 L212.758344,106.140758 C213.259191,105.607599 213.806478,105.207736 214.400223,104.941156 C214.993969,104.674577 215.577607,104.541289 216.151157,104.541289 C217.621383,104.541289 218.849246,105.122908 219.834782,106.286164 C220.820318,107.44942 221.313079,108.964053 221.313079,110.83011 Z M218.780587,110.91493 C218.780587,110.317146 218.715962,109.707253 218.586712,109.085235 C218.457461,108.463216 218.25551,107.921987 217.980852,107.461532 C217.706195,106.992998 217.346722,106.61333 216.902423,106.322516 C216.458124,106.031702 215.924973,105.886297 215.302954,105.886297 C214.737482,105.886297 214.242702,105.99737 213.818598,106.21952 C213.394495,106.441669 213.012807,106.742577 212.673524,107.12225 L212.673524,114.077516 C212.721993,114.271392 212.81691,114.497577 212.958278,114.756079 C213.099646,115.01458 213.2915,115.26096 213.533844,115.495227 C213.776189,115.721416 214.050843,115.905191 214.357813,116.046559 C214.664784,116.187927 215.040413,116.25861 215.484712,116.25861 C216.470248,116.25861 217.265935,115.782005 217.871798,114.828782 C218.47766,113.875558 218.780587,112.570954 218.780587,110.91493 Z M229.093929,116.816 L223.265562,116.816 L223.265562,116.016266 C223.45136,116.00011 223.649272,115.981934 223.859304,115.961739 C224.069336,115.941543 224.243014,115.911251 224.380343,115.87086 C224.606532,115.798156 224.776171,115.670927 224.889265,115.489168 C225.002359,115.30741 225.058905,115.071127 225.058905,114.780313 L225.058905,100.942485 C225.058905,100.651671 224.996301,100.379037 224.871089,100.124574 C224.745878,99.8701122 224.582297,99.6701806 224.380343,99.5247736 C224.234936,99.4278356 223.968361,99.3389771 223.580609,99.2581955 C223.192857,99.1774138 222.881852,99.1289455 222.647585,99.1127892 L222.647585,98.3372892 L227.143062,98.0585939 L227.312702,98.2403517 L227.312702,114.634907 C227.312702,114.917642 227.36521,115.149886 227.470226,115.331645 C227.575242,115.513404 227.744881,115.65275 227.979148,115.749688 C228.156867,115.83047 228.332565,115.891055 228.506245,115.931446 C228.679926,115.971837 228.875819,116.00011 229.093929,116.016266 L229.093929,116.816 Z M241.624717,114.004813 C241.12387,114.958036 240.453393,115.717373 239.613263,116.282844 C238.773134,116.848316 237.807808,117.131047 236.717256,117.131047 C235.755954,117.131047 234.913818,116.961408 234.190822,116.622125 C233.467826,116.282843 232.87207,115.822394 232.403537,115.240766 C231.935003,114.659138 231.585628,113.980582 231.3554,113.205079 C231.125172,112.429575 231.01006,111.609653 231.01006,110.745289 C231.01006,109.969786 231.13325,109.20843 231.379634,108.4612 C231.626018,107.713969 231.987511,107.041472 232.464123,106.443688 C232.924578,105.870138 233.4961,105.40767 234.178705,105.05627 C234.86131,104.70487 235.626704,104.529172 236.474912,104.529172 C237.347354,104.529172 238.094573,104.666499 238.716592,104.941156 C239.33861,105.215814 239.843488,105.591443 240.23124,106.068055 C240.602836,106.520432 240.879509,107.053583 241.061267,107.667524 C241.243026,108.281464 241.333904,108.947903 241.333904,109.66686 L241.333904,110.466594 L233.42138,110.466594 C233.42138,111.250176 233.496102,111.961044 233.645548,112.599219 C233.794995,113.237394 234.031277,113.798818 234.354404,114.283508 C234.669452,114.752042 235.081433,115.121612 235.590357,115.392231 C236.099282,115.662849 236.705135,115.798157 237.407935,115.798157 C238.126892,115.798157 238.746882,115.630537 239.267924,115.295293 C239.788965,114.96005 240.291824,114.356216 240.776513,113.483774 L241.624717,114.004813 Z M238.946818,109.44875 C238.946818,108.996373 238.908447,108.51169 238.831705,107.994688 C238.754962,107.477685 238.631772,107.04551 238.462131,106.698149 C238.276333,106.326553 238.021874,106.023626 237.698748,105.78936 C237.375621,105.555093 236.959602,105.437961 236.450677,105.437961 C235.60247,105.437961 234.897661,105.791376 234.336228,106.498215 C233.774796,107.205055 233.469849,108.188557 233.42138,109.44875 L238.946818,109.44875 Z M262.324104,108.806539 C262.82495,109.145822 263.24097,109.590115 263.572175,110.13943 C263.903379,110.688745 264.068979,111.355184 264.068979,112.138766 C264.068979,112.938504 263.895301,113.633216 263.54794,114.222922 C263.200579,114.812628 262.748209,115.297311 262.190815,115.676985 C261.649578,116.04858 261.037666,116.331312 260.355061,116.525188 C259.672456,116.719064 258.967647,116.816 258.240612,116.816 L250.097862,116.816 L250.097862,115.95568 C250.291738,115.939524 250.574469,115.905192 250.946065,115.852684 C251.317661,115.800176 251.584236,115.737571 251.745799,115.664868 C251.996222,115.551773 252.173939,115.40031 252.278956,115.210473 C252.383972,115.020636 252.436479,114.776275 252.436479,114.477383 L252.436479,102.117852 C252.436479,101.843194 252.39003,101.600853 252.297131,101.39082 C252.204232,101.180788 252.020457,101.011149 251.745799,100.881899 C251.503454,100.760726 251.23284,100.667829 250.933948,100.603203 C250.635056,100.538578 250.384636,100.498188 250.182682,100.482031 L250.182682,99.6217111 L258.11944,99.6217111 C258.733381,99.6217111 259.321058,99.6822964 259.882491,99.8034689 C260.443923,99.9246414 260.979094,100.13871 261.488018,100.44568 C261.96463,100.728416 262.356415,101.112123 262.663385,101.596813 C262.970356,102.081503 263.123839,102.6712 263.123839,103.365922 C263.123839,103.971785 263.014785,104.510994 262.796675,104.983567 C262.578564,105.456139 262.271598,105.862061 261.875768,106.201344 C261.504173,106.524471 261.078056,106.797105 260.597405,107.019254 C260.116754,107.241404 259.59774,107.413062 259.040346,107.534235 L259.040346,107.643289 C259.533114,107.699837 260.084441,107.823027 260.694342,108.012864 C261.304244,108.2027 261.847492,108.467256 262.324104,108.806539 Z M259.403862,106.213461 C259.702754,105.8661 259.910764,105.486432 260.027897,105.074446 C260.145031,104.662459 260.203596,104.173737 260.203596,103.608266 C260.203596,102.66312 259.945099,101.92196 259.428096,101.384762 C258.911094,100.847564 258.095211,100.578969 256.980424,100.578969 C256.721923,100.578969 256.396782,100.585027 256.004991,100.597145 C255.6132,100.609262 255.284019,100.619359 255.01744,100.627438 L255.01744,107.231305 L256.556323,107.231305 C257.218732,107.231305 257.786215,107.146486 258.258788,106.976844 C258.73136,106.807203 259.113048,106.552744 259.403862,106.213461 Z M261.076034,111.702547 C261.076034,110.684698 260.734736,109.848621 260.052131,109.194289 C259.369526,108.539958 258.394103,108.212797 257.125831,108.212797 C256.608828,108.212797 256.172614,108.218856 255.817174,108.230973 C255.461735,108.24309 255.19516,108.253188 255.01744,108.261266 L255.01744,114.31986 C255.01744,114.828784 255.22343,115.212491 255.635417,115.470993 C256.047403,115.729494 256.620944,115.858743 257.356057,115.858743 C258.559704,115.858743 259.480601,115.507348 260.118776,114.804547 C260.756951,114.101747 261.076034,113.067757 261.076034,111.702547 Z M278.102298,110.721055 C278.102298,111.561184 277.96901,112.387164 277.702431,113.19902 C277.435851,114.010876 277.056183,114.699529 276.563415,115.265 C276.006022,115.911254 275.359778,116.391897 274.624665,116.706946 C273.889552,117.021994 273.065592,117.179516 272.152759,117.179516 C271.393411,117.179516 270.670426,117.036131 269.983782,116.749356 C269.297138,116.462581 268.687246,116.044542 268.154087,115.495227 C267.629006,114.95399 267.210967,114.29361 266.899958,113.514067 C266.588949,112.734524 266.433446,111.860076 266.433446,110.890696 C266.433446,109.024639 266.976695,107.497889 268.063208,106.310399 C269.149721,105.122908 270.573477,104.529172 272.334517,104.529172 C274.006697,104.529172 275.386023,105.092616 276.472536,106.21952 C277.55905,107.346424 278.102298,108.846921 278.102298,110.721055 Z M275.59404,110.745289 C275.59404,110.139427 275.533455,109.499242 275.412282,108.824715 C275.29111,108.150188 275.109354,107.578667 274.867009,107.110133 C274.608508,106.609287 274.26923,106.207404 273.849165,105.904473 C273.429101,105.601542 272.916145,105.450078 272.310282,105.450078 C271.688264,105.450078 271.157132,105.603561 270.716872,105.910532 C270.276612,106.217502 269.919159,106.63756 269.644501,107.170719 C269.386,107.663487 269.204244,108.224911 269.099228,108.855008 C268.994211,109.485105 268.941704,110.094997 268.941704,110.684703 C268.941704,111.460207 269.004309,112.177134 269.129521,112.835504 C269.254732,113.493875 269.454664,114.081553 269.729321,114.598555 C270.003979,115.115558 270.349315,115.521479 270.765341,115.816332 C271.181366,116.111186 271.696342,116.25861 272.310282,116.25861 C273.320053,116.25861 274.119779,115.769888 274.709486,114.79243 C275.299192,113.814972 275.59404,112.465939 275.59404,110.745289 Z M293.444273,116.816 L287.591672,116.816 L287.591672,116.016266 C287.777469,116.00011 287.98144,115.983954 288.20359,115.967797 C288.425739,115.951641 288.609515,115.919329 288.754922,115.87086 C288.98111,115.798156 289.14873,115.670927 289.257785,115.489168 C289.36684,115.30741 289.421367,115.071127 289.421367,114.780313 L289.421367,108.636899 C289.421367,107.788691 289.221435,107.13437 288.821566,106.673914 C288.421697,106.213459 287.934995,105.983235 287.361445,105.983235 C286.933302,105.983235 286.541517,106.049879 286.186078,106.183168 C285.830638,106.316458 285.515595,106.480038 285.240937,106.673914 C284.974358,106.859712 284.762309,107.059644 284.604785,107.273715 C284.447261,107.487787 284.332148,107.659445 284.259445,107.788696 L284.259445,114.659141 C284.259445,114.933799 284.315991,115.159984 284.429086,115.337704 C284.54218,115.515423 284.711819,115.65275 284.938007,115.749688 C285.107649,115.83047 285.291424,115.891055 285.489339,115.931446 C285.687255,115.971837 285.891225,116.00011 286.101257,116.016266 L286.101257,116.816 L280.248656,116.816 L280.248656,116.016266 C280.434454,116.00011 280.626307,115.983954 280.824222,115.967797 C281.022137,115.951641 281.193796,115.919329 281.339203,115.87086 C281.565391,115.798156 281.733011,115.670927 281.842066,115.489168 C281.951121,115.30741 282.005648,115.071127 282.005648,114.780313 L282.005648,107.400946 C282.005648,107.126288 281.947082,106.873849 281.829949,106.643621 C281.712815,106.413394 281.549235,106.225579 281.339203,106.080172 C281.185718,105.983234 281.003962,105.912551 280.793929,105.868121 C280.583897,105.823691 280.357712,105.793399 280.115367,105.777242 L280.115367,104.989625 L284.089804,104.723047 L284.259445,104.892688 L284.259445,106.576977 L284.320031,106.576977 C284.513907,106.383101 284.756248,106.150857 285.047062,105.880239 C285.337876,105.60962 285.61253,105.389493 285.871031,105.219852 C286.169923,105.025976 286.525357,104.864415 286.937343,104.735164 C287.34933,104.605914 287.813817,104.541289 288.33082,104.541289 C289.47792,104.541289 290.328134,104.898743 290.881488,105.61366 C291.434842,106.328578 291.711515,107.279768 291.711515,108.467258 L291.711515,114.683375 C291.711515,114.966111 291.759984,115.194316 291.856922,115.367997 C291.95386,115.541677 292.11946,115.676984 292.353726,115.773922 C292.547602,115.854704 292.715222,115.91125 292.85659,115.943563 C292.997958,115.975876 293.19385,116.00011 293.444273,116.016266 L293.444273,116.816 Z M305.938709,114.004813 C305.437863,114.958036 304.767385,115.717373 303.927256,116.282844 C303.087127,116.848316 302.121801,117.131047 301.031248,117.131047 C300.069947,117.131047 299.22781,116.961408 298.504815,116.622125 C297.781819,116.282843 297.186063,115.822394 296.717529,115.240766 C296.248996,114.659138 295.89962,113.980582 295.669393,113.205079 C295.439165,112.429575 295.324053,111.609653 295.324053,110.745289 C295.324053,109.969786 295.447243,109.20843 295.693627,108.4612 C295.940011,107.713969 296.301504,107.041472 296.778115,106.443688 C297.238571,105.870138 297.810092,105.40767 298.492697,105.05627 C299.175302,104.70487 299.940697,104.529172 300.788904,104.529172 C301.661346,104.529172 302.408565,104.666499 303.030584,104.941156 C303.652603,105.215814 304.157481,105.591443 304.545233,106.068055 C304.916828,106.520432 305.193501,107.053583 305.37526,107.667524 C305.557019,108.281464 305.647897,108.947903 305.647897,109.66686 L305.647897,110.466594 L297.735373,110.466594 C297.735373,111.250176 297.810095,111.961044 297.959541,112.599219 C298.108987,113.237394 298.34527,113.798818 298.668397,114.283508 C298.983445,114.752042 299.395425,115.121612 299.90435,115.392231 C300.413274,115.662849 301.019128,115.798157 301.721928,115.798157 C302.440885,115.798157 303.060875,115.630537 303.581916,115.295293 C304.102958,114.96005 304.605816,114.356216 305.090506,113.483774 L305.938709,114.004813 Z M303.260811,109.44875 C303.260811,108.996373 303.22244,108.51169 303.145697,107.994688 C303.068955,107.477685 302.945765,107.04551 302.776123,106.698149 C302.590325,106.326553 302.335867,106.023626 302.01274,105.78936 C301.689614,105.555093 301.273595,105.437961 300.76467,105.437961 C299.916463,105.437961 299.211653,105.791376 298.650221,106.498215 C298.088788,107.205055 297.783842,108.188557 297.735373,109.44875 L303.260811,109.44875 Z M325.147683,108.927711 C325.5112,109.33162 325.779795,109.773892 325.953476,110.254543 C326.127156,110.735194 326.213995,111.294599 326.213995,111.932774 C326.213995,113.451469 325.652571,114.703566 324.529706,115.689102 C323.406841,116.674638 322.013379,117.167399 320.349276,117.167399 C319.581851,117.167399 318.814436,117.048248 318.047011,116.809942 C317.279585,116.571636 316.617185,116.282846 316.059792,115.943563 L315.538753,116.828118 L314.569378,116.828118 L314.399737,110.939164 L315.381229,110.939164 C315.583184,111.666199 315.819466,112.32254 316.090085,112.908207 C316.360703,113.493874 316.718157,114.041162 317.162456,114.550086 C317.582521,115.026698 318.073262,115.406366 318.634694,115.689102 C319.196127,115.971838 319.848429,116.113204 320.59162,116.113204 C321.149014,116.113204 321.635716,116.040501 322.051741,115.895094 C322.467767,115.749687 322.805025,115.543697 323.063526,115.277118 C323.322028,115.010538 323.513881,114.697514 323.639093,114.338036 C323.764304,113.978557 323.826909,113.564557 323.826909,113.096024 C323.826909,112.40938 323.633036,111.769195 323.245284,111.17545 C322.857532,110.581704 322.279952,110.131353 321.512526,109.824383 C320.987446,109.614351 320.385631,109.382107 319.707065,109.127645 C319.0285,108.873183 318.442841,108.632861 317.950073,108.406672 C316.980693,107.970451 316.227416,107.39893 315.690218,106.69209 C315.15302,105.985251 314.884425,105.062334 314.884425,103.923313 C314.884425,103.268981 315.017712,102.659089 315.284292,102.093617 C315.550871,101.528146 315.930539,101.023268 316.423308,100.578969 C316.891841,100.158904 317.445187,99.829724 318.083362,99.5914181 C318.721537,99.3531122 319.387976,99.2339611 320.082698,99.2339611 C320.874359,99.2339611 321.583207,99.3551317 322.209265,99.5974767 C322.835323,99.8398217 323.406844,100.122553 323.923847,100.44568 L324.420651,99.6217111 L325.390027,99.6217111 L325.486964,105.328907 L324.505472,105.328907 C324.327752,104.674575 324.127821,104.048527 323.905671,103.450742 C323.683521,102.852958 323.394731,102.311729 323.039292,101.827039 C322.691931,101.358506 322.267834,100.984896 321.766987,100.706199 C321.266141,100.427503 320.65221,100.288156 319.925175,100.288156 C319.157749,100.288156 318.503428,100.534537 317.96219,101.027305 C317.420953,101.520073 317.150339,102.121887 317.150339,102.832766 C317.150339,103.575957 317.324017,104.191908 317.671378,104.680637 C318.018739,105.169366 318.523617,105.571249 319.186026,105.886297 C319.775732,106.169033 320.355332,106.413394 320.924843,106.619387 C321.494353,106.82538 322.04568,107.045507 322.578839,107.279774 C323.063529,107.489806 323.530036,107.728108 323.978374,107.994688 C324.426712,108.261267 324.816478,108.572272 325.147683,108.927711 Z M341.277275,116.597891 L337.387658,116.864469 L337.2059,116.694829 L337.2059,115.18018 L337.133197,115.18018 C336.939321,115.382134 336.721214,115.598222 336.478869,115.82845 C336.236524,116.058677 335.957831,116.266687 335.642783,116.452485 C335.279265,116.670595 334.92787,116.836195 334.588587,116.94929 C334.249305,117.062384 333.768661,117.11893 333.146642,117.11893 C332.088402,117.11893 331.282618,116.773594 330.729263,116.082911 C330.175909,115.392227 329.899236,114.38853 329.899236,113.071789 L329.899236,107.352477 C329.899236,107.061663 329.844709,106.817302 329.735654,106.619387 C329.626599,106.421472 329.467057,106.249813 329.257025,106.104407 C329.111618,106.007469 328.929862,105.936786 328.711751,105.892356 C328.493641,105.847926 328.263417,105.817633 328.021072,105.801477 L328.021072,105.01386 L332.007626,104.723047 L332.189384,104.892688 L332.189384,113.192961 C332.189384,114.057325 332.383257,114.707608 332.771009,115.143829 C333.158761,115.58005 333.623249,115.798157 334.164486,115.798157 C334.608785,115.798157 335.004609,115.729493 335.35197,115.592165 C335.699331,115.454836 335.990141,115.293275 336.224408,115.107477 C336.442518,114.937836 336.634372,114.758099 336.799974,114.568262 C336.965577,114.378425 337.092806,114.202728 337.181666,114.041164 L337.181666,107.267657 C337.181666,107.001077 337.125119,106.764794 337.012025,106.558801 C336.898931,106.352808 336.741409,106.17711 336.539455,106.031703 C336.394048,105.934765 336.17796,105.8762 335.891185,105.856004 C335.60441,105.835809 335.283308,105.817633 334.927869,105.801477 L334.927869,105.01386 L339.265822,104.723047 L339.44758,104.892688 L339.44758,114.380446 C339.44758,114.655103 339.504126,114.889367 339.61722,115.083243 C339.730315,115.277119 339.887837,115.442719 340.089791,115.580047 C340.235198,115.668907 340.408876,115.727473 340.61083,115.755747 C340.812784,115.78402 341.03493,115.802196 341.277275,115.810274 L341.277275,116.597891 Z M355.28636,110.83011 C355.28636,112.623462 354.720896,114.130018 353.589953,115.349821 C352.45901,116.569624 351.146328,117.179516 349.651867,117.179516 C348.997536,117.179516 348.353312,117.078541 347.719176,116.876586 C347.08504,116.674632 346.489284,116.404018 345.931891,116.064735 L345.035219,117.458211 L344.283953,117.288571 C344.324344,116.690787 344.352617,115.971841 344.368773,115.131711 C344.38493,114.291582 344.393008,113.479739 344.393008,112.696157 L344.393008,100.869781 C344.393008,100.595124 344.330403,100.32047 344.205191,100.045813 C344.07998,99.771155 343.920438,99.5732429 343.726562,99.4520705 C343.573077,99.3470543 343.316599,99.2682934 342.957121,99.2157853 C342.597643,99.1632772 342.308853,99.1289455 342.090742,99.1127892 L342.090742,98.3372892 L346.477164,98.0585939 L346.646805,98.2403517 L346.646805,106.116524 L346.731625,106.140758 C347.232471,105.607599 347.779759,105.207736 348.373504,104.941156 C348.967249,104.674577 349.550888,104.541289 350.124438,104.541289 C351.594664,104.541289 352.822526,105.122908 353.808063,106.286164 C354.793599,107.44942 355.28636,108.964053 355.28636,110.83011 Z M352.753867,110.91493 C352.753867,110.317146 352.689243,109.707253 352.559992,109.085235 C352.430742,108.463216 352.228791,107.921987 351.954133,107.461532 C351.679475,106.992998 351.320002,106.61333 350.875703,106.322516 C350.431404,106.031702 349.898253,105.886297 349.276234,105.886297 C348.710763,105.886297 348.215983,105.99737 347.791879,106.21952 C347.367775,106.441669 346.986088,106.742577 346.646805,107.12225 L346.646805,114.077516 C346.695274,114.271392 346.790191,114.497577 346.931559,114.756079 C347.072927,115.01458 347.26478,115.26096 347.507125,115.495227 C347.74947,115.721416 348.024124,115.905191 348.331094,116.046559 C348.638064,116.187927 349.013693,116.25861 349.457992,116.25861 C350.443528,116.25861 351.239216,115.782005 351.845078,114.828782 C352.450941,113.875558 352.753867,112.570954 352.753867,110.91493 Z M365.357358,110.963399 C365.688563,111.254213 365.943021,111.589452 366.120741,111.969125 C366.298461,112.348799 366.387319,112.813287 366.387319,113.362602 C366.387319,114.469311 365.973319,115.374052 365.145307,116.076852 C364.317295,116.779652 363.244935,117.131047 361.928194,117.131047 C361.233472,117.131047 360.593287,117.005838 360.00762,116.755415 C359.421953,116.504991 359.003914,116.274767 358.753491,116.064735 L358.511147,116.852352 L357.602358,116.852352 L357.481186,112.696157 L358.317272,112.696157 C358.381897,113.011205 358.519224,113.378756 358.729256,113.798821 C358.939289,114.218885 359.193747,114.598553 359.492639,114.937836 C359.807688,115.293276 360.185336,115.592163 360.625596,115.834508 C361.065856,116.076853 361.560636,116.198024 362.109952,116.198024 C362.885456,116.198024 363.483231,116.022326 363.903296,115.670926 C364.32336,115.319526 364.533389,114.816668 364.533389,114.162336 C364.533389,113.823053 364.466745,113.530224 364.333456,113.28384 C364.200166,113.037456 364.004273,112.821369 363.745772,112.635571 C363.479193,112.449773 363.152032,112.282153 362.76428,112.132707 C362.376528,111.983261 361.944353,111.835837 361.467741,111.69043 C361.088067,111.577336 360.665989,111.421833 360.201495,111.223918 C359.737,111.026003 359.339156,110.79376 359.007952,110.52718 C358.652512,110.244444 358.361703,109.897088 358.135514,109.485102 C357.909326,109.073115 357.796233,108.588433 357.796233,108.031039 C357.796233,107.053581 358.159745,106.225582 358.88678,105.547016 C359.613815,104.86845 360.587219,104.529172 361.807022,104.529172 C362.275556,104.529172 362.75418,104.589757 363.242909,104.71093 C363.731638,104.832102 364.129482,104.977507 364.436452,105.147149 L364.715147,104.517055 L365.587585,104.517055 L365.769342,108.358203 L364.933256,108.358203 C364.763615,107.501918 364.398084,106.805187 363.836651,106.267989 C363.275219,105.730791 362.590604,105.462196 361.782788,105.462196 C361.120378,105.462196 360.599344,105.627795 360.21967,105.959 C359.839997,106.290205 359.650163,106.690068 359.650163,107.158602 C359.650163,107.522119 359.712767,107.825046 359.837979,108.067391 C359.963191,108.309736 360.151005,108.515726 360.401428,108.685368 C360.643773,108.846931 360.948719,108.998394 361.316276,109.139762 C361.683832,109.28113 362.138222,109.440671 362.67946,109.618391 C363.212619,109.788032 363.715477,109.985945 364.188049,110.212133 C364.660622,110.438322 365.050388,110.688741 365.357358,110.963399 Z M375.985747,116.294961 C375.460666,116.513072 374.963867,116.696847 374.495333,116.846293 C374.026799,116.99574 373.453258,117.070461 372.774692,117.070461 C371.773,117.070461 371.068191,116.818023 370.660243,116.313137 C370.252296,115.808252 370.048325,115.095364 370.048325,114.174454 L370.048325,106.080172 L367.891466,106.080172 L367.891466,104.916922 L370.096794,104.916922 L370.096794,101.196945 L372.302122,101.196945 L372.302122,104.916922 L375.731286,104.916922 L375.731286,106.080172 L372.326356,106.080172 L372.326356,112.756743 C372.326356,113.257589 372.344532,113.675628 372.380884,114.010872 C372.417236,114.346115 372.504075,114.638944 372.641403,114.889368 C372.770654,115.123634 372.964527,115.301351 373.223028,115.422524 C373.48153,115.543696 373.828886,115.604282 374.265107,115.604282 C374.467061,115.604282 374.763929,115.586106 375.15572,115.549754 C375.547511,115.513403 375.824184,115.466954 375.985747,115.410407 L375.985747,116.294961 Z M383.390964,116.816 L377.611066,116.816 L377.611066,116.016266 C377.796864,116.00011 377.988717,115.983954 378.186632,115.967797 C378.384547,115.951641 378.556206,115.919329 378.701613,115.87086 C378.927801,115.798156 379.095421,115.670927 379.204476,115.489168 C379.313531,115.30741 379.368058,115.071127 379.368058,114.780313 L379.368058,107.400946 C379.368058,107.142444 379.309492,106.906162 379.192359,106.69209 C379.075225,106.478019 378.911645,106.298282 378.701613,106.152875 C378.548128,106.055937 378.325981,105.973137 378.035167,105.904473 C377.744353,105.835809 377.477778,105.793399 377.235433,105.777242 L377.235433,104.989625 L381.452214,104.723047 L381.621855,104.892688 L381.621855,114.634907 C381.621855,114.917642 381.676382,115.151906 381.785437,115.337704 C381.894492,115.523501 382.066151,115.660828 382.300417,115.749688 C382.478137,115.822391 382.651815,115.880957 382.821457,115.925387 C382.991098,115.969817 383.180932,116.00011 383.390964,116.016266 L383.390964,116.816 Z M381.864199,100.009461 C381.864199,100.469917 381.712735,100.871799 381.409804,101.215121 C381.106873,101.558443 380.733263,101.730102 380.288964,101.730102 C379.876978,101.730102 379.519524,101.566521 379.216593,101.239356 C378.913662,100.91219 378.762199,100.53858 378.762199,100.118516 C378.762199,99.6742167 378.913662,99.2864705 379.216593,98.9552658 C379.519524,98.624061 379.876978,98.4584611 380.288964,98.4584611 C380.74942,98.4584611 381.127068,98.6139634 381.421921,98.9249728 C381.716774,99.2359822 381.864199,99.5974746 381.864199,100.009461 Z M392.650111,116.294961 C392.125031,116.513072 391.628231,116.696847 391.159697,116.846293 C390.691164,116.99574 390.117622,117.070461 389.439057,117.070461 C388.437364,117.070461 387.732555,116.818023 387.324607,116.313137 C386.91666,115.808252 386.712689,115.095364 386.712689,114.174454 L386.712689,106.080172 L384.55583,106.080172 L384.55583,104.916922 L386.761158,104.916922 L386.761158,101.196945 L388.966486,101.196945 L388.966486,104.916922 L392.39565,104.916922 L392.39565,106.080172 L388.990721,106.080172 L388.990721,112.756743 C388.990721,113.257589 389.008896,113.675628 389.045248,114.010872 C389.0816,114.346115 389.168439,114.638944 389.305767,114.889368 C389.435018,115.123634 389.628891,115.301351 389.887392,115.422524 C390.145894,115.543696 390.49325,115.604282 390.929471,115.604282 C391.131425,115.604282 391.428293,115.586106 391.820084,115.549754 C392.211875,115.513403 392.488548,115.466954 392.650111,115.410407 L392.650111,116.294961 Z M407.059063,116.597891 L403.169446,116.864469 L402.987688,116.694829 L402.987688,115.18018 L402.914985,115.18018 C402.721109,115.382134 402.503002,115.598222 402.260657,115.82845 C402.018312,116.058677 401.739619,116.266687 401.424571,116.452485 C401.061053,116.670595 400.709658,116.836195 400.370375,116.94929 C400.031092,117.062384 399.550449,117.11893 398.92843,117.11893 C397.87019,117.11893 397.064405,116.773594 396.511051,116.082911 C395.957697,115.392227 395.681024,114.38853 395.681024,113.071789 L395.681024,107.352477 C395.681024,107.061663 395.626497,106.817302 395.517442,106.619387 C395.408386,106.421472 395.248845,106.249813 395.038813,106.104407 C394.893406,106.007469 394.71165,105.936786 394.493539,105.892356 C394.275429,105.847926 394.045205,105.817633 393.80286,105.801477 L393.80286,105.01386 L397.789414,104.723047 L397.971172,104.892688 L397.971172,113.192961 C397.971172,114.057325 398.165045,114.707608 398.552797,115.143829 C398.940549,115.58005 399.405037,115.798157 399.946274,115.798157 C400.390573,115.798157 400.786397,115.729493 401.133758,115.592165 C401.481119,115.454836 401.771929,115.293275 402.006196,115.107477 C402.224306,114.937836 402.41616,114.758099 402.581762,114.568262 C402.747364,114.378425 402.874594,114.202728 402.963453,114.041164 L402.963453,107.267657 C402.963453,107.001077 402.906907,106.764794 402.793813,106.558801 C402.680719,106.352808 402.523197,106.17711 402.321243,106.031703 C402.175836,105.934765 401.959748,105.8762 401.672973,105.856004 C401.386198,105.835809 401.065096,105.817633 400.709657,105.801477 L400.709657,105.01386 L405.04761,104.723047 L405.229368,104.892688 L405.229368,114.380446 C405.229368,114.655103 405.285914,114.889367 405.399008,115.083243 C405.512103,115.277119 405.669624,115.442719 405.871579,115.580047 C406.016986,115.668907 406.190663,115.727473 406.392618,115.755747 C406.594572,115.78402 406.816718,115.802196 407.059063,115.810274 L407.059063,116.597891 Z M419.553499,114.004813 C419.052653,114.958036 418.382175,115.717373 417.542046,116.282844 C416.701917,116.848316 415.73659,117.131047 414.646038,117.131047 C413.684736,117.131047 412.8426,116.961408 412.119604,116.622125 C411.396608,116.282843 410.800853,115.822394 410.332319,115.240766 C409.863786,114.659138 409.51441,113.980582 409.284182,113.205079 C409.053955,112.429575 408.938843,111.609653 408.938843,110.745289 C408.938843,109.969786 409.062033,109.20843 409.308417,108.4612 C409.554801,107.713969 409.916293,107.041472 410.392905,106.443688 C410.85336,105.870138 411.424882,105.40767 412.107487,105.05627 C412.790092,104.70487 413.555487,104.529172 414.403694,104.529172 C415.276136,104.529172 416.023355,104.666499 416.645374,104.941156 C417.267393,105.215814 417.77227,105.591443 418.160022,106.068055 C418.531618,106.520432 418.808291,107.053583 418.99005,107.667524 C419.171808,108.281464 419.262686,108.947903 419.262686,109.66686 L419.262686,110.466594 L411.350163,110.466594 C411.350163,111.250176 411.424885,111.961044 411.574331,112.599219 C411.723777,113.237394 411.96006,113.798818 412.283186,114.283508 C412.598235,114.752042 413.010215,115.121612 413.519139,115.392231 C414.028064,115.662849 414.633917,115.798157 415.336718,115.798157 C416.055674,115.798157 416.675664,115.630537 417.196706,115.295293 C417.717748,114.96005 418.220606,114.356216 418.705296,113.483774 L419.553499,114.004813 Z M416.8756,109.44875 C416.8756,108.996373 416.83723,108.51169 416.760487,107.994688 C416.683745,107.477685 416.560554,107.04551 416.390913,106.698149 C416.205115,106.326553 415.950657,106.023626 415.62753,105.78936 C415.304404,105.555093 414.888384,105.437961 414.37946,105.437961 C413.531252,105.437961 412.826443,105.791376 412.265011,106.498215 C411.703578,107.205055 411.398632,108.188557 411.350163,109.44875 L416.8756,109.44875 Z" id="Moldable-Bone-Substi" fill="#2E2D38"></path>
            </g>
        </g>
    </g>
</svg>