<svg xmlns="http://www.w3.org/2000/svg" width="33" height="26"><title>wash_icon</title><desc>Created with Sketch.</desc><g fill="none"><g fill="#000" fill-rule="nonzero"><g><path d="M17.44 17.8l-9.5-9.5 11.5-3 5.3-5.3h7.38v1.4h-6.8l-4.9 4.9-2.98 11.5zM10.64 9l6.08 6.07 2.22-8.3L10.64 9zM8.33 12.4c-.1 0-.2-.03-.27-.1-.15-.16-.15-.4 0-.55l.8-.8c.15-.15.4-.15.55 0 .15.14.15.4 0 .53l-.8.8c-.08.1-.18.13-.27.13zM2.55 18.13c-.1 0-.2-.04-.27-.1-.15-.16-.15-.4 0-.55l1.45-1.46c.15-.14.4-.14.54 0 .15.15.15.4 0 .54l-1.45 1.46c-.08.07-.17.1-.27.1zm2.9-2.9c-.1 0-.18-.05-.26-.12-.16-.14-.16-.38 0-.53l1.45-1.46c.15-.14.4-.14.54 0 .14.16.14.4 0 .55L5.72 15.1c-.07.08-.17.12-.27.12zM.38 20.35c-.1 0-.2-.04-.27-.1-.14-.16-.14-.4 0-.55l.82-.8c.15-.16.4-.16.54 0 .15.14.15.38 0 .53l-.8.8c-.08.08-.18.12-.28.12zM9.77 14.57c-.1 0-.2-.04-.27-.1-.15-.16-.15-.4 0-.55l.8-.8c.16-.16.4-.16.55 0 .15.14.15.38 0 .53l-.8.8c-.08.08-.18.12-.28.12zM4 20.3c-.1 0-.2-.04-.28-.1-.15-.16-.15-.4 0-.55l1.46-1.46c.15-.16.4-.16.54 0 .15.14.15.38 0 .53L4.26 20.2c-.07.06-.17.1-.27.1zm2.9-2.9c-.1 0-.2-.05-.26-.13-.15-.14-.15-.4 0-.54l1.45-1.45c.14-.15.38-.15.53 0 .15.15.15.4 0 .54l-1.46 1.45c-.07.08-.17.12-.26.12zM1.83 22.52c-.1 0-.2-.04-.27-.12-.15-.14-.15-.4 0-.53l.8-.8c.15-.16.4-.16.55 0 .15.14.15.38 0 .53l-.8.8c-.08.08-.18.12-.27.12zM11.94 16.02c-.1 0-.2-.04-.27-.12-.15-.14-.15-.4 0-.53l.8-.8c.16-.16.4-.16.55 0 .15.13.15.38 0 .53l-.8.8c-.1.08-.18.12-.28.12zM6.16 21.74c-.1 0-.2-.03-.27-.1-.16-.16-.16-.4 0-.55l1.45-1.46c.15-.15.4-.15.54 0 .13.14.13.4 0 .53l-1.47 1.46c-.08.08-.17.1-.27.1zm2.9-2.9c-.1 0-.18-.05-.26-.12-.15-.15-.15-.4 0-.54l1.46-1.46c.15-.15.4-.15.54 0 .15.15.15.4 0 .54l-1.46 1.46c-.07.07-.17.1-.27.1zM4 23.96c-.1 0-.2-.04-.28-.1-.15-.16-.15-.4 0-.55l.8-.8c.16-.15.4-.15.55 0 .15.15.15.4 0 .54l-.8.8c-.08.08-.18.12-.28.12zM13.38 17.46c-.1 0-.2-.04-.27-.1-.14-.16-.14-.4 0-.55l.82-.8c.15-.15.4-.15.54 0 .15.15.15.4 0 .54l-.8.8c-.08.08-.18.12-.28.12zM7.6 23.2c-.1 0-.2-.05-.27-.12-.15-.15-.15-.4 0-.54l1.46-1.46c.14-.15.38-.15.53 0 .15.15.15.4 0 .54l-1.46 1.46c-.07.07-.17.1-.27.1zm2.92-2.93c-.1 0-.2-.03-.27-.1-.15-.16-.15-.4 0-.55l1.45-1.45c.15-.15.4-.15.54 0 .15.15.15.4 0 .54l-1.45 1.46c-.1.08-.2.1-.28.1zM5.44 25.4c-.1 0-.2-.03-.27-.1-.15-.16-.15-.4 0-.55l.8-.8c.16-.15.4-.15.55 0 .15.14.15.4 0 .53l-.8.8c-.1.1-.2.13-.28.13z"/></g></g></g></svg>