<svg xmlns="http://www.w3.org/2000/svg" width="31" height="24"><title>wet_icon</title><desc>Created with Sketch.</desc><g fill="none"><g><g><path d="M7.77 15.1c0-2.5 2.08-6.1 4.1-9.34C10.43 3.5 9.06 1.42 8.6 0 7 3.4 1 10.85 1 15.1 1 19.48 4.4 23 8.6 23c1.23 0 2.38-.3 3.4-.82-2.5-1.3-4.23-3.98-4.23-7.07"/><path fill="#8199DE" stroke="#000" d="M7.77 15.1c0-2.5 2.08-6.1 4.1-9.34C10.43 3.5 9.06 1.42 8.6 0 7 3.4 1 10.85 1 15.1 1 19.48 4.4 23 8.6 23c1.23 0 2.38-.3 3.4-.82-2.5-1.3-4.23-3.98-4.23-7.07z"/><path d="M15.58 18.94c-.62-1.13-.97-2.44-.97-3.83 0-1.04.38-2.27.95-3.6.83-1.9 2.1-3.98 3.33-5.92-1.43-2.2-2.76-4.2-3.2-5.58-.67 1.4-2.1 3.5-3.53 5.76C10.1 9 8 12.6 8 15.1c0 3.1 1.74 5.78 4.27 7.08 1.03.52 2.2.82 3.43.82 1.18 0 2.3-.27 3.3-.76-1.45-.7-2.64-1.87-3.42-3.3"/><path stroke="#000" d="M15.58 18.94c-.62-1.13-.97-2.44-.97-3.83 0-1.04.38-2.27.95-3.6.83-1.9 2.1-3.98 3.33-5.92-1.43-2.2-2.76-4.2-3.2-5.58-.67 1.4-2.1 3.5-3.53 5.76C10.1 9 8 12.6 8 15.1c0 3.1 1.74 5.78 4.27 7.08 1.03.52 2.2.82 3.43.82 1.18 0 2.3-.27 3.3-.76-1.45-.7-2.64-1.87-3.42-3.3z"/><path d="M22.47 0c-.63 1.37-1.95 3.38-3.3 5.58-1.22 1.94-2.45 4.02-3.25 5.93-.56 1.33-.92 2.56-.92 3.6 0 1.4.34 2.7.95 3.84.75 1.43 1.92 2.6 3.32 3.3.98.5 2.07.76 3.22.76 4.12 0 7.48-3.53 7.5-7.9 0-4.25-6.43-11.64-7.53-15.1"/><path fill="#79EAB9" stroke="#000" d="M22.47 0c-.63 1.37-1.95 3.38-3.3 5.58-1.22 1.94-2.45 4.02-3.25 5.93-.56 1.33-.92 2.56-.92 3.6 0 1.4.34 2.7.95 3.84.75 1.43 1.92 2.6 3.32 3.3.98.5 2.07.76 3.22.76 4.12 0 7.48-3.53 7.5-7.9 0-4.25-6.43-11.64-7.53-15.1z"/></g></g></g></svg>