<?xml version="1.0" encoding="UTF-8"?>
<svg width="31px" height="24px" viewBox="0 0 31 24" version="1.1" xmlns="http://www.w3.org/2000/svg" xmlns:xlink="http://www.w3.org/1999/xlink">
    <!-- Generator: Sketch 46 (44423) - http://www.bohemiancoding.com/sketch -->
    <title>wet_icon</title>
    <desc>Created with Sketch.</desc>
    <defs></defs>
    <g id="Round-3" stroke="none" stroke-width="1" fill="none" fill-rule="evenodd">
        <g id="Home" transform="translate(-989.000000, -1239.000000)">
            <g id="wet_icon" transform="translate(990.000000, 1239.000000)">
                <path d="M6.77267999,15.1073684 C6.77267999,12.6008526 8.84932379,8.99735789 10.8829961,5.75968421 C9.42383389,3.50398947 8.0503811,1.42115789 7.5900724,0 C6.00199571,3.41368421 0,10.8463158 0,15.1073684 C0,19.4652632 3.40969406,23 7.61342647,23 C8.83017346,23 9.97919365,22.7024526 11,22.1758737 C8.49527611,20.8835158 6.77267999,18.2041368 6.77267999,15.1073684" id="Fill-1"></path>
                <path d="M6.77267999,15.1073684 C6.77267999,12.6008526 8.84932379,8.99735789 10.8829961,5.75968421 C9.42383389,3.50398947 8.0503811,1.42115789 7.5900724,0 C6.00199571,3.41368421 0,10.8463158 0,15.1073684 C0,19.4652632 3.40969406,23 7.61342647,23 C8.83017346,23 9.97919365,22.7024526 11,22.1758737 C8.49527611,20.8835158 6.77267999,18.2041368 6.77267999,15.1073684 Z" id="Stroke-3" stroke="#000000" fill="#8199DE"></path>
                <path d="M14.5808674,18.9447368 C13.9628978,17.8085368 13.6093002,16.5004421 13.6093002,15.1073684 C13.6093002,14.0622 13.9756443,12.8262526 14.5499453,11.5058105 C15.3794125,9.59923158 16.6441493,7.51712632 17.8800884,5.57665263 C16.4503551,3.39141053 15.1240102,1.38266316 14.6715092,0 C14.0105792,1.40566316 12.5933564,3.49309474 11.1544173,5.75968421 C9.09892492,8.99735789 7,12.6008526 7,15.1073684 C7,18.2038947 8.74107852,20.8835158 11.2726766,22.1758737 C12.3039634,22.7024526 13.4655479,23 14.6951138,23 C15.8779425,23 16.9982189,22.7252105 18,22.2359158 C16.5542156,21.5294526 15.3579322,20.3734 14.5808674,18.9447368" id="Fill-5"></path>
                <path d="M14.5808674,18.9447368 C13.9628978,17.8085368 13.6093002,16.5004421 13.6093002,15.1073684 C13.6093002,14.0622 13.9756443,12.8262526 14.5499453,11.5058105 C15.3794125,9.59923158 16.6441493,7.51712632 17.8800884,5.57665263 C16.4503551,3.39141053 15.1240102,1.38266316 14.6715092,0 C14.0105792,1.40566316 12.5933564,3.49309474 11.1544173,5.75968421 C9.09892492,8.99735789 7,12.6008526 7,15.1073684 C7,18.2038947 8.74107852,20.8835158 11.2726766,22.1758737 C12.3039634,22.7024526 13.4655479,23 14.6951138,23 C15.8779425,23 16.9982189,22.7252105 18,22.2359158 C16.5542156,21.5294526 15.3579322,20.3734 14.5808674,18.9447368 Z" id="Stroke-7" stroke="#000000"></path>
                <path d="M21.4655436,0 C20.8395865,1.36765263 19.5169219,3.381 18.1561256,5.57665263 C16.9533691,7.51712632 15.7225881,9.59923158 14.9153905,11.5058105 C14.3562787,12.8262526 14,14.0622 14,15.1073684 C14,16.5004421 14.3441041,17.8085368 14.9454824,18.9447368 C15.7016845,20.3734 16.8658499,21.5294526 18.2728178,22.2359158 C19.2472435,22.7252105 20.3374426,23 21.4885145,23 C25.6232772,23 28.9770291,19.4652632 29,15.1073684 C29,10.8463158 22.568147,3.46210526 21.4655436,0" id="Fill-9"></path>
                <path d="M21.4655436,0 C20.8395865,1.36765263 19.5169219,3.381 18.1561256,5.57665263 C16.9533691,7.51712632 15.7225881,9.59923158 14.9153905,11.5058105 C14.3562787,12.8262526 14,14.0622 14,15.1073684 C14,16.5004421 14.3441041,17.8085368 14.9454824,18.9447368 C15.7016845,20.3734 16.8658499,21.5294526 18.2728178,22.2359158 C19.2472435,22.7252105 20.3374426,23 21.4885145,23 C25.6232772,23 28.9770291,19.4652632 29,15.1073684 C29,10.8463158 22.568147,3.46210526 21.4655436,0 Z" id="Stroke-11" stroke="#000000" fill="#79EAB9"></path>
            </g>
        </g>
    </g>
</svg>